<?xml version="1.0" encoding="UTF-8"?>
<svg width="698px" height="246px" viewBox="0 0 698 246" version="1.1" xmlns="http://www.w3.org/2000/svg" xmlns:xlink="http://www.w3.org/1999/xlink">
    <!-- Generator: sketchtool 61.2 (101010) - https://sketch.com -->
    <title>url-object.svg</title>
    <desc>Created with sketchtool.</desc>
    <g id="network" stroke="none" stroke-width="1" fill="none" fill-rule="evenodd">
        <g id="url-object.svg">
            <line x1="27" y1="38" x2="27" y2="218" id="Line-Copy" stroke="#EE6B47" stroke-width="2" fill="#EE6B47" stroke-linecap="square" stroke-dasharray="1"></line>
            <line x1="109" y1="132" x2="109" y2="218" id="Line-Copy-2" stroke="#EE6B47" stroke-width="2" fill="#EE6B47" stroke-linecap="square" stroke-dasharray="1"></line>
            <line x1="136" y1="112" x2="136" y2="218" id="Line-Copy-6" stroke="#EE6B47" stroke-width="2" fill="#EE6B47" stroke-linecap="square" stroke-dasharray="1"></line>
            <line x1="27" y1="38" x2="692" y2="38.5" id="Line-Copy-10" stroke="#EE6B47" stroke-width="2" fill="#EE6B47" stroke-linecap="square" stroke-dasharray="1"></line>
            <line x1="27" y1="74.5" x2="307" y2="74.5" id="Line-Copy-11" stroke="#EE6B47" stroke-width="2" fill="#EE6B47" stroke-linecap="square" stroke-dasharray="1"></line>
            <line x1="254" y1="132" x2="254" y2="218" id="Line-Copy-7" stroke="#EE6B47" stroke-width="2" fill="#EE6B47" stroke-linecap="square" stroke-dasharray="1"></line>
            <line x1="243" y1="132" x2="243" y2="218" id="Line-Copy-8" stroke="#EE6B47" stroke-width="2" fill="#EE6B47" stroke-linecap="square" stroke-dasharray="1"></line>
            <line x1="308" y1="38" x2="308" y2="218" id="Line-Copy-9" stroke="#EE6B47" stroke-width="2" fill="#EE6B47" stroke-linecap="square" stroke-dasharray="1"></line>
            <line x1="439" y1="132" x2="439" y2="218" id="Line-Copy-13" stroke="#EE6B47" stroke-width="2" fill="#EE6B47" stroke-linecap="square" stroke-dasharray="1"></line>
            <line x1="622" y1="132" x2="622" y2="218" id="Line-Copy-14" stroke="#EE6B47" stroke-width="2" fill="#EE6B47" stroke-linecap="square" stroke-dasharray="1"></line>
            <line x1="692" y1="39" x2="692" y2="218" id="Line-Copy-15" stroke="#EE6B47" stroke-width="2" fill="#EE6B47" stroke-linecap="square" stroke-dasharray="1"></line>
            <text id="href" font-family="PTMono-Regular, PT Mono" font-size="16" font-weight="normal" fill="#8A704D">
                <tspan x="337" y="33">href</tspan>
            </text>
            <text id="origin" font-family="PTMono-Regular, PT Mono" font-size="16" font-weight="normal" fill="#8A704D">
                <tspan x="135" y="68">origin</tspan>
            </text>
            <line x1="136" y1="112.5" x2="306" y2="112.5" id="Line-Copy-12" stroke="#EE6B47" stroke-width="2" fill="#EE6B47" stroke-linecap="square" stroke-dasharray="1"></line>
            <text id="host" font-family="PTMono-Regular, PT Mono" font-size="16" font-weight="normal" fill="#8A704D">
                <tspan x="202" y="106">host</tspan>
            </text>
            <text id="protocol" font-family="PTMono-Regular, PT Mono" font-size="16" font-weight="normal" fill="#8A704D">
                <tspan x="30.6" y="152">protocol</tspan>
            </text>
            <path d="M31.7719977,196.4 L34.5799977,196.4 L34.5799977,201.116 L34.6699977,201.116 C35.0419995,200.695998 35.4739952,200.369001 35.9659977,200.135 C36.4580001,199.900999 37.069994,199.784 37.8019977,199.784 C38.3780005,199.784 38.8789955,199.843999 39.3049977,199.964 C39.7309998,200.084001 40.0789963,200.293998 40.3489977,200.594 C40.618999,200.894002 40.819997,201.304997 40.9519977,201.827 C41.0839983,202.349003 41.1499977,203.011996 41.1499977,203.816 L41.1499977,209 L39.7459977,209 L39.7459977,204.086 C39.7459977,203.569997 39.715998,203.120002 39.6559977,202.736 C39.5959974,202.351998 39.4789985,202.031001 39.3049977,201.773 C39.1309968,201.514999 38.8939992,201.320001 38.5939977,201.188 C38.2939962,201.055999 37.91,200.99 37.4419977,200.99 C37.117996,200.99 36.7999992,201.046999 36.4879977,201.161 C36.1759961,201.275001 35.890999,201.430999 35.6329977,201.629 C35.3749964,201.827001 35.1529986,202.066999 34.9669977,202.349 C34.7809967,202.631001 34.651998,202.939998 34.5799977,203.276 L34.5799977,209 L33.1939977,209 L33.1939977,197.606 L31.7719977,197.606 L31.7719977,196.4 Z M45.4579978,200 L47.5999978,200 L47.5999978,198.218 L49.0039978,197.822 L49.0039978,200 L53.8099978,200 L53.8099978,201.206 L49.0039978,201.206 L49.0039978,205.454 C49.0039978,206.330004 49.2169956,206.977998 49.6429978,207.398 C50.0689999,207.818002 50.6779938,208.028 51.4699978,208.028 C52.0100005,208.028 52.4809957,207.926001 52.8829978,207.722 C53.2849998,207.517999 53.6479961,207.296001 53.9719978,207.056 L54.4399978,208.118 C54.0199957,208.454002 53.5190007,208.723999 52.9369978,208.928 C52.3549948,209.132001 51.7580008,209.234 51.1459978,209.234 C50.6659954,209.234 50.2129999,209.165001 49.7869978,209.027 C49.3609956,208.888999 48.9859994,208.676001 48.6619978,208.388 C48.3379961,208.099999 48.0799987,207.731002 47.8879978,207.281 C47.6959968,206.830998 47.5999978,206.294003 47.5999978,205.67 L47.5999978,201.206 L45.4579978,201.206 L45.4579978,200 Z M58.6579979,200 L60.7999979,200 L60.7999979,198.218 L62.2039979,197.822 L62.2039979,200 L67.0099979,200 L67.0099979,201.206 L62.2039979,201.206 L62.2039979,205.454 C62.2039979,206.330004 62.4169957,206.977998 62.8429979,207.398 C63.269,207.818002 63.8779939,208.028 64.6699979,208.028 C65.2100006,208.028 65.6809958,207.926001 66.0829979,207.722 C66.4849999,207.517999 66.8479962,207.296001 67.1719979,207.056 L67.6399979,208.118 C67.2199958,208.454002 66.7190008,208.723999 66.1369979,208.928 C65.5549949,209.132001 64.9580009,209.234 64.3459979,209.234 C63.8659955,209.234 63.413,209.165001 62.9869979,209.027 C62.5609957,208.888999 62.1859995,208.676001 61.8619979,208.388 C61.5379962,208.099999 61.2799988,207.731002 61.0879979,207.281 C60.8959969,206.830998 60.7999979,206.294003 60.7999979,205.67 L60.7999979,201.206 L58.6579979,201.206 L58.6579979,200 Z M73.0279979,203.15 C73.0279979,203.041999 73.024998,202.901001 73.0189979,202.727 C73.0129979,202.552999 73.003998,202.373001 72.9919979,202.187 C72.9799979,202.000999 72.964998,201.818001 72.9469979,201.638 C72.9289979,201.457999 72.9079981,201.302001 72.8839979,201.17 L71.6779979,201.17 L71.6779979,200 L74.0719979,200 L74.2519979,201.26 L74.3419979,201.26 C74.6659996,200.839998 75.0769955,200.489001 75.5749979,200.207 C76.0730004,199.924999 76.6819943,199.784 77.4019979,199.784 C78.6860044,199.784 79.6519947,200.137996 80.2999979,200.846 C80.9480012,201.554004 81.2719979,202.711992 81.2719979,204.32 C81.2719979,205.076004 81.1609991,205.756997 80.9389979,206.363 C80.7169968,206.969003 80.402,207.481998 79.9939979,207.902 C79.5859959,208.322002 79.0940008,208.645999 78.5179979,208.874 C77.9419951,209.102001 77.3060014,209.216 76.6099979,209.216 C76.3579967,209.216 76.1329989,209.207 75.9349979,209.189 C75.736997,209.171 75.5569988,209.147 75.3949979,209.117 C75.2329971,209.087 75.0739987,209.048 74.9179979,209 C74.7619972,208.952 74.5939988,208.892 74.4139979,208.82 L74.4139979,212.6 L73.0279979,212.6 L73.0279979,203.15 Z M77.1679979,201.098 C76.8079961,201.098 76.4689995,201.163999 76.1509979,201.296 C75.8329964,201.428001 75.5509992,201.601999 75.3049979,201.818 C75.0589967,202.034001 74.8579987,202.273999 74.7019979,202.538 C74.5459972,202.802001 74.4499981,203.065999 74.4139979,203.33 L74.4139979,207.434 C74.6779993,207.614001 74.9749963,207.754999 75.3049979,207.857 C75.6349996,207.959001 76.0699952,208.01 76.6099979,208.01 C77.5700027,208.01 78.3379951,207.695003 78.9139979,207.065 C79.4900008,206.434997 79.7779979,205.514006 79.7779979,204.302 C79.7779979,203.281995 79.577,202.493003 79.1749979,201.935 C78.7729959,201.376997 78.1040026,201.098 77.1679979,201.098 Z M92.383998,206.57 C92.383998,206.185998 92.2339995,205.889001 91.933998,205.679 C91.6339965,205.468999 91.2620003,205.301001 90.817998,205.175 C90.3739958,205.048999 89.8910007,204.932001 89.368998,204.824 C88.8469954,204.715999 88.3640003,204.572001 87.919998,204.392 C87.4759958,204.211999 87.1039995,203.969002 86.803998,203.663 C86.5039965,203.356998 86.353998,202.928003 86.353998,202.376 C86.353998,201.919998 86.4529971,201.530002 86.650998,201.206 C86.848999,200.881998 87.1099964,200.615001 87.433998,200.405 C87.7579997,200.194999 88.1359959,200.039001 88.567998,199.937 C89.0000002,199.834999 89.4499957,199.784 89.917998,199.784 C90.7580022,199.784 91.480995,199.888999 92.086998,200.099 C92.6930011,200.309001 93.1759962,200.527999 93.535998,200.756 L92.959998,201.89 C92.5639961,201.673999 92.1350004,201.467001 91.672998,201.269 C91.2109957,201.070999 90.6320015,200.972 89.935998,200.972 C89.6719967,200.972 89.4109993,200.999 89.152998,201.053 C88.8949968,201.107 88.6609991,201.187999 88.450998,201.296 C88.240997,201.404001 88.0729987,201.544999 87.946998,201.719 C87.8209974,201.893001 87.757998,202.105999 87.757998,202.358 C87.757998,202.670002 87.9079965,202.909999 88.207998,203.078 C88.5079995,203.246001 88.8799958,203.386999 89.323998,203.501 C89.7680003,203.615001 90.2509954,203.722999 90.772998,203.825 C91.2950007,203.927001 91.7779958,204.073999 92.221998,204.266 C92.6660003,204.458001 93.0379965,204.715998 93.337998,205.04 C93.6379995,205.364002 93.787998,205.801997 93.787998,206.354 C93.787998,207.182004 93.4610013,207.865997 92.806998,208.406 C92.1529948,208.946003 91.1720046,209.216 89.863998,209.216 C89.4679961,209.216 89.078,209.18 88.693998,209.108 C88.3099961,209.036 87.9499997,208.940001 87.613998,208.82 C87.2779964,208.699999 86.9719994,208.565001 86.695998,208.415 C86.4199967,208.264999 86.1919989,208.112001 86.011998,207.956 L86.731998,206.786 C86.8759988,206.930001 87.0679968,207.076999 87.307998,207.227 C87.5479992,207.377001 87.8119966,207.511999 88.099998,207.632 C88.3879995,207.752001 88.6969964,207.848 89.026998,207.92 C89.3569997,207.992 89.6899964,208.028 90.025998,208.028 C90.3499997,208.028 90.6529966,208.001 90.934998,207.947 C91.2169995,207.893 91.465997,207.809001 91.681998,207.695 C91.8979991,207.580999 92.0689974,207.431001 92.194998,207.245 C92.3209987,207.058999 92.383998,206.834001 92.383998,206.57 Z M101.893998,200.936 C101.893998,200.551998 102.001997,200.255001 102.217998,200.045 C102.433999,199.834999 102.721996,199.73 103.081998,199.73 C103.466,199.73 103.765997,199.834999 103.981998,200.045 C104.197999,200.255001 104.305998,200.551998 104.305998,200.936 C104.305998,201.284002 104.197999,201.571999 103.981998,201.8 C103.765997,202.028001 103.466,202.142 103.081998,202.142 C102.721996,202.142 102.433999,202.028001 102.217998,201.8 C102.001997,201.571999 101.893998,201.284002 101.893998,200.936 Z M101.893998,208.01 C101.893998,207.625998 102.001997,207.329001 102.217998,207.119 C102.433999,206.908999 102.721996,206.804 103.081998,206.804 C103.466,206.804 103.765997,206.908999 103.981998,207.119 C104.197999,207.329001 104.305998,207.625998 104.305998,208.01 C104.305998,208.358002 104.197999,208.645999 103.981998,208.874 C103.765997,209.102001 103.466,209.216 103.081998,209.216 C102.721996,209.216 102.433999,209.102001 102.217998,208.874 C102.001997,208.645999 101.893998,208.358002 101.893998,208.01 Z M119.017998,196.184 L120.151998,196.688 L113.581998,211.52 L112.447998,211.016 L119.017998,196.184 Z M132.217998,196.184 L133.351998,196.688 L126.781998,211.52 L125.647998,211.016 L132.217998,196.184 Z M145.183998,206.57 C145.183998,206.185998 145.034,205.889001 144.733998,205.679 C144.433997,205.468999 144.062001,205.301001 143.617998,205.175 C143.173996,205.048999 142.691001,204.932001 142.168998,204.824 C141.646996,204.715999 141.164001,204.572001 140.719998,204.392 C140.275996,204.211999 139.904,203.969002 139.603998,203.663 C139.303997,203.356998 139.153998,202.928003 139.153998,202.376 C139.153998,201.919998 139.252997,201.530002 139.450998,201.206 C139.648999,200.881998 139.909997,200.615001 140.233998,200.405 C140.558,200.194999 140.935996,200.039001 141.367998,199.937 C141.800001,199.834999 142.249996,199.784 142.717998,199.784 C143.558003,199.784 144.280995,199.888999 144.886998,200.099 C145.493001,200.309001 145.975997,200.527999 146.335998,200.756 L145.759998,201.89 C145.363996,201.673999 144.935001,201.467001 144.472998,201.269 C144.010996,201.070999 143.432002,200.972 142.735998,200.972 C142.471997,200.972 142.211,200.999 141.952998,201.053 C141.694997,201.107 141.460999,201.187999 141.250998,201.296 C141.040997,201.404001 140.872999,201.544999 140.746998,201.719 C140.620998,201.893001 140.557998,202.105999 140.557998,202.358 C140.557998,202.670002 140.707997,202.909999 141.007998,203.078 C141.308,203.246001 141.679996,203.386999 142.123998,203.501 C142.568001,203.615001 143.050996,203.722999 143.572998,203.825 C144.095001,203.927001 144.577996,204.073999 145.021998,204.266 C145.466001,204.458001 145.837997,204.715998 146.137998,205.04 C146.438,205.364002 146.587998,205.801997 146.587998,206.354 C146.587998,207.182004 146.261002,207.865997 145.606998,208.406 C144.952995,208.946003 143.972005,209.216 142.663998,209.216 C142.267996,209.216 141.878,209.18 141.493998,209.108 C141.109997,209.036 140.75,208.940001 140.413998,208.82 C140.077997,208.699999 139.772,208.565001 139.495998,208.415 C139.219997,208.264999 138.991999,208.112001 138.811998,207.956 L139.531998,206.786 C139.675999,206.930001 139.867997,207.076999 140.107998,207.227 C140.348,207.377001 140.611997,207.511999 140.899998,207.632 C141.188,207.752001 141.496997,207.848 141.826998,207.92 C142.157,207.992 142.489997,208.028 142.825998,208.028 C143.15,208.028 143.452997,208.001 143.734998,207.947 C144.017,207.893 144.265997,207.809001 144.481998,207.695 C144.698,207.580999 144.868998,207.431001 144.994998,207.245 C145.120999,207.058999 145.183998,206.834001 145.183998,206.57 Z M152.389999,209 L152.389999,207.794 L155.521999,207.794 L155.521999,201.206 L152.389999,201.206 L152.389999,200 L156.961999,200 L156.961999,207.794 L160.021999,207.794 L160.021999,209 L152.389999,209 Z M155.035999,197.444 C155.035999,197.119998 155.143997,196.841001 155.359999,196.607 C155.576,196.372999 155.851997,196.256 156.187999,196.256 C156.535999,196.256 156.826997,196.372999 157.060999,196.607 C157.295,196.841001 157.411999,197.119998 157.411999,197.444 C157.411999,197.756 157.295,198.019999 157.060999,198.236 C156.826997,198.452001 156.535999,198.56 156.187999,198.56 C155.851997,198.56 155.576,198.452001 155.359999,198.236 C155.143997,198.019999 155.035999,197.756 155.035999,197.444 Z M164.257999,200 L166.399999,200 L166.399999,198.218 L167.803999,197.822 L167.803999,200 L172.609999,200 L172.609999,201.206 L167.803999,201.206 L167.803999,205.454 C167.803999,206.330004 168.016996,206.977998 168.442999,207.398 C168.869001,207.818002 169.477995,208.028 170.269999,208.028 C170.810001,208.028 171.280997,207.926001 171.682999,207.722 C172.085001,207.517999 172.447997,207.296001 172.771999,207.056 L173.239999,208.118 C172.819997,208.454002 172.319002,208.723999 171.736999,208.928 C171.154996,209.132001 170.558002,209.234 169.945999,209.234 C169.465996,209.234 169.013001,209.165001 168.586999,209.027 C168.160996,208.888999 167.786,208.676001 167.461999,208.388 C167.137997,208.099999 166.88,207.731002 166.687999,207.281 C166.495998,206.830998 166.399999,206.294003 166.399999,205.67 L166.399999,201.206 L164.257999,201.206 L164.257999,200 Z M186.421999,207.866 C186.205998,208.058001 185.951,208.237999 185.656999,208.406 C185.362997,208.574001 185.042,208.717999 184.693999,208.838 C184.345997,208.958001 183.983001,209.051 183.604999,209.117 C183.226997,209.183 182.846001,209.216 182.461999,209.216 C181.741995,209.216 181.106001,209.105001 180.553999,208.883 C180.001996,208.660999 179.540001,208.343002 179.167999,207.929 C178.795997,207.514998 178.514,207.020003 178.321999,206.444 C178.129998,205.867997 178.033999,205.220004 178.033999,204.5 C178.033999,203.743996 178.138998,203.072003 178.348999,202.484 C178.559,201.895997 178.861997,201.404002 179.257999,201.008 C179.654001,200.611998 180.133996,200.309001 180.697999,200.099 C181.262002,199.888999 181.891995,199.784 182.587999,199.784 C183.092001,199.784 183.589996,199.849999 184.081999,199.982 C184.574001,200.114001 185.008997,200.362998 185.386999,200.729 C185.765001,201.095002 186.055998,201.598997 186.259999,202.241 C186.464,202.883003 186.535999,203.713995 186.475999,204.734 L179.509999,204.734 C179.509999,205.814005 179.800996,206.620997 180.382999,207.155 C180.965002,207.689003 181.741994,207.956 182.713999,207.956 C183.038,207.956 183.358997,207.917 183.676999,207.839 C183.995,207.761 184.297997,207.668001 184.585999,207.56 C184.874,207.451999 185.128998,207.332001 185.350999,207.2 C185.573,207.067999 185.743998,206.948001 185.863999,206.84 L186.421999,207.866 Z M182.623999,200.972 C182.227997,200.972 181.853,201.014 181.498999,201.098 C181.144997,201.182 180.833,201.322999 180.562999,201.521 C180.292997,201.719001 180.071,201.976998 179.896999,202.295 C179.722998,202.613002 179.611999,203.005998 179.563999,203.474 L185.161999,203.474 C185.101998,202.681996 184.847001,202.067002 184.396999,201.629 C183.946996,201.190998 183.356002,200.972 182.623999,200.972 Z M194.293999,208.01 C194.293999,207.625998 194.401998,207.329001 194.617999,207.119 C194.834,206.908999 195.121997,206.804 195.481999,206.804 C195.866001,206.804 196.165998,206.908999 196.381999,207.119 C196.598,207.329001 196.705999,207.625998 196.705999,208.01 C196.705999,208.358002 196.598,208.645999 196.381999,208.874 C196.165998,209.102001 195.866001,209.216 195.481999,209.216 C195.121997,209.216 194.834,209.102001 194.617999,208.874 C194.401998,208.645999 194.293999,208.358002 194.293999,208.01 Z M211.201999,201.386 C210.925998,201.29 210.629,201.209 210.310999,201.143 C209.992997,201.077 209.678,201.044 209.365999,201.044 C208.189993,201.044 207.314002,201.319997 206.737999,201.872 C206.161996,202.424003 205.873999,203.299994 205.873999,204.5 C205.873999,205.028003 205.957998,205.498998 206.125999,205.913 C206.294,206.327002 206.533997,206.677999 206.845999,206.966 C207.158,207.254001 207.532997,207.475999 207.970999,207.632 C208.409001,207.788001 208.891996,207.866 209.419999,207.866 C209.984002,207.866 210.532996,207.770001 211.066999,207.578 C211.601002,207.385999 212.047997,207.134002 212.407999,206.822 L213.037999,207.866 C212.869998,208.010001 212.66,208.159999 212.407999,208.316 C212.155998,208.472001 211.865001,208.618999 211.534999,208.757 C211.204997,208.895001 210.839001,209.006 210.436999,209.09 C210.034997,209.174 209.600001,209.216 209.131999,209.216 C208.351995,209.216 207.665002,209.105001 207.070999,208.883 C206.476996,208.660999 205.982001,208.343002 205.585999,207.929 C205.189997,207.514998 204.89,207.017003 204.685999,206.435 C204.481998,205.852997 204.379999,205.208004 204.379999,204.5 C204.379999,203.743996 204.484998,203.072003 204.694999,202.484 C204.905,201.895997 205.207997,201.404002 205.603999,201.008 C206.000001,200.611998 206.479996,200.309001 207.043999,200.099 C207.608002,199.888999 208.237995,199.784 208.933999,199.784 C209.822003,199.784 210.544996,199.861999 211.102999,200.018 C211.661002,200.174001 212.131997,200.347999 212.515999,200.54 L212.497999,200.594 L212.497999,203.096 L211.201999,203.096 L211.201999,201.386 Z M217.525999,204.5 C217.525999,203.047993 217.903995,201.899004 218.659999,201.053 C219.416003,200.206996 220.495992,199.784 221.899999,199.784 C222.656003,199.784 223.306996,199.906999 223.852999,200.153 C224.399002,200.399001 224.851997,200.731998 225.211999,201.152 C225.572001,201.572002 225.838998,202.069997 226.012999,202.646 C226.187,203.222003 226.273999,203.839997 226.273999,204.5 C226.273999,205.220004 226.178,205.870997 225.985999,206.453 C225.793998,207.035003 225.512001,207.529998 225.139999,207.938 C224.767997,208.346002 224.309002,208.660999 223.762999,208.883 C223.216996,209.105001 222.596002,209.216 221.899999,209.216 C221.155995,209.216 220.508002,209.093001 219.955999,208.847 C219.403996,208.600999 218.948001,208.268002 218.587999,207.848 C218.227997,207.427998 217.961,206.930003 217.786999,206.354 C217.612998,205.777997 217.525999,205.160003 217.525999,204.5 Z M219.019999,204.5 C219.019999,204.920002 219.070998,205.339998 219.172999,205.76 C219.275,206.180002 219.439998,206.557998 219.667999,206.894 C219.896,207.230002 220.192997,207.499999 220.558999,207.704 C220.925001,207.908001 221.371996,208.01 221.899999,208.01 C222.860004,208.01 223.582997,207.713003 224.068999,207.119 C224.555001,206.524997 224.797999,205.652006 224.797999,204.5 C224.797999,204.067998 224.747,203.645002 224.644999,203.231 C224.542998,202.816998 224.375,202.442002 224.140999,202.106 C223.906998,201.769998 223.607001,201.500001 223.240999,201.296 C222.874997,201.091999 222.428002,200.99 221.899999,200.99 C220.939994,200.99 220.220001,201.283997 219.739999,201.872 C219.259997,202.460003 219.019999,203.335994 219.019999,204.5 Z M234.415999,209 L234.415999,203.006 C234.415999,202.753999 234.406999,202.511001 234.388999,202.277 C234.370999,202.042999 234.328999,201.833001 234.262999,201.647 C234.196999,201.460999 234.101,201.314001 233.974999,201.206 C233.848998,201.097999 233.684,201.044 233.479999,201.044 C233.071997,201.044 232.727001,201.211998 232.444999,201.548 C232.162998,201.884002 231.95,202.303997 231.805999,202.808 L231.805999,209 L230.437999,209 L230.437999,200 L231.373999,200 L231.643999,201.098 L231.715999,201.098 C231.836,200.917999 231.952999,200.747001 232.066999,200.585 C232.181,200.422999 232.312998,200.282001 232.462999,200.162 C232.613,200.041999 232.789998,199.949 232.993999,199.883 C233.198,199.817 233.455998,199.784 233.767999,199.784 C233.948,199.784 234.133998,199.811 234.325999,199.865 C234.518,199.919 234.694998,200.002999 234.856999,200.117 C235.019,200.231001 235.159998,200.383999 235.279999,200.576 C235.4,200.768001 235.477999,201.001999 235.513999,201.278 C235.79,200.809998 236.098997,200.444001 236.440999,200.18 C236.783001,199.915999 237.253996,199.784 237.853999,199.784 C238.250001,199.784 238.570998,199.849999 238.816999,199.982 C239.063,200.114001 239.254998,200.302999 239.392999,200.549 C239.531,200.795001 239.626999,201.088998 239.680999,201.431 C239.734999,201.773002 239.761999,202.153998 239.761999,202.574 L239.761999,209 L238.393999,209 L238.393999,202.88 C238.393999,202.627999 238.381999,202.391001 238.357999,202.169 C238.333999,201.946999 238.288999,201.752001 238.222999,201.584 C238.156999,201.415999 238.067,201.284 237.952999,201.188 C237.838999,201.092 237.686,201.044 237.493999,201.044 C237.073997,201.044 236.720001,201.211998 236.431999,201.548 C236.143998,201.884002 235.928,202.363997 235.783999,202.988 L235.783999,209 L234.415999,209 Z M247.093999,200.936 C247.093999,200.551998 247.201998,200.255001 247.417999,200.045 C247.634,199.834999 247.921997,199.73 248.281999,199.73 C248.666001,199.73 248.965998,199.834999 249.181999,200.045 C249.398,200.255001 249.505999,200.551998 249.505999,200.936 C249.505999,201.284002 249.398,201.571999 249.181999,201.8 C248.965998,202.028001 248.666001,202.142 248.281999,202.142 C247.921997,202.142 247.634,202.028001 247.417999,201.8 C247.201998,201.571999 247.093999,201.284002 247.093999,200.936 Z M247.093999,208.01 C247.093999,207.625998 247.201998,207.329001 247.417999,207.119 C247.634,206.908999 247.921997,206.804 248.281999,206.804 C248.666001,206.804 248.965998,206.908999 249.181999,207.119 C249.398,207.329001 249.505999,207.625998 249.505999,208.01 C249.505999,208.358002 249.398,208.645999 249.181999,208.874 C248.965998,209.102001 248.666001,209.216 248.281999,209.216 C247.921997,209.216 247.634,209.102001 247.417999,208.874 C247.201998,208.645999 247.093999,208.358002 247.093999,208.01 Z M257.449999,205.94 C257.449999,204.487993 258.33199,203.318004 260.095999,202.43 C259.759998,202.249999 259.448001,202.064001 259.159999,201.872 C258.871998,201.679999 258.623,201.464001 258.412999,201.224 C258.202998,200.983999 258.038,200.708002 257.917999,200.396 C257.797999,200.083998 257.737999,199.724002 257.737999,199.316 C257.737999,198.871998 257.827998,198.458002 258.007999,198.074 C258.188,197.689998 258.445998,197.360001 258.781999,197.084 C259.118001,196.807999 259.525997,196.589001 260.005999,196.427 C260.486002,196.264999 261.019996,196.184 261.607999,196.184 C262.160002,196.184 262.660997,196.255999 263.110999,196.4 C263.561002,196.544001 263.944998,196.744999 264.262999,197.003 C264.581001,197.261001 264.823998,197.563998 264.991999,197.912 C265.16,198.260002 265.243999,198.631998 265.243999,199.028 C265.243999,199.712003 265.073001,200.338997 264.730999,200.909 C264.388998,201.479003 263.840003,201.997998 263.083999,202.466 C263.432001,202.646001 263.755998,202.837999 264.055999,203.042 C264.356001,203.246001 264.616998,203.473999 264.838999,203.726 C265.061,203.978001 265.234999,204.262998 265.360999,204.581 C265.487,204.899002 265.549999,205.261998 265.549999,205.67 C265.549999,206.174003 265.46,206.644998 265.279999,207.083 C265.099998,207.521002 264.833001,207.895998 264.478999,208.208 C264.124998,208.520002 263.690002,208.765999 263.173999,208.946 C262.657997,209.126001 262.058003,209.216 261.373999,209.216 C260.737996,209.216 260.174002,209.126001 259.681999,208.946 C259.189997,208.765999 258.779001,208.526002 258.448999,208.226 C258.118998,207.925998 257.87,207.578002 257.701999,207.182 C257.533998,206.785998 257.449999,206.372002 257.449999,205.94 Z M264.127999,205.76 C264.127999,205.411998 264.047,205.103001 263.884999,204.833 C263.722998,204.562999 263.507001,204.320001 263.236999,204.104 C262.966998,203.887999 262.658001,203.690001 262.309999,203.51 C261.961998,203.329999 261.602001,203.150001 261.229999,202.97 C260.365995,203.390002 259.751001,203.851997 259.384999,204.356 C259.018997,204.860003 258.835999,205.333998 258.835999,205.778 C258.835999,206.078001 258.892999,206.362999 259.006999,206.633 C259.121,206.903001 259.288998,207.139999 259.510999,207.344 C259.733,207.548001 260.008998,207.709999 260.338999,207.83 C260.669001,207.950001 261.049997,208.01 261.481999,208.01 C261.830001,208.01 262.162998,207.962 262.480999,207.866 C262.799001,207.77 263.080998,207.629001 263.326999,207.443 C263.573001,207.256999 263.767999,207.023001 263.911999,206.741 C264.056,206.458999 264.127999,206.132002 264.127999,205.76 Z M259.141999,199.262 C259.141999,199.598002 259.219999,199.897999 259.375999,200.162 C259.532,200.426001 259.738998,200.662999 259.996999,200.873 C260.255001,201.083001 260.551998,201.274999 260.887999,201.449 C261.224001,201.623001 261.577997,201.793999 261.949999,201.962 C262.586002,201.541998 263.062998,201.122002 263.380999,200.702 C263.699001,200.281998 263.857999,199.820003 263.857999,199.316 C263.857999,199.015998 263.795,198.749001 263.668999,198.515 C263.542999,198.280999 263.375,198.080001 263.164999,197.912 C262.954998,197.743999 262.712001,197.615 262.435999,197.525 C262.159998,197.435 261.872001,197.39 261.571999,197.39 C261.187997,197.39 260.846001,197.443999 260.545999,197.552 C260.245998,197.660001 259.994,197.803999 259.789999,197.984 C259.585998,198.164001 259.427,198.364999 259.312999,198.587 C259.198999,198.809001 259.141999,199.033999 259.141999,199.262 Z M270.289999,202.7 C270.289999,201.679995 270.379998,200.765004 270.559999,199.955 C270.74,199.144996 271.009998,198.461003 271.369999,197.903 C271.730001,197.344997 272.185997,196.919001 272.737999,196.625 C273.289999,196.330999 273.943996,196.184 274.699999,196.184 C275.504003,196.184 276.184997,196.327999 276.742999,196.616 C277.301002,196.904001 277.753998,197.323997 278.101999,197.876 C278.450001,198.428003 278.701999,199.108996 278.857999,199.919 C279.014,200.729004 279.091999,201.655995 279.091999,202.7 C279.091999,203.720005 279.002,204.634996 278.821999,205.445 C278.641998,206.255004 278.372001,206.938997 278.011999,207.497 C277.651998,208.055003 277.196002,208.480999 276.643999,208.775 C276.091997,209.069001 275.438003,209.216 274.681999,209.216 C273.889995,209.216 273.215002,209.057002 272.656999,208.739 C272.098997,208.420998 271.643001,207.974003 271.288999,207.398 C270.934998,206.821997 270.68,206.135004 270.523999,205.337 C270.367999,204.538996 270.289999,203.660005 270.289999,202.7 Z M277.615999,202.7 C277.615999,202.063997 277.58,201.458003 277.507999,200.882 L272.161999,205.76 C272.366,206.444003 272.671997,206.989998 273.079999,207.398 C273.488001,207.806002 274.021996,208.01 274.681999,208.01 C275.738005,208.01 276.490997,207.572004 276.940999,206.696 C277.391002,205.819996 277.615999,204.488009 277.615999,202.7 Z M271.783999,202.7 C271.783999,203.000001 271.792999,203.287999 271.810999,203.564 C271.828999,203.840001 271.849999,204.109999 271.873999,204.374 L277.237999,199.514 C277.033998,198.865997 276.731001,198.350002 276.328999,197.966 C275.926997,197.581998 275.384003,197.39 274.699999,197.39 C273.631994,197.39 272.879002,197.830996 272.440999,198.713 C272.002997,199.595004 271.783999,200.923991 271.783999,202.7 Z M283.849999,205.94 C283.849999,204.487993 284.731991,203.318004 286.495999,202.43 C286.159998,202.249999 285.848001,202.064001 285.559999,201.872 C285.271998,201.679999 285.023001,201.464001 284.812999,201.224 C284.602998,200.983999 284.438,200.708002 284.317999,200.396 C284.197999,200.083998 284.137999,199.724002 284.137999,199.316 C284.137999,198.871998 284.227999,198.458002 284.407999,198.074 C284.588,197.689998 284.845998,197.360001 285.181999,197.084 C285.518001,196.807999 285.925997,196.589001 286.405999,196.427 C286.886002,196.264999 287.419997,196.184 288.007999,196.184 C288.560002,196.184 289.060997,196.255999 289.510999,196.4 C289.961002,196.544001 290.344998,196.744999 290.662999,197.003 C290.981001,197.261001 291.223999,197.563998 291.391999,197.912 C291.56,198.260002 291.643999,198.631998 291.643999,199.028 C291.643999,199.712003 291.473001,200.338997 291.130999,200.909 C290.788998,201.479003 290.240003,201.997998 289.483999,202.466 C289.832001,202.646001 290.155998,202.837999 290.455999,203.042 C290.756001,203.246001 291.016998,203.473999 291.238999,203.726 C291.461001,203.978001 291.634999,204.262998 291.760999,204.581 C291.887,204.899002 291.949999,205.261998 291.949999,205.67 C291.949999,206.174003 291.86,206.644998 291.679999,207.083 C291.499999,207.521002 291.233001,207.895998 290.878999,208.208 C290.524998,208.520002 290.090002,208.765999 289.573999,208.946 C289.057997,209.126001 288.458003,209.216 287.773999,209.216 C287.137996,209.216 286.574002,209.126001 286.081999,208.946 C285.589997,208.765999 285.179001,208.526002 284.848999,208.226 C284.518998,207.925998 284.27,207.578002 284.101999,207.182 C283.933999,206.785998 283.849999,206.372002 283.849999,205.94 Z M290.527999,205.76 C290.527999,205.411998 290.447,205.103001 290.284999,204.833 C290.122999,204.562999 289.907001,204.320001 289.636999,204.104 C289.366998,203.887999 289.058001,203.690001 288.709999,203.51 C288.361998,203.329999 288.002001,203.150001 287.629999,202.97 C286.765995,203.390002 286.151001,203.851997 285.784999,204.356 C285.418998,204.860003 285.235999,205.333998 285.235999,205.778 C285.235999,206.078001 285.292999,206.362999 285.406999,206.633 C285.521,206.903001 285.688998,207.139999 285.910999,207.344 C286.133001,207.548001 286.408998,207.709999 286.738999,207.83 C287.069001,207.950001 287.449997,208.01 287.881999,208.01 C288.230001,208.01 288.562998,207.962 288.880999,207.866 C289.199001,207.77 289.480998,207.629001 289.726999,207.443 C289.973001,207.256999 290.167999,207.023001 290.311999,206.741 C290.456,206.458999 290.527999,206.132002 290.527999,205.76 Z M285.541999,199.262 C285.541999,199.598002 285.619999,199.897999 285.775999,200.162 C285.932,200.426001 286.138998,200.662999 286.396999,200.873 C286.655001,201.083001 286.951998,201.274999 287.287999,201.449 C287.624001,201.623001 287.977998,201.793999 288.349999,201.962 C288.986003,201.541998 289.462998,201.122002 289.780999,200.702 C290.099001,200.281998 290.257999,199.820003 290.257999,199.316 C290.257999,199.015998 290.195,198.749001 290.068999,198.515 C289.942999,198.280999 289.775001,198.080001 289.564999,197.912 C289.354998,197.743999 289.112001,197.615 288.835999,197.525 C288.559998,197.435 288.272001,197.39 287.971999,197.39 C287.587998,197.39 287.246001,197.443999 286.945999,197.552 C286.645998,197.660001 286.394,197.803999 286.189999,197.984 C285.985998,198.164001 285.827,198.364999 285.712999,198.587 C285.598999,198.809001 285.541999,199.033999 285.541999,199.262 Z M296.69,202.7 C296.69,201.679995 296.779999,200.765004 296.96,199.955 C297.14,199.144996 297.409998,198.461003 297.77,197.903 C298.130001,197.344997 298.585997,196.919001 299.138,196.625 C299.69,196.330999 300.343996,196.184 301.1,196.184 C301.904004,196.184 302.584997,196.327999 303.143,196.616 C303.701002,196.904001 304.153998,197.323997 304.502,197.876 C304.850001,198.428003 305.101999,199.108996 305.258,199.919 C305.414,200.729004 305.492,201.655995 305.492,202.7 C305.492,203.720005 305.402,204.634996 305.222,205.445 C305.041999,206.255004 304.772001,206.938997 304.412,207.497 C304.051998,208.055003 303.596002,208.480999 303.044,208.775 C302.491997,209.069001 301.838003,209.216 301.082,209.216 C300.289996,209.216 299.615002,209.057002 299.057,208.739 C298.498997,208.420998 298.043001,207.974003 297.689,207.398 C297.334998,206.821997 297.08,206.135004 296.924,205.337 C296.767999,204.538996 296.69,203.660005 296.69,202.7 Z M304.016,202.7 C304.016,202.063997 303.98,201.458003 303.908,200.882 L298.562,205.76 C298.766001,206.444003 299.071998,206.989998 299.48,207.398 C299.888002,207.806002 300.421996,208.01 301.082,208.01 C302.138005,208.01 302.890997,207.572004 303.341,206.696 C303.791002,205.819996 304.016,204.488009 304.016,202.7 Z M298.184,202.7 C298.184,203.000001 298.192999,203.287999 298.211,203.564 C298.229,203.840001 298.249999,204.109999 298.274,204.374 L303.638,199.514 C303.433999,198.865997 303.131002,198.350002 302.729,197.966 C302.326998,197.581998 301.784003,197.39 301.1,197.39 C300.031994,197.39 299.279002,197.830996 298.841,198.713 C298.402997,199.595004 298.184,200.923991 298.184,202.7 Z M317.018,196.184 L318.152,196.688 L311.582,211.52 L310.448,211.016 L317.018,196.184 Z M323.828,203.15 C323.828,203.041999 323.825,202.901001 323.819,202.727 C323.813,202.552999 323.804,202.373001 323.792,202.187 C323.78,202.000999 323.765,201.818001 323.747,201.638 C323.729,201.457999 323.708,201.302001 323.684,201.17 L322.478,201.17 L322.478,200 L324.872,200 L325.052,201.26 L325.142,201.26 C325.466001,200.839998 325.876997,200.489001 326.375,200.207 C326.873002,199.924999 327.481996,199.784 328.202,199.784 C329.486006,199.784 330.451997,200.137996 331.1,200.846 C331.748003,201.554004 332.072,202.711992 332.072,204.32 C332.072,205.076004 331.961001,205.756997 331.739,206.363 C331.516999,206.969003 331.202002,207.481998 330.794,207.902 C330.385998,208.322002 329.894003,208.645999 329.318,208.874 C328.741997,209.102001 328.106003,209.216 327.41,209.216 C327.157999,209.216 326.933001,209.207 326.735,209.189 C326.536999,209.171 326.357001,209.147 326.195,209.117 C326.032999,209.087 325.874001,209.048 325.718,209 C325.561999,208.952 325.394001,208.892 325.214,208.82 L325.214,212.6 L323.828,212.6 L323.828,203.15 Z M327.968,201.098 C327.607998,201.098 327.269001,201.163999 326.951,201.296 C326.632998,201.428001 326.351001,201.601999 326.105,201.818 C325.858999,202.034001 325.658001,202.273999 325.502,202.538 C325.345999,202.802001 325.25,203.065999 325.214,203.33 L325.214,207.434 C325.478001,207.614001 325.774998,207.754999 326.105,207.857 C326.435001,207.959001 326.869997,208.01 327.41,208.01 C328.370005,208.01 329.137997,207.695003 329.714,207.065 C330.290003,206.434997 330.578,205.514006 330.578,204.302 C330.578,203.281995 330.377002,202.493003 329.975,201.935 C329.572998,201.376997 328.904004,201.098 327.968,201.098 Z M337.244,200.702 C337.760002,200.401998 338.341997,200.186001 338.99,200.054 C339.638003,199.921999 340.273997,199.856 340.898,199.856 C341.510003,199.856 342.010998,199.951999 342.401,200.144 C342.791002,200.336001 343.096999,200.584998 343.319,200.891 C343.541001,201.197002 343.690999,201.544998 343.769,201.935 C343.847,202.325002 343.886,202.717998 343.886,203.114 C343.886,203.570002 343.874,204.055997 343.85,204.572 C343.826,205.088003 343.808,205.603997 343.796,206.12 C343.796,206.720003 343.831999,207.289997 343.904,207.83 L345.11,207.83 L345.11,209 L342.716,209 L342.554,207.65 L342.464,207.65 C342.391999,207.758001 342.284001,207.895999 342.14,208.064 C341.995999,208.232001 341.807001,208.396999 341.573,208.559 C341.338999,208.721001 341.054002,208.861999 340.718,208.982 C340.381998,209.102001 339.986002,209.162 339.53,209.162 C338.641995,209.162 337.940002,208.934002 337.424,208.478 C336.907997,208.021998 336.65,207.398004 336.65,206.606 C336.65,205.993997 336.784999,205.484002 337.055,205.076 C337.325001,204.667998 337.711997,204.356 338.216,204.14 C338.720002,203.923999 339.328996,203.798 340.043,203.762 C340.757003,203.726 341.557995,203.773999 342.446,203.906 C342.506,203.353997 342.515,202.895002 342.473,202.529 C342.431,202.162998 342.335001,201.872001 342.185,201.656 C342.034999,201.439999 341.825001,201.287 341.555,201.197 C341.284999,201.107 340.952002,201.062 340.556,201.062 C340.015997,201.062 339.500002,201.136999 339.008,201.287 C338.515997,201.437001 338.078002,201.589999 337.694,201.746 L337.244,200.702 Z M339.89,207.956 C340.226002,207.956 340.537998,207.902001 340.826,207.794 C341.114001,207.685999 341.365999,207.548001 341.582,207.38 C341.798001,207.211999 341.977999,207.029001 342.122,206.831 C342.266001,206.632999 342.373999,206.444001 342.446,206.264 L342.446,205.004 C341.821997,204.895999 341.246002,204.842 340.718,204.842 C340.189997,204.842 339.734002,204.898999 339.35,205.013 C338.965998,205.127001 338.666001,205.303999 338.45,205.544 C338.233999,205.784001 338.126,206.095998 338.126,206.48 C338.126,206.876002 338.260999,207.220999 338.531,207.515 C338.801001,207.809001 339.253997,207.956 339.89,207.956 Z M349.058,200 L351.2,200 L351.2,198.218 L352.604,197.822 L352.604,200 L357.41,200 L357.41,201.206 L352.604,201.206 L352.604,205.454 C352.604,206.330004 352.816998,206.977998 353.243,207.398 C353.669002,207.818002 354.277996,208.028 355.07,208.028 C355.610003,208.028 356.080998,207.926001 356.483,207.722 C356.885002,207.517999 357.247998,207.296001 357.572,207.056 L358.04,208.118 C357.619998,208.454002 357.119003,208.723999 356.537,208.928 C355.954997,209.132001 355.358003,209.234 354.746,209.234 C354.265998,209.234 353.813002,209.165001 353.387,209.027 C352.960998,208.888999 352.586002,208.676001 352.262,208.388 C351.937998,208.099999 351.680001,207.731002 351.488,207.281 C351.295999,206.830998 351.2,206.294003 351.2,205.67 L351.2,201.206 L349.058,201.206 L349.058,200 Z M361.772,196.4 L364.58,196.4 L364.58,201.116 L364.67,201.116 C365.042002,200.695998 365.473998,200.369001 365.966,200.135 C366.458003,199.900999 367.069996,199.784 367.802,199.784 C368.378003,199.784 368.878998,199.843999 369.305,199.964 C369.731002,200.084001 370.078999,200.293998 370.349,200.594 C370.619001,200.894002 370.819999,201.304997 370.952,201.827 C371.084001,202.349003 371.15,203.011996 371.15,203.816 L371.15,209 L369.746,209 L369.746,204.086 C369.746,203.569997 369.716,203.120002 369.656,202.736 C369.596,202.351998 369.479001,202.031001 369.305,201.773 C369.130999,201.514999 368.894002,201.320001 368.594,201.188 C368.293999,201.055999 367.910002,200.99 367.442,200.99 C367.117998,200.99 366.800002,201.046999 366.488,201.161 C366.175998,201.275001 365.891001,201.430999 365.633,201.629 C365.374999,201.827001 365.153001,202.066999 364.967,202.349 C364.780999,202.631001 364.652,202.939998 364.58,203.276 L364.58,209 L363.194,209 L363.194,197.606 L361.772,197.606 L361.772,196.4 Z M383.018,196.184 L384.152,196.688 L377.582,211.52 L376.448,211.016 L383.018,196.184 Z M389.828,203.15 C389.828,203.041999 389.825,202.901001 389.819,202.727 C389.813,202.552999 389.804,202.373001 389.792,202.187 C389.78,202.000999 389.765,201.818001 389.747,201.638 C389.729,201.457999 389.708,201.302001 389.684,201.17 L388.478,201.17 L388.478,200 L390.872,200 L391.052,201.26 L391.142,201.26 C391.466002,200.839998 391.876998,200.489001 392.375,200.207 C392.873003,199.924999 393.481997,199.784 394.202,199.784 C395.486007,199.784 396.451997,200.137996 397.1,200.846 C397.748003,201.554004 398.072,202.711992 398.072,204.32 C398.072,205.076004 397.961001,205.756997 397.739,206.363 C397.516999,206.969003 397.202002,207.481998 396.794,207.902 C396.385998,208.322002 395.894003,208.645999 395.318,208.874 C394.741997,209.102001 394.106004,209.216 393.41,209.216 C393.157999,209.216 392.933001,209.207 392.735,209.189 C392.536999,209.171 392.357001,209.147 392.195,209.117 C392.032999,209.087 391.874001,209.048 391.718,209 C391.561999,208.952 391.394001,208.892 391.214,208.82 L391.214,212.6 L389.828,212.6 L389.828,203.15 Z M393.968,201.098 C393.607998,201.098 393.269002,201.163999 392.951,201.296 C392.632999,201.428001 392.351001,201.601999 392.105,201.818 C391.858999,202.034001 391.658001,202.273999 391.502,202.538 C391.345999,202.802001 391.25,203.065999 391.214,203.33 L391.214,207.434 C391.478002,207.614001 391.774999,207.754999 392.105,207.857 C392.435002,207.959001 392.869998,208.01 393.41,208.01 C394.370005,208.01 395.137997,207.695003 395.714,207.065 C396.290003,206.434997 396.578,205.514006 396.578,204.302 C396.578,203.281995 396.377002,202.493003 395.975,201.935 C395.572998,201.376997 394.904005,201.098 393.968,201.098 Z M403.244,200.702 C403.760003,200.401998 404.341997,200.186001 404.99,200.054 C405.638004,199.921999 406.273997,199.856 406.898,199.856 C407.510003,199.856 408.010998,199.951999 408.401,200.144 C408.791002,200.336001 409.096999,200.584998 409.319,200.891 C409.541001,201.197002 409.691,201.544998 409.769,201.935 C409.847001,202.325002 409.886,202.717998 409.886,203.114 C409.886,203.570002 409.874,204.055997 409.85,204.572 C409.826,205.088003 409.808,205.603997 409.796,206.12 C409.796,206.720003 409.832,207.289997 409.904,207.83 L411.11,207.83 L411.11,209 L408.716,209 L408.554,207.65 L408.464,207.65 C408.392,207.758001 408.284001,207.895999 408.14,208.064 C407.996,208.232001 407.807002,208.396999 407.573,208.559 C407.338999,208.721001 407.054002,208.861999 406.718,208.982 C406.381999,209.102001 405.986003,209.162 405.53,209.162 C404.641996,209.162 403.940003,208.934002 403.424,208.478 C402.907998,208.021998 402.65,207.398004 402.65,206.606 C402.65,205.993997 402.784999,205.484002 403.055,205.076 C403.325002,204.667998 403.711998,204.356 404.216,204.14 C404.720003,203.923999 405.328997,203.798 406.043,203.762 C406.757004,203.726 407.557996,203.773999 408.446,203.906 C408.506001,203.353997 408.515001,202.895002 408.473,202.529 C408.431,202.162998 408.335001,201.872001 408.185,201.656 C408.035,201.439999 407.825002,201.287 407.555,201.197 C407.284999,201.107 406.952002,201.062 406.556,201.062 C406.015998,201.062 405.500003,201.136999 405.008,201.287 C404.515998,201.437001 404.078002,201.589999 403.694,201.746 L403.244,200.702 Z M405.89,207.956 C406.226002,207.956 406.537999,207.902001 406.826,207.794 C407.114002,207.685999 407.365999,207.548001 407.582,207.38 C407.798001,207.211999 407.978,207.029001 408.122,206.831 C408.266001,206.632999 408.374,206.444001 408.446,206.264 L408.446,205.004 C407.821997,204.895999 407.246003,204.842 406.718,204.842 C406.189998,204.842 405.734002,204.898999 405.35,205.013 C404.965998,205.127001 404.666001,205.303999 404.45,205.544 C404.233999,205.784001 404.126,206.095998 404.126,206.48 C404.126,206.876002 404.260999,207.220999 404.531,207.515 C404.801002,207.809001 405.253997,207.956 405.89,207.956 Z M423.932,209.45 C423.932,210.014003 423.824002,210.508998 423.608,210.935 C423.391999,211.361002 423.095002,211.711999 422.717,211.988 C422.338999,212.264001 421.898003,212.470999 421.394,212.609 C420.889998,212.747001 420.344003,212.816 419.756,212.816 C419.047997,212.816 418.430003,212.744001 417.902,212.6 C417.373998,212.455999 416.918002,212.270001 416.534,212.042 L417.218,210.764 C417.326001,210.86 417.467,210.953 417.641,211.043 C417.815001,211.133 418.015999,211.217 418.244,211.295 C418.472002,211.373 418.714999,211.436 418.973,211.484 C419.231002,211.532 419.485999,211.556 419.738,211.556 C420.266003,211.556 420.706999,211.508 421.061,211.412 C421.415002,211.316 421.699999,211.166001 421.916,210.962 C422.132002,210.757999 422.288,210.494002 422.384,210.17 C422.480001,209.845998 422.528,209.450002 422.528,208.982 L422.528,207.974 L422.456,207.974 C422.179999,208.370002 421.826003,208.675999 421.394,208.892 C420.961998,209.108001 420.404004,209.216 419.72,209.216 C418.351994,209.216 417.347004,208.835004 416.705,208.073 C416.062997,207.310996 415.742,206.126008 415.742,204.518 C415.742,202.981992 416.149996,201.821004 416.966,201.035 C417.782005,200.248996 418.993992,199.856 420.602,199.856 C421.346004,199.856 421.978998,199.906999 422.501,200.009 C423.023003,200.111001 423.499998,200.239999 423.932,200.396 L423.932,209.45 Z M419.918,208.01 C420.650004,208.01 421.225998,207.821002 421.646,207.443 C422.066003,207.064998 422.36,206.486004 422.528,205.706 L422.528,201.44 C421.999998,201.187999 421.262005,201.062 420.314,201.062 C419.353996,201.062 418.598003,201.343997 418.046,201.908 C417.493998,202.472003 417.218,203.335994 417.218,204.5 C417.218,205.016003 417.266,205.486998 417.362,205.913 C417.458001,206.339002 417.610999,206.707998 417.821,207.02 C418.031001,207.332002 418.306999,207.574999 418.649,207.749 C418.991002,207.923001 419.413998,208.01 419.918,208.01 Z M437.222001,207.866 C437.005999,208.058001 436.751002,208.237999 436.457001,208.406 C436.162999,208.574001 435.842002,208.717999 435.494001,208.838 C435.145999,208.958001 434.783002,209.051 434.405001,209.117 C434.026999,209.183 433.646002,209.216 433.262001,209.216 C432.541997,209.216 431.906003,209.105001 431.354001,208.883 C430.801998,208.660999 430.340002,208.343002 429.968001,207.929 C429.595999,207.514998 429.314001,207.020003 429.122001,206.444 C428.93,205.867997 428.834001,205.220004 428.834001,204.5 C428.834001,203.743996 428.938999,203.072003 429.149001,202.484 C429.359002,201.895997 429.661999,201.404002 430.058001,201.008 C430.454003,200.611998 430.933998,200.309001 431.498001,200.099 C432.062003,199.888999 432.691997,199.784 433.388001,199.784 C433.892003,199.784 434.389998,199.849999 434.882001,199.982 C435.374003,200.114001 435.808999,200.362998 436.187001,200.729 C436.565002,201.095002 436.856,201.598997 437.060001,202.241 C437.264002,202.883003 437.336001,203.713995 437.276001,204.734 L430.310001,204.734 C430.310001,205.814005 430.600998,206.620997 431.183001,207.155 C431.765003,207.689003 432.541996,207.956 433.514001,207.956 C433.838002,207.956 434.158999,207.917 434.477001,207.839 C434.795002,207.761 435.097999,207.668001 435.386001,207.56 C435.674002,207.451999 435.928999,207.332001 436.151001,207.2 C436.373002,207.067999 436.544,206.948001 436.664001,206.84 L437.222001,207.866 Z M433.424001,200.972 C433.027999,200.972 432.653002,201.014 432.299001,201.098 C431.944999,201.182 431.633002,201.322999 431.363001,201.521 C431.092999,201.719001 430.871001,201.976998 430.697001,202.295 C430.523,202.613002 430.412001,203.005998 430.364001,203.474 L435.962001,203.474 C435.902,202.681996 435.647003,202.067002 435.197001,201.629 C434.746998,201.190998 434.156004,200.972 433.424001,200.972 Z M445.076001,205.814 C445.064001,205.754 445.058001,205.688 445.058001,205.616 L445.058001,205.418 C445.058001,204.913997 445.151,204.482002 445.337001,204.122 C445.523002,203.761998 445.753999,203.441001 446.030001,203.159 C446.306002,202.876999 446.602999,202.622001 446.921001,202.394 C447.239002,202.165999 447.535999,201.923001 447.812001,201.665 C448.088002,201.406999 448.319,201.122002 448.505001,200.81 C448.691002,200.497998 448.784001,200.126002 448.784001,199.694 C448.784001,199.465999 448.730001,199.220001 448.622001,198.956 C448.514,198.691999 448.349002,198.446001 448.127001,198.218 C447.905,197.989999 447.617002,197.804001 447.263001,197.66 C446.908999,197.515999 446.486003,197.444 445.994001,197.444 C445.597999,197.444 445.241002,197.492 444.923001,197.588 C444.604999,197.684 444.317002,197.803999 444.059001,197.948 C443.800999,198.092001 443.567002,198.250999 443.357001,198.425 C443.147,198.599001 442.958001,198.763999 442.790001,198.92 L441.872001,198.092 C442.376003,197.455997 443.026997,196.979002 443.825001,196.661 C444.623005,196.342998 445.537995,196.184 446.570001,196.184 C447.194004,196.184 447.739998,196.285999 448.208001,196.49 C448.676003,196.694001 449.062999,196.954998 449.369001,197.273 C449.675002,197.591002 449.903,197.944998 450.053001,198.335 C450.203001,198.725002 450.278001,199.105998 450.278001,199.478 C450.278001,200.054003 450.179002,200.536998 449.981001,200.927 C449.783,201.317002 449.534002,201.664998 449.234001,201.971 C448.933999,202.277002 448.613002,202.552999 448.271001,202.799 C447.928999,203.045001 447.608002,203.308999 447.308001,203.591 C447.007999,203.873001 446.759002,204.187998 446.561001,204.536 C446.363,204.884002 446.264001,205.309997 446.264001,205.814 L445.076001,205.814 Z M444.716001,208.172 C444.716001,207.847998 444.809,207.593001 444.995001,207.407 C445.181002,207.220999 445.429999,207.128 445.742001,207.128 C446.066002,207.128 446.324,207.220999 446.516001,207.407 C446.708002,207.593001 446.804001,207.847998 446.804001,208.172 C446.804001,208.484002 446.708002,208.735999 446.516001,208.928 C446.324,209.120001 446.066002,209.216 445.742001,209.216 C445.429999,209.216 445.181002,209.120001 444.995001,208.928 C444.809,208.735999 444.716001,208.484002 444.716001,208.172 Z M455.828001,203.15 C455.828001,203.041999 455.825001,202.901001 455.819001,202.727 C455.813001,202.552999 455.804001,202.373001 455.792001,202.187 C455.780001,202.000999 455.765001,201.818001 455.747001,201.638 C455.729001,201.457999 455.708001,201.302001 455.684001,201.17 L454.478001,201.17 L454.478001,200 L456.872001,200 L457.052001,201.26 L457.142001,201.26 C457.466002,200.839998 457.876998,200.489001 458.375001,200.207 C458.873003,199.924999 459.481997,199.784 460.202001,199.784 C461.486007,199.784 462.451997,200.137996 463.100001,200.846 C463.748004,201.554004 464.072001,202.711992 464.072001,204.32 C464.072001,205.076004 463.961002,205.756997 463.739001,206.363 C463.517,206.969003 463.202003,207.481998 462.794001,207.902 C462.385999,208.322002 461.894004,208.645999 461.318001,208.874 C460.741998,209.102001 460.106004,209.216 459.410001,209.216 C459.157999,209.216 458.933002,209.207 458.735001,209.189 C458.537,209.171 458.357002,209.147 458.195001,209.117 C458.033,209.087 457.874001,209.048 457.718001,209 C457.562,208.952 457.394002,208.892 457.214001,208.82 L457.214001,212.6 L455.828001,212.6 L455.828001,203.15 Z M459.968001,201.098 C459.607999,201.098 459.269002,201.163999 458.951001,201.296 C458.632999,201.428001 458.351002,201.601999 458.105001,201.818 C457.858999,202.034001 457.658001,202.273999 457.502001,202.538 C457.346,202.802001 457.250001,203.065999 457.214001,203.33 L457.214001,207.434 C457.478002,207.614001 457.774999,207.754999 458.105001,207.857 C458.435002,207.959001 458.869998,208.01 459.410001,208.01 C460.370006,208.01 461.137998,207.695003 461.714001,207.065 C462.290004,206.434997 462.578001,205.514006 462.578001,204.302 C462.578001,203.281995 462.377003,202.493003 461.975001,201.935 C461.572999,201.376997 460.904005,201.098 459.968001,201.098 Z M469.586001,207.704 L472.412001,207.704 L472.412001,198.236 L469.532001,200.252 L468.830001,199.226 L472.790001,196.4 L473.798001,196.4 L473.798001,207.704 L476.570001,207.704 L476.570001,209 L469.586001,209 L469.586001,207.704 Z M481.724001,200.774 L490.076001,200.774 L490.076001,202.07 L481.724001,202.07 L481.724001,200.774 Z M481.724001,203.726 L490.076001,203.726 L490.076001,205.022 L481.724001,205.022 L481.724001,203.726 Z M499.136001,207.254 L499.334001,207.254 L502.160001,200 L503.726001,200 L499.928001,209 L498.344001,209 L494.474001,200 L496.130001,200 L499.136001,207.254 Z M509.186001,207.704 L512.012001,207.704 L512.012001,198.236 L509.132001,200.252 L508.430001,199.226 L512.390001,196.4 L513.398001,196.4 L513.398001,207.704 L516.170001,207.704 L516.170001,209 L509.186001,209 L509.186001,207.704 Z M520.640001,205.274 C520.640001,204.481996 520.861999,203.726004 521.306001,203.006 C521.750003,202.285996 522.367997,201.680002 523.160001,201.188 C522.872,200.755998 522.623002,200.324002 522.413001,199.892 C522.203,199.459998 522.098001,198.992003 522.098001,198.488 C522.098001,198.199999 522.146001,197.918001 522.242001,197.642 C522.338002,197.365999 522.491,197.120001 522.701001,196.904 C522.911002,196.687999 523.181,196.514001 523.511001,196.382 C523.841003,196.249999 524.239999,196.184 524.708001,196.184 C525.200004,196.184 525.614,196.246999 525.950001,196.373 C526.286003,196.499001 526.556,196.663999 526.760001,196.868 C526.964002,197.072001 527.111001,197.299999 527.201001,197.552 C527.291002,197.804001 527.336001,198.061999 527.336001,198.326 C527.336001,198.830003 527.141003,199.348997 526.751001,199.883 C526.360999,200.417003 525.746005,200.929998 524.906001,201.422 C525.098002,201.770002 525.323,202.126998 525.581001,202.493 C525.839002,202.859002 526.112,203.221998 526.400001,203.582 C526.688003,203.942002 526.982,204.298998 527.282001,204.653 C527.582003,205.007002 527.882,205.333999 528.182001,205.634 C528.314002,205.441999 528.431001,205.208001 528.533001,204.932 C528.635002,204.655999 528.719001,204.368001 528.785001,204.068 C528.851002,203.767999 528.899001,203.468002 528.929001,203.168 C528.959001,202.867998 528.974001,202.592001 528.974001,202.34 L530.252001,202.34 C530.216001,203.096004 530.096002,203.848996 529.892001,204.599 C529.688,205.349004 529.388003,205.981997 528.992001,206.498 C529.160002,206.702001 529.352,206.902999 529.568001,207.101 C529.784002,207.299001 530.042,207.493999 530.342001,207.686 L530.342001,209.216 C529.705998,208.903998 528.980005,208.346004 528.164001,207.542 C527.948,207.758001 527.729002,207.964999 527.507001,208.163 C527.285,208.361001 527.036003,208.537999 526.760001,208.694 C526.484,208.850001 526.169003,208.976 525.815001,209.072 C525.460999,209.168 525.050004,209.216 524.582001,209.216 C524.089999,209.216 523.610004,209.135001 523.142001,208.973 C522.673999,208.810999 522.254003,208.568002 521.882001,208.244 C521.509999,207.919998 521.210002,207.512002 520.982001,207.02 C520.754,206.527998 520.640001,205.946003 520.640001,205.274 Z M527.318001,206.642 C526.969999,206.293998 526.628003,205.916002 526.292001,205.508 C525.956,205.099998 525.635003,204.692002 525.329001,204.284 C525.023,203.875998 524.741002,203.483002 524.483001,203.105 C524.225,202.726998 524.006002,202.394001 523.826001,202.106 C523.177998,202.598002 522.725002,203.095997 522.467001,203.6 C522.209,204.104003 522.080001,204.643997 522.080001,205.22 C522.080001,205.688002 522.167,206.092998 522.341001,206.435 C522.515002,206.777002 522.734,207.061999 522.998001,207.29 C523.262003,207.518001 523.553,207.685999 523.871001,207.794 C524.189003,207.902001 524.498,207.956 524.798001,207.956 C525.398004,207.956 525.898999,207.821001 526.301001,207.551 C526.703003,207.280999 527.042,206.978002 527.318001,206.642 Z M523.502001,198.488 C523.502001,198.848002 523.577,199.204998 523.727001,199.559 C523.877002,199.913002 524.072,200.263998 524.312001,200.612 C524.948004,200.203998 525.389,199.832002 525.635001,199.496 C525.881002,199.159998 526.004001,198.866001 526.004001,198.614 C526.004001,198.229998 525.911002,197.918001 525.725001,197.678 C525.539,197.437999 525.218003,197.318 524.762001,197.318 C524.329999,197.318 524.012002,197.425999 523.808001,197.642 C523.604,197.858001 523.502001,198.139998 523.502001,198.488 Z M535.028001,203.15 C535.028001,203.041999 535.025001,202.901001 535.019001,202.727 C535.013001,202.552999 535.004001,202.373001 534.992001,202.187 C534.980001,202.000999 534.965001,201.818001 534.947001,201.638 C534.929001,201.457999 534.908001,201.302001 534.884001,201.17 L533.678001,201.17 L533.678001,200 L536.072001,200 L536.252001,201.26 L536.342001,201.26 C536.666003,200.839998 537.076999,200.489001 537.575001,200.207 C538.073004,199.924999 538.681998,199.784 539.402001,199.784 C540.686008,199.784 541.651998,200.137996 542.300001,200.846 C542.948005,201.554004 543.272001,202.711992 543.272001,204.32 C543.272001,205.076004 543.161002,205.756997 542.939001,206.363 C542.717,206.969003 542.402003,207.481998 541.994001,207.902 C541.585999,208.322002 541.094004,208.645999 540.518001,208.874 C539.941998,209.102001 539.306005,209.216 538.610001,209.216 C538.358,209.216 538.133002,209.207 537.935001,209.189 C537.737,209.171 537.557002,209.147 537.395001,209.117 C537.233,209.087 537.074002,209.048 536.918001,209 C536.762001,208.952 536.594002,208.892 536.414001,208.82 L536.414001,212.6 L535.028001,212.6 L535.028001,203.15 Z M539.168001,201.098 C538.807999,201.098 538.469003,201.163999 538.151001,201.296 C537.833,201.428001 537.551003,201.601999 537.305001,201.818 C537.059,202.034001 536.858002,202.273999 536.702001,202.538 C536.546001,202.802001 536.450001,203.065999 536.414001,203.33 L536.414001,207.434 C536.678003,207.614001 536.975,207.754999 537.305001,207.857 C537.635003,207.959001 538.069999,208.01 538.610001,208.01 C539.570006,208.01 540.337998,207.695003 540.914001,207.065 C541.490004,206.434997 541.778001,205.514006 541.778001,204.302 C541.778001,203.281995 541.577003,202.493003 541.175001,201.935 C540.772999,201.376997 540.104006,201.098 539.168001,201.098 Z M555.500001,199.586 C555.500001,200.690006 554.978007,201.919993 553.934001,203.276 C552.889996,204.632007 551.432011,206.107992 549.560001,207.704 L555.896001,207.704 L555.896001,209 L547.904001,209 L547.904001,207.704 C548.132003,207.487999 548.443999,207.206002 548.840001,206.858 C549.236003,206.509998 549.661999,206.123002 550.118001,205.697 C550.574004,205.270998 551.038999,204.812002 551.513001,204.32 C551.987004,203.827998 552.415999,203.324003 552.800001,202.808 C553.184003,202.291997 553.496,201.776003 553.736001,201.26 C553.976003,200.743997 554.096001,200.246002 554.096001,199.766 C554.096001,199.045996 553.907003,198.479002 553.529001,198.065 C553.150999,197.650998 552.584005,197.444 551.828001,197.444 C551.179998,197.444 550.634004,197.515999 550.190001,197.66 C549.745999,197.804001 549.344003,198.013999 548.984001,198.29 L548.372001,197.3 C548.912004,196.915998 549.484998,196.634001 550.091001,196.454 C550.697004,196.273999 551.359998,196.184 552.080001,196.184 C553.208007,196.184 554.059999,196.489997 554.636001,197.102 C555.212004,197.714003 555.500001,198.541995 555.500001,199.586 Z M560.924001,200.774 L569.276001,200.774 L569.276001,202.07 L560.924001,202.07 L560.924001,200.774 Z M560.924001,203.726 L569.276001,203.726 L569.276001,205.022 L560.924001,205.022 L560.924001,203.726 Z M578.336002,207.254 L578.534002,207.254 L581.360002,200 L582.926002,200 L579.128002,209 L577.544002,209 L573.674002,200 L575.330002,200 L578.336002,207.254 Z M595.100002,199.586 C595.100002,200.690006 594.578007,201.919993 593.534002,203.276 C592.489996,204.632007 591.032011,206.107992 589.160002,207.704 L595.496002,207.704 L595.496002,209 L587.504002,209 L587.504002,207.704 C587.732003,207.487999 588.044,207.206002 588.440002,206.858 C588.836004,206.509998 589.261999,206.123002 589.718002,205.697 C590.174004,205.270998 590.638999,204.812002 591.113002,204.32 C591.587004,203.827998 592.016,203.324003 592.400002,202.808 C592.784004,202.291997 593.096,201.776003 593.336002,201.26 C593.576003,200.743997 593.696002,200.246002 593.696002,199.766 C593.696002,199.045996 593.507004,198.479002 593.129002,198.065 C592.751,197.650998 592.184005,197.444 591.428002,197.444 C590.779998,197.444 590.234004,197.515999 589.790002,197.66 C589.345999,197.804001 588.944003,198.013999 588.584002,198.29 L587.972002,197.3 C588.512004,196.915998 589.084999,196.634001 589.691002,196.454 C590.297005,196.273999 590.959998,196.184 591.680002,196.184 C592.808007,196.184 593.659999,196.489997 594.236002,197.102 C594.812005,197.714003 595.100002,198.541995 595.100002,199.586 Z M608.066002,208.01 C608.066002,207.625998 608.174001,207.329001 608.390002,207.119 C608.606003,206.908999 608.894,206.804 609.254002,206.804 C609.638004,206.804 609.938001,206.908999 610.154002,207.119 C610.370003,207.329001 610.478002,207.625998 610.478002,208.01 C610.478002,208.358002 610.370003,208.645999 610.154002,208.874 C609.938001,209.102001 609.638004,209.216 609.254002,209.216 C608.894,209.216 608.606003,209.102001 608.390002,208.874 C608.174001,208.645999 608.066002,208.358002 608.066002,208.01 Z M603.494002,208.01 C603.494002,207.625998 603.602001,207.329001 603.818002,207.119 C604.034003,206.908999 604.322,206.804 604.682002,206.804 C605.066004,206.804 605.366001,206.908999 605.582002,207.119 C605.798003,207.329001 605.906002,207.625998 605.906002,208.01 C605.906002,208.358002 605.798003,208.645999 605.582002,208.874 C605.366001,209.102001 605.066004,209.216 604.682002,209.216 C604.322,209.216 604.034003,209.102001 603.818002,208.874 C603.602001,208.645999 603.494002,208.358002 603.494002,208.01 Z M598.958002,208.01 C598.958002,207.625998 599.066001,207.329001 599.282002,207.119 C599.498003,206.908999 599.786,206.804 600.146002,206.804 C600.530004,206.804 600.830001,206.908999 601.046002,207.119 C601.262003,207.329001 601.370002,207.625998 601.370002,208.01 C601.370002,208.358002 601.262003,208.645999 601.046002,208.874 C600.830001,209.102001 600.530004,209.216 600.146002,209.216 C599.786,209.216 599.498003,209.102001 599.282002,208.874 C599.066001,208.645999 598.958002,208.358002 598.958002,208.01 Z M631.856002,204.95 L629.246002,204.95 L628.544002,207.956 L627.302002,207.956 L628.004002,204.95 L626.240002,204.95 L626.492002,203.798 L628.274002,203.798 L628.832002,201.44 L627.140002,201.44 L627.392002,200.288 L629.102002,200.288 L629.786002,197.444 L631.028002,197.444 L630.344002,200.288 L632.954002,200.288 L633.638002,197.444 L634.880002,197.444 L634.196002,200.288 L635.942002,200.288 L635.654002,201.44 L633.926002,201.44 L633.368002,203.798 L635.042002,203.798 L634.754002,204.95 L633.098002,204.95 L632.396002,207.956 L631.154002,207.956 L631.856002,204.95 Z M629.516002,203.798 L632.126002,203.798 L632.684002,201.44 L630.074002,201.44 L629.516002,203.798 Z M638.972002,196.4 L641.780002,196.4 L641.780002,201.116 L641.870002,201.116 C642.242004,200.695998 642.674,200.369001 643.166002,200.135 C643.658005,199.900999 644.269998,199.784 645.002002,199.784 C645.578005,199.784 646.079,199.843999 646.505002,199.964 C646.931004,200.084001 647.279001,200.293998 647.549002,200.594 C647.819003,200.894002 648.020001,201.304997 648.152002,201.827 C648.284003,202.349003 648.350002,203.011996 648.350002,203.816 L648.350002,209 L646.946002,209 L646.946002,204.086 C646.946002,203.569997 646.916002,203.120002 646.856002,202.736 C646.796002,202.351998 646.679003,202.031001 646.505002,201.773 C646.331001,201.514999 646.094004,201.320001 645.794002,201.188 C645.494001,201.055999 645.110004,200.99 644.642002,200.99 C644.318,200.99 644.000004,201.046999 643.688002,201.161 C643.376,201.275001 643.091003,201.430999 642.833002,201.629 C642.575001,201.827001 642.353003,202.066999 642.167002,202.349 C641.981001,202.631001 641.852002,202.939998 641.780002,203.276 L641.780002,209 L640.394002,209 L640.394002,197.606 L638.972002,197.606 L638.972002,196.4 Z M654.044002,200.702 C654.560005,200.401998 655.141999,200.186001 655.790002,200.054 C656.438005,199.921999 657.073999,199.856 657.698002,199.856 C658.310005,199.856 658.811,199.951999 659.201002,200.144 C659.591004,200.336001 659.897001,200.584998 660.119002,200.891 C660.341003,201.197002 660.491002,201.544998 660.569002,201.935 C660.647003,202.325002 660.686002,202.717998 660.686002,203.114 C660.686002,203.570002 660.674002,204.055997 660.650002,204.572 C660.626002,205.088003 660.608002,205.603997 660.596002,206.12 C660.596002,206.720003 660.632002,207.289997 660.704002,207.83 L661.910002,207.83 L661.910002,209 L659.516002,209 L659.354002,207.65 L659.264002,207.65 C659.192002,207.758001 659.084003,207.895999 658.940002,208.064 C658.796001,208.232001 658.607003,208.396999 658.373002,208.559 C658.139001,208.721001 657.854004,208.861999 657.518002,208.982 C657.182,209.102001 656.786004,209.162 656.330002,209.162 C655.441998,209.162 654.740005,208.934002 654.224002,208.478 C653.708,208.021998 653.450002,207.398004 653.450002,206.606 C653.450002,205.993997 653.585001,205.484002 653.855002,205.076 C654.125003,204.667998 654.512,204.356 655.016002,204.14 C655.520005,203.923999 656.128999,203.798 656.843002,203.762 C657.557006,203.726 658.357998,203.773999 659.246002,203.906 C659.306002,203.353997 659.315002,202.895002 659.273002,202.529 C659.231002,202.162998 659.135003,201.872001 658.985002,201.656 C658.835001,201.439999 658.625003,201.287 658.355002,201.197 C658.085001,201.107 657.752004,201.062 657.356002,201.062 C656.815999,201.062 656.300005,201.136999 655.808002,201.287 C655.316,201.437001 654.878004,201.589999 654.494002,201.746 L654.044002,200.702 Z M656.690002,207.956 C657.026004,207.956 657.338001,207.902001 657.626002,207.794 C657.914004,207.685999 658.166001,207.548001 658.382002,207.38 C658.598003,207.211999 658.778001,207.029001 658.922002,206.831 C659.066003,206.632999 659.174002,206.444001 659.246002,206.264 L659.246002,205.004 C658.621999,204.895999 658.046005,204.842 657.518002,204.842 C656.99,204.842 656.534004,204.898999 656.150002,205.013 C655.766,205.127001 655.466003,205.303999 655.250002,205.544 C655.034001,205.784001 654.926002,206.095998 654.926002,206.48 C654.926002,206.876002 655.061001,207.220999 655.331002,207.515 C655.601003,207.809001 656.053999,207.956 656.690002,207.956 Z M673.184002,206.57 C673.184002,206.185998 673.034004,205.889001 672.734002,205.679 C672.434001,205.468999 672.062004,205.301001 671.618002,205.175 C671.174,205.048999 670.691005,204.932001 670.169002,204.824 C669.647,204.715999 669.164004,204.572001 668.720002,204.392 C668.276,204.211999 667.904004,203.969002 667.604002,203.663 C667.304001,203.356998 667.154002,202.928003 667.154002,202.376 C667.154002,201.919998 667.253001,201.530002 667.451002,201.206 C667.649003,200.881998 667.910001,200.615001 668.234002,200.405 C668.558004,200.194999 668.936,200.039001 669.368002,199.937 C669.800004,199.834999 670.25,199.784 670.718002,199.784 C671.558006,199.784 672.280999,199.888999 672.887002,200.099 C673.493005,200.309001 673.976,200.527999 674.336002,200.756 L673.760002,201.89 C673.364,201.673999 672.935005,201.467001 672.473002,201.269 C672.011,201.070999 671.432006,200.972 670.736002,200.972 C670.472001,200.972 670.211004,200.999 669.953002,201.053 C669.695001,201.107 669.461003,201.187999 669.251002,201.296 C669.041001,201.404001 668.873003,201.544999 668.747002,201.719 C668.621002,201.893001 668.558002,202.105999 668.558002,202.358 C668.558002,202.670002 668.708001,202.909999 669.008002,203.078 C669.308004,203.246001 669.68,203.386999 670.124002,203.501 C670.568004,203.615001 671.051,203.722999 671.573002,203.825 C672.095005,203.927001 672.578,204.073999 673.022002,204.266 C673.466004,204.458001 673.838001,204.715998 674.138002,205.04 C674.438004,205.364002 674.588002,205.801997 674.588002,206.354 C674.588002,207.182004 674.261006,207.865997 673.607002,208.406 C672.952999,208.946003 671.972009,209.216 670.664002,209.216 C670.268,209.216 669.878004,209.18 669.494002,209.108 C669.11,209.036 668.750004,208.940001 668.414002,208.82 C668.078001,208.699999 667.772004,208.565001 667.496002,208.415 C667.220001,208.264999 666.992003,208.112001 666.812002,207.956 L667.532002,206.786 C667.676003,206.930001 667.868001,207.076999 668.108002,207.227 C668.348003,207.377001 668.612001,207.511999 668.900002,207.632 C669.188004,207.752001 669.497001,207.848 669.827002,207.92 C670.157004,207.992 670.490001,208.028 670.826002,208.028 C671.150004,208.028 671.453001,208.001 671.735002,207.947 C672.017004,207.893 672.266001,207.809001 672.482002,207.695 C672.698003,207.580999 672.869002,207.431001 672.995002,207.245 C673.121003,207.058999 673.184002,206.834001 673.184002,206.57 Z M678.572002,196.4 L681.380002,196.4 L681.380002,201.116 L681.470002,201.116 C681.842004,200.695998 682.274,200.369001 682.766002,200.135 C683.258005,199.900999 683.869999,199.784 684.602002,199.784 C685.178005,199.784 685.679,199.843999 686.105002,199.964 C686.531004,200.084001 686.879001,200.293998 687.149002,200.594 C687.419004,200.894002 687.620002,201.304997 687.752002,201.827 C687.884003,202.349003 687.950002,203.011996 687.950002,203.816 L687.950002,209 L686.546002,209 L686.546002,204.086 C686.546002,203.569997 686.516003,203.120002 686.456002,202.736 C686.396002,202.351998 686.279003,202.031001 686.105002,201.773 C685.931001,201.514999 685.694004,201.320001 685.394002,201.188 C685.094001,201.055999 684.710005,200.99 684.242002,200.99 C683.918001,200.99 683.600004,201.046999 683.288002,201.161 C682.976001,201.275001 682.691004,201.430999 682.433002,201.629 C682.175001,201.827001 681.953003,202.066999 681.767002,202.349 C681.581001,202.631001 681.452003,202.939998 681.380002,203.276 L681.380002,209 L679.994002,209 L679.994002,197.606 L678.572002,197.606 L678.572002,196.4 Z" id="https://site.com:8080/path/page?p1=v1&amp;p2=v2#hash" fill="#000000" fill-rule="nonzero"></path>
            <text id="hostname" font-family="PTMono-Regular, PT Mono" font-size="16" font-weight="normal" fill="#8A704D">
                <tspan x="147" y="152">hostname</tspan>
            </text>
            <text id="port" font-family="PTMono-Regular, PT Mono" font-size="16" font-weight="normal" fill="#8A704D">
                <tspan x="261" y="152">port</tspan>
            </text>
            <text id="pathname" font-family="PTMono-Regular, PT Mono" font-size="16" font-weight="normal" fill="#8A704D">
                <tspan x="334" y="152">pathname</tspan>
            </text>
            <text id="search" font-family="PTMono-Regular, PT Mono" font-size="16" font-weight="normal" fill="#8A704D">
                <tspan x="496" y="152">search</tspan>
            </text>
            <text id="hash" font-family="PTMono-Regular, PT Mono" font-size="16" font-weight="normal" fill="#8A704D">
                <tspan x="637" y="152">hash</tspan>
            </text>
        </g>
    </g>
</svg>