<?xml version="1.0" encoding="UTF-8"?>
<svg width="500px" height="264px" viewBox="0 0 500 264" version="1.1" xmlns="http://www.w3.org/2000/svg" xmlns:xlink="http://www.w3.org/1999/xlink">
    <!-- Generator: sketchtool 61.2 (101010) - https://sketch.com -->
    <title>ifelse_task2.svg</title>
    <desc>Created with sketchtool.</desc>
    <g id="combined" stroke="none" stroke-width="1" fill="none" fill-rule="evenodd">
        <g id="ifelse_task2.svg">
            <path id="Path-1218-Copy" d="M425.5,133.5 L425.5,187.5 L433.5,187.5 L424,206.5 L414.5,187.5 L422.5,187.5 L422.5,136.5 L340.5,136.5 L340.5,133.5 L425.5,133.5 Z" fill="#EE6B47" fill-rule="nonzero"></path>
            <g id="Rectangle-1-+-Корень" transform="translate(213.000000, 4.000000)">
                <rect id="Rectangle-1" stroke="#E8C48E" stroke-width="2" fill="#FFF9EB" x="1" y="1" width="78" height="28" rx="14"></rect>
                <text id="Begin" font-family="Helvetica" font-size="14" font-weight="normal" fill="#8A704D">
                    <tspan x="21" y="18">Begin</tspan>
                </text>
            </g>
            <g id="Rectangle-1-+-Корень-Copy-2" transform="translate(8.000000, 206.000000)">
                <rect id="Rectangle-1" stroke="#E8C48E" stroke-width="2" fill="#FFF9EB" x="1" y="1" width="131" height="49" rx="24.5"></rect>
                <text id="You-don't-know?-“ECM" font-family="Helvetica" font-size="14" font-weight="normal" fill="#8A704D">
                    <tspan x="15.6030273" y="19">You don't know?</tspan>
                    <tspan x="21.7758789" y="36">“ECMAScript”!</tspan>
                </text>
            </g>
            <g id="Rectangle-1-+-Корень-Copy-3" transform="translate(354.000000, 206.000000)">
                <rect id="Rectangle-1" stroke="#E8C48E" stroke-width="2" fill="#FFF9EB" x="1" y="1" width="131" height="49" rx="24.5"></rect>
                <text id="Right!" font-family="Helvetica" font-size="14" font-weight="normal" fill="#8A704D">
                    <tspan x="48.2138672" y="27">Right!</tspan>
                </text>
            </g>
            <path id="Line" d="M255,34 L255,57.049 L263,57.0499687 L253.5,76.0499687 L244,57.0499687 L252,57.049 L252,34 L255,34 Z" fill="#EE6B47" fill-rule="nonzero"></path>
            <path id="Path-1218" d="M139.5,133.5 L139.5,136.5 L80.5,136.5 L80.5,187.5 L88.5,187.5 L79,206.5 L69.5,187.5 L77.5,187.5 L77.5,133.5 L139.5,133.5 Z" fill="#EE6B47" fill-rule="nonzero"></path>
            <rect id="Rectangle-356" fill="#FFFFFF" x="47" y="152" width="60" height="20"></rect>
            <g id="Rectangle-354-+-Каково-“официальное”" transform="translate(137.000000, 76.000000)">
                <path d="M2.1985673,59.5 L116.5,117.877127 L230.801433,59.5 L116.5,1.12287343 L2.1985673,59.5 Z" id="Rectangle-354" stroke="#E8C48E" stroke-width="2" fill="#FFF9EB"></path>
                <text id="What's-the-“official" font-family="Helvetica" font-size="14" font-weight="normal" fill="#8A704D">
                    <tspan x="82.6499023" y="42">What's the</tspan>
                    <tspan x="63.7587891" y="59">“official” name of</tspan>
                    <tspan x="78.9277344" y="76">JavaScript?</tspan>
                </text>
            </g>
            <text id="Other" font-family="Helvetica" font-size="14" font-weight="normal" fill="#8A704D">
                <tspan x="57" y="165">Other</tspan>
            </text>
            <rect id="Rectangle-356-Copy" fill="#FFFFFF" x="387" y="152" width="60" height="20"></rect>
            <text id="ECMAScript" font-family="Helvetica" font-size="14" font-weight="normal" fill="#8A704D">
                <tspan x="383" y="164">ECMAScript</tspan>
            </text>
        </g>
    </g>
</svg>