<?xml version="1.0" encoding="UTF-8"?>
<svg width="599px" height="493px" viewBox="0 0 599 493" version="1.1" xmlns="http://www.w3.org/2000/svg" xmlns:xlink="http://www.w3.org/1999/xlink">
    <!-- Generator: sketchtool 61.2 (101010) - https://sketch.com -->
    <title>ifelse_task.svg</title>
    <desc>Created with sketchtool.</desc>
    <g id="combined" stroke="none" stroke-width="1" fill="none" fill-rule="evenodd">
        <g id="ifelse_task.svg">
            <path id="Path-1218-Copy" d="M529.5,326.5 L529.5,419.5 L537.5,419.5 L528,438.5 L518.5,419.5 L526.5,419.5 L526.5,329.5 L444.5,329.5 L444.5,326.5 L529.5,326.5 Z" fill="#EE6B47" fill-rule="nonzero"></path>
            <path id="Path-1218-Copy" d="M372.5,131.5 L372.5,257.5 L380.5,257.5 L371,276.5 L361.5,257.5 L369.5,257.5 L369.5,134.5 L287.5,134.5 L287.5,131.5 L372.5,131.5 Z" fill="#EE6B47" fill-rule="nonzero"></path>
            <g id="Rectangle-1-+-Корень" transform="translate(180.000000, 4.000000)">
                <rect id="Rectangle-1" stroke="#E8C48E" stroke-width="2" fill="#FFF9EB" x="1" y="1" width="78" height="28" rx="14"></rect>
                <text id="Begin" font-family="Helvetica" font-size="14" font-weight="normal" fill="#8A704D">
                    <tspan x="21" y="19">Begin</tspan>
                </text>
            </g>
            <g id="Rectangle-1-+-Корень-Copy-2" transform="translate(0.000000, 243.000000)">
                <rect id="Rectangle-1" stroke="#E8C48E" stroke-width="2" fill="#FFF9EB" x="1" y="1" width="131" height="49" rx="24.5"></rect>
                <text id="Canceled" font-family="Helvetica" font-size="14" font-weight="normal" fill="#8A704D">
                    <tspan x="36.9243164" y="28">Canceled</tspan>
                </text>
            </g>
            <g id="Rectangle-1-+-Корень-Copy-5" transform="translate(150.000000, 438.000000)">
                <rect id="Rectangle-1" stroke="#E8C48E" stroke-width="2" fill="#FFF9EB" x="1" y="1" width="131" height="49" rx="24.5"></rect>
                <text id="Canceled" font-family="Helvetica" font-size="14" font-weight="normal" fill="#8A704D">
                    <tspan x="36.9243164" y="28">Canceled</tspan>
                </text>
            </g>
            <g id="Rectangle-1-+-Корень-Copy-6" transform="translate(458.000000, 438.000000)">
                <rect id="Rectangle-1" stroke="#E8C48E" stroke-width="2" fill="#FFF9EB" x="1" y="1" width="131" height="49" rx="24.5"></rect>
                <text id="Welcome!" font-family="Helvetica" font-size="14" font-weight="normal" fill="#8A704D">
                    <tspan x="36.0058594" y="28">Welcome!</tspan>
                </text>
            </g>
            <g id="Rectangle-1-+-Корень-Copy-4" transform="translate(154.000000, 243.000000)">
                <rect id="Rectangle-1" stroke="#E8C48E" stroke-width="2" fill="#FFF9EB" x="1" y="1" width="131" height="49" rx="24.5"></rect>
                <text id="I-don't-know-you" font-family="Helvetica" font-size="14" font-weight="normal" fill="#8A704D">
                    <tspan x="16.1328125" y="27">I don't know you</tspan>
                </text>
            </g>
            <g id="Rectangle-1-+-Корень-Copy-7" transform="translate(296.000000, 438.000000)">
                <rect id="Rectangle-1" stroke="#E8C48E" stroke-width="2" fill="#FFF9EB" x="1" y="1" width="147" height="49" rx="24.5"></rect>
                <text id="Wrong-password" font-family="Helvetica" font-size="14" font-weight="normal" fill="#8A704D">
                    <tspan x="20.6025391" y="28">Wrong password</tspan>
                </text>
            </g>
            <path id="Line" d="M222,35 L222,58.049 L230,58.0499687 L220.5,77.0499687 L211,58.0499687 L219,58.049 L219,35 L222,35 Z" fill="#EE6B47" fill-rule="nonzero"></path>
            <path id="Path-1218" d="M131.691299,131.366765 L131.691299,134.366765 L72.389,134.366 L72.389,219.547 L80.3890337,219.547739 L70.8890337,238.547739 L61.3890337,219.547739 L69.389,219.547 L69.3890337,131.366765 L131.691299,131.366765 Z" fill="#EE6B47" fill-rule="nonzero"></path>
            <path id="Path-1218-Copy-2" d="M281.691299,326.366765 L281.691299,329.366765 L222.384,329.366 L222.065,419.505 L230.06529,419.533673 L220.498234,438.499997 L211.065408,419.466558 L219.065,419.494 L219.389043,327.861467 L219.394323,326.366765 L281.691299,326.366765 Z" fill="#EE6B47" fill-rule="nonzero"></path>
            <g id="Rectangle-354-+-Каково-“официальное”" transform="translate(127.000000, 81.000000)">
                <path d="M2.05929887,52 L93.6102814,102.856071 L185.161264,52 L93.6102814,1.14392927 L2.05929887,52 Z" id="Rectangle-354" stroke="#E8C48E" stroke-width="2" fill="#FFF9EB"></path>
                <text id="Who's-there?" font-family="Helvetica" font-size="14" font-weight="normal" fill="#8A704D">
                    <tspan x="52.4775391" y="54">Who's there?</tspan>
                </text>
            </g>
            <g id="Rectangle-354-+-Каково-“официальное”-Copy" transform="translate(277.000000, 276.000000)">
                <path d="M2.05929887,52 L93.6102814,102.856071 L185.161264,52 L93.6102814,1.14392927 L2.05929887,52 Z" id="Rectangle-354" stroke="#E8C48E" stroke-width="2" fill="#FFF9EB"></path>
                <text id="Password?" font-family="Helvetica" font-size="14" font-weight="normal" fill="#8A704D">
                    <tspan x="58.8725586" y="54">Password?</tspan>
                </text>
            </g>
            <g id="Rectangle-356-+-Отмена" transform="translate(39.000000, 191.000000)">
                <rect id="Rectangle-356" fill="#FFFFFF" x="0" y="2" width="60" height="20"></rect>
                <text id="Cancel" font-family="Helvetica" font-size="14" font-weight="normal" fill="#8A704D">
                    <tspan x="7.5" y="14">Cancel</tspan>
                </text>
            </g>
            <g id="Rectangle-356-+-Отмена-Copy" transform="translate(189.000000, 384.000000)">
                <rect id="Rectangle-356" fill="#FFFFFF" x="0" y="2" width="60" height="20"></rect>
                <text id="Cancel" font-family="Helvetica" font-size="14" font-weight="normal" fill="#8A704D">
                    <tspan x="7.5" y="14">Cancel</tspan>
                </text>
            </g>
            <g id="Rectangle-356-Copy-+-“Админ”" transform="translate(341.000000, 191.000000)">
                <rect id="Rectangle-356-Copy" fill="#FFFFFF" x="0" y="2" width="60" height="20"></rect>
                <text id="Admin" font-family="Helvetica" font-size="14" font-weight="normal" fill="#8A704D">
                    <tspan x="9.15869141" y="14">Admin</tspan>
                </text>
            </g>
            <g id="Rectangle-356-Copy-+-“Админ”-Copy" transform="translate(493.000000, 384.000000)">
                <rect id="Rectangle-356-Copy" fill="#FFFFFF" x="7" y="2" width="60" height="20"></rect>
                <text id="TheMaster" font-family="Helvetica" font-size="14" font-weight="normal" fill="#8A704D">
                    <tspan x="1.54492188" y="14">TheMaster</tspan>
                </text>
            </g>
            <path id="Line" d="M223,182 L223,224.56 L231,224.560081 L221.5,243.560081 L212,224.560081 L220,224.56 L220,182 L223,182 Z" fill="#EE6B47" fill-rule="nonzero"></path>
            <path id="Line-Copy-2" d="M373,377 L373,419.56 L381,419.560081 L371.5,438.560081 L362,419.560081 L370,419.56 L370,377 L373,377 Z" fill="#EE6B47" fill-rule="nonzero"></path>
            <g id="Rectangle-356-Copy-2-+-“Админ”-Copy" transform="translate(191.000000, 191.000000)">
                <rect id="Rectangle-356-Copy-2" fill="#FFFFFF" x="0" y="2" width="60" height="20"></rect>
                <text id="Other" font-family="Helvetica" font-size="14" font-weight="normal" fill="#8A704D">
                    <tspan x="11.4931641" y="14">Other</tspan>
                </text>
            </g>
            <g id="Rectangle-356-Copy-2-+-“Админ”-Copy-Copy" transform="translate(341.000000, 384.000000)">
                <rect id="Rectangle-356-Copy-2" fill="#FFFFFF" x="0" y="2" width="60" height="20"></rect>
                <text id="Other" font-family="Helvetica" font-size="14" font-weight="normal" fill="#8A704D">
                    <tspan x="11.4931641" y="14">Other</tspan>
                </text>
            </g>
        </g>
    </g>
</svg>