<?xml version="1.0" encoding="UTF-8"?>
<svg width="670px" height="602px" viewBox="0 0 670 602" version="1.1" xmlns="http://www.w3.org/2000/svg" xmlns:xlink="http://www.w3.org/1999/xlink">
    <!-- Generator: sketchtool 61.2 (101010) - https://sketch.com -->
    <title>metric-all.svg</title>
    <desc>Created with sketchtool.</desc>
    <defs>
        <linearGradient x1="50%" y1="0%" x2="50%" y2="100%" id="linearGradient-1">
            <stop stop-color="#FFFFFF" offset="0%"></stop>
            <stop stop-color="#F1F1F1" offset="100%"></stop>
        </linearGradient>
        <linearGradient x1="50%" y1="0%" x2="50%" y2="100%" id="linearGradient-2">
            <stop stop-color="#FFFFFF" offset="0%"></stop>
            <stop stop-color="#F1F1F1" offset="100%"></stop>
        </linearGradient>
    </defs>
    <g id="dom" stroke="none" stroke-width="1" fill="none" fill-rule="evenodd">
        <g id="metric-all.svg">
            <text id="Introduction" font-family="OpenSans-Bold, Open Sans" font-size="16" font-weight="bold" fill="#5A4739">
                <tspan x="160" y="94">Introduction</tspan>
                <tspan x="260.726562" y="94" font-family="Helvetica" font-size="14" font-weight="normal"></tspan>
                <tspan x="160" y="122" font-family="Helvetica" font-size="14" font-weight="normal">This Ecma Standard is based on several </tspan>
                <tspan x="160" y="139" font-family="Helvetica" font-size="14" font-weight="normal">originating technologies, the most well known </tspan>
                <tspan x="160" y="156" font-family="Helvetica" font-size="14" font-weight="normal">being JavaScript (Netscape) and JScript </tspan>
                <tspan x="160" y="173" font-family="Helvetica" font-size="14" font-weight="normal">(Microsoft). The language was invented by </tspan>
                <tspan x="160" y="190" font-family="Helvetica" font-size="14" font-weight="normal">Brendan Eich at Netscape and first appeared </tspan>
                <tspan x="160" y="207" font-family="Helvetica" font-size="14" font-weight="normal">in that company’s Navigator 2.0 browser. It </tspan>
                <tspan x="160" y="224" font-family="Helvetica" font-size="14" font-weight="normal">has appeared in all subsequent browsers </tspan>
                <tspan x="160" y="241" font-family="Helvetica" font-size="14" font-weight="normal">from Netscape and in all browsers from </tspan>
                <tspan x="160" y="258" font-family="Helvetica" font-size="14" font-weight="normal">Microsoft starting with Internet Explorer 3.0.</tspan>
                <tspan x="160" y="275" font-family="Helvetica" font-size="14" font-weight="normal">The development of this Standard started in </tspan>
                <tspan x="160" y="292" font-family="Helvetica" font-size="14" font-weight="normal">November 1996. The first edition of this Ecma </tspan>
                <tspan x="160" y="309" font-family="Helvetica" font-size="14" font-weight="normal">Standard was adopted by the Ecma General </tspan>
                <tspan x="160" y="326" font-family="Helvetica" font-size="14" font-weight="normal">Assembly of June 1997.</tspan>
                <tspan x="160" y="343" font-family="Helvetica" font-size="14" font-weight="normal">That Ecma Standard was submitted to ISO/</tspan>
                <tspan x="160" y="360" font-family="Helvetica" font-size="14" font-weight="normal">IEC JTC 1 for adoption under the fast-track </tspan>
                <tspan x="160" y="377" font-family="Helvetica" font-size="14" font-weight="normal">procedure, and approved as international </tspan>
                <tspan x="160" y="394" font-family="Helvetica" font-size="14" font-weight="normal">standard ISO/IEC 16262, in April 1998. The </tspan>
                <tspan x="160" y="411" font-family="Helvetica" font-size="14" font-weight="normal">Ecma General Assembly of June 1998 </tspan>
                <tspan x="160" y="428" font-family="Helvetica" font-size="14" font-weight="normal">approved the second edition of ECMA-262 to </tspan>
                <tspan x="160" y="445" font-family="Helvetica" font-size="14" font-weight="normal">keep it fully aligned with ISO/IEC 16262. </tspan>
                <tspan x="160" y="462" font-family="Helvetica" font-size="14" font-weight="normal">Changes between the first and the second </tspan>
                <tspan x="160" y="479" font-family="Helvetica" font-size="14" font-weight="normal">edition are editorial in nature.</tspan>
            </text>
            <path d="M491,162 L491,452 L117,452 L117,162 L491,162 Z M466,187 L142,187 L142,427 L466,427 L466,187 Z" id="Rectangle-1" fill-opacity="0.88" fill="#E8C48F"></path>
            <rect id="Rectangle-2" stroke-opacity="0.8" stroke="#E8C48F" stroke-width="2" x="141" y="62" width="326" height="500"></rect>
            <text id="scrollHeight" transform="translate(592.000000, 310.000000) rotate(-90.000000) translate(-592.000000, -310.000000) " font-family="PTMono-Regular, PT Mono" font-size="14" font-weight="normal" fill="#EE6B47">
                <tspan x="541.6" y="314.5">scrollHeight</tspan>
            </text>
            <text id="offsetHeight" transform="translate(552.000000, 310.000000) rotate(-90.000000) translate(-552.000000, -310.000000) " font-family="PTMono-Regular, PT Mono" font-size="14" font-weight="normal" fill="#EE6B47">
                <tspan x="501.6" y="314.5">offsetHeight</tspan>
            </text>
            <text id="scrollTop" transform="translate(618.000000, 125.000000) rotate(-90.000000) translate(-618.000000, -125.000000) " font-family="PTMono-Regular, PT Mono" font-size="14" font-weight="normal" fill="#EE6B47">
                <tspan x="580.2" y="129.5">scrollTop</tspan>
            </text>
            <line x1="466.5" y1="62" x2="640" y2="62" id="Line-27" stroke="#EE6B47" stroke-width="2" stroke-linecap="square" stroke-dasharray="3,6"></line>
            <line x1="492.5" y1="163" x2="584.639999" y2="163" id="Line-28" stroke="#EE6B47" stroke-width="2" stroke-linecap="square" stroke-dasharray="3,6"></line>
            <line x1="492.5" y1="451" x2="584.639999" y2="451" id="Line-29" stroke="#EE6B47" stroke-width="2" stroke-linecap="square" stroke-dasharray="3,6"></line>
            <line x1="467.5" y1="189" x2="640" y2="189" id="Line-33" stroke="#EE6B47" stroke-width="2" stroke-linecap="square" stroke-dasharray="3,6"></line>
            <line x1="467.5" y1="427" x2="539.639999" y2="427" id="Line-32" stroke="#EE6B47" stroke-width="2" stroke-linecap="square" stroke-dasharray="3,6"></line>
            <line x1="466.5" y1="561" x2="614.639999" y2="561" id="Line-26" stroke="#EE6B47" stroke-width="2" stroke-linecap="square" stroke-dasharray="3,6"></line>
            <path id="Line-25" d="M605,64.5 L612,78.5 L606,78.5 L606,544.5 L612,544.5 L605,558.5 L598,544.5 L604,544.5 L604,78.5 L598,78.5 L605,64.5 Z" fill="#EE6B47" fill-rule="nonzero"></path>
            <path id="Line-30" d="M565,164.5 L572,178.5 L566,178.5 L566,433.5 L572,433.5 L565,447.5 L558,433.5 L564,433.5 L564,178.5 L558,178.5 L565,164.5 Z" fill="#EE6B47" fill-rule="nonzero"></path>
            <text id="clientHeight" transform="translate(510.000000, 304.000000) rotate(-90.000000) translate(-510.000000, -304.000000) " font-family="PTMono-Regular, PT Mono" font-size="14" font-weight="normal" fill="#EE6B47">
                <tspan x="459.6" y="308.5">clientHeight</tspan>
            </text>
            <path id="Line-34" d="M523,191.5 L530,205.5 L524,205.5 L524,411.5 L530,411.5 L523,425.5 L516,411.5 L522,411.5 L522,205.5 L516,205.5 L523,191.5 Z" fill="#EE6B47" fill-rule="nonzero"></path>
            <text id="offsetTop" transform="translate(104.000000, 83.000000) rotate(-90.000000) translate(-104.000000, -83.000000) " font-family="PTMono-Regular, PT Mono" font-size="14" font-weight="normal" fill="#EE6B47">
                <tspan x="66.2" y="87.5">offsetTop</tspan>
            </text>
            <text id="clientLeft" transform="translate(130.500000, 237.000000) rotate(-90.000000) translate(-130.500000, -237.000000) " font-family="PTMono-Regular, PT Mono" font-size="14" font-weight="normal" fill="#C74A6C">
                <tspan x="88.5" y="241.5">clientLeft</tspan>
            </text>
            <path id="Line-36" d="M117,4.5 L124,18.5 L118,18.5 L118,146.5 L124,146.5 L117,160.5 L110,146.5 L116,146.5 L116,18.5 L110,18.5 L117,4.5 Z" fill="#EE6B47" fill-rule="nonzero"></path>
            <path id="Line-31" d="M631,64.5 L638,78.5 L632,78.5 L632,174.999 L638,175 L631,189 L624,175 L630,174.999 L630,78.5 L624,78.5 L631,64.5 Z" fill="#EE6B47" fill-rule="nonzero"></path>
            <rect id="Rectangle-14" fill-opacity="0.88" fill="#FFFFFF" x="154" y="73" width="312" height="89"></rect>
            <rect id="Rectangle-15" fill-opacity="0.88" fill="#FFFFFF" x="154" y="451" width="312" height="93"></rect>
            <path id="Line-39" d="M430.999985,479.09 L444.999985,486.09 L430.999985,493.09 L430.999,487.09 L159.639,487.09 L159.639999,493.09 L145.639999,486.09 L159.639999,479.09 L159.639,485.09 L430.999,485.09 L430.999985,479.09 Z" fill="#EE6B47" fill-rule="nonzero"></path>
            <line x1="445.639999" y1="510" x2="445.639999" y2="426" id="Line-42" stroke="#EE6B47" stroke-width="2" stroke-linecap="square" stroke-dasharray="3,6"></line>
            <line x1="141.639999" y1="510" x2="141.639999" y2="426" id="Line-43" stroke="#EE6B47" stroke-width="2" stroke-linecap="square" stroke-dasharray="3,6"></line>
            <text id="clientWidth" font-family="PTMono-Regular, PT Mono" font-size="14" font-weight="normal" fill="#EE6B47">
                <tspan x="261.3" y="478">clientWidth</tspan>
            </text>
            <path id="Line-41" d="M100,156.09 L114,163.09 L100,170.09 L100,164.09 L18.639,164.09 L18.6399994,170.09 L4.63999939,163.09 L18.6399994,156.09 L18.639,162.09 L100,162.09 L100,156.09 Z" fill="#EE6B47" fill-rule="nonzero"></path>
            <text id="clientTop" font-family="PTMono-Regular, PT Mono" font-size="14" font-weight="normal" fill="#C74A6C">
                <tspan x="147.7" y="178">clientTop</tspan>
            </text>
            <text id="offsetLeft" font-family="PTMono-Regular, PT Mono" font-size="14" font-weight="normal" fill="#EE6B47">
                <tspan x="17.5" y="154">offsetLeft</tspan>
            </text>
            <path id="Line-40" d="M474.999985,522.09 L488.999985,529.09 L474.999985,536.09 L474.999,530.09 L134.639,530.09 L134.639999,536.09 L120.639999,529.09 L134.639999,522.09 L134.639,528.09 L474.999,528.09 L474.999985,522.09 Z" fill="#EE6B47" fill-rule="nonzero"></path>
            <line x1="490.639999" y1="551" x2="490.639999" y2="447" id="Line-45" stroke="#EE6B47" stroke-width="2" stroke-linecap="square" stroke-dasharray="3,6"></line>
            <line x1="116.639999" y1="551" x2="116.639999" y2="447" id="Line-44" stroke="#EE6B47" stroke-width="2" stroke-linecap="square" stroke-dasharray="3,6"></line>
            <text id="offsetWidth" font-family="PTMono-Regular, PT Mono" font-size="14" font-weight="normal" fill="#EE6B47">
                <tspan x="258.3" y="516">offsetWidth</tspan>
            </text>
            <rect id="Rectangle-233" stroke="#8A704D" stroke-width="2" x="1" y="1" width="668" height="600"></rect>
            <g id="Scrollbar" transform="translate(450.000000, 187.000000)">
                <rect id="Rectangle-19" stroke="#E9E9E9" fill="#F3F2F2" x="0.5" y="0.5" width="15" height="239" rx="3"></rect>
                <g id="Rectangle-18-+-Triangle-1">
                    <rect id="Rectangle-18" stroke="#CFCFCF" fill="url(#linearGradient-1)" x="0.5" y="0.5" width="15" height="19" rx="3"></rect>
                    <polygon id="Triangle-1" fill="#92979F" points="8 7 11.2 13 4.8 13"></polygon>
                </g>
                <g id="Rectangle-18-+-Triangle-2" transform="translate(8.000000, 230.000000) scale(1, -1) translate(-8.000000, -230.000000) translate(0.000000, 220.000000)">
                    <rect id="Rectangle-18" stroke="#CFCFCF" fill="url(#linearGradient-1)" x="0.5" y="0.5" width="15" height="19" rx="3"></rect>
                    <polygon id="Triangle-1" fill="#92979F" points="8 7 11.2 13 4.8 13"></polygon>
                </g>
                <g id="Rectangle-18-+-Triangle-3-+-Group" transform="translate(0.000000, 50.000000)">
                    <g id="Rectangle-18-+-Triangle-3" transform="translate(8.000000, 25.500000) scale(1, -1) translate(-8.000000, -25.500000) " fill="url(#linearGradient-2)" stroke="#CFCFCF">
                        <rect id="Rectangle-18" x="0.5" y="0.5" width="15" height="50" rx="3"></rect>
                    </g>
                    <g id="Group" transform="translate(4.000000, 20.000000)" fill="#D8D8D8" stroke="#979797">
                        <rect id="Rectangle-22" x="0.5" y="0.5" width="7" height="1"></rect>
                        <rect id="Rectangle-23" x="0.5" y="3.5" width="7" height="1"></rect>
                        <rect id="Rectangle-24" x="0.5" y="6.5" width="7" height="1"></rect>
                        <rect id="Rectangle-25" x="0.5" y="9.5" width="7" height="1"></rect>
                    </g>
                </g>
            </g>
            <g id="Group" transform="translate(115.000000, 162.000000)">
                <g id="Line-4-+-Line-5" transform="translate(23.000000, 19.000000)" stroke="#C74A6C" stroke-linecap="square" stroke-width="2">
                    <line x1="2.5" y1="0.5" x2="0" y2="6" id="Line-4" transform="translate(1.500000, 3.000000) scale(1, -1) translate(-1.500000, -3.000000) "></line>
                    <line x1="5.5" y1="0.5" x2="3" y2="6" id="Line-5" transform="translate(4.500000, 3.000000) scale(-1, -1) translate(-4.500000, -3.000000) "></line>
                </g>
                <g id="Line-4-+-Line-6" transform="translate(26.000000, 4.000000) scale(1, -1) translate(-26.000000, -4.000000) translate(23.000000, 1.000000)" stroke="#C74A6C" stroke-linecap="square" stroke-width="2">
                    <line x1="2.5" y1="0.5" x2="0" y2="6" id="Line-4" transform="translate(1.500000, 3.000000) scale(1, -1) translate(-1.500000, -3.000000) "></line>
                    <line x1="5.5" y1="0.5" x2="3" y2="6" id="Line-5" transform="translate(4.500000, 3.000000) scale(-1, -1) translate(-4.500000, -3.000000) "></line>
                </g>
                <line x1="14" y1="13.5" x2="14" y2="38.5" id="Line-49" stroke="#C74A6C" stroke-width="2" stroke-linecap="round" stroke-linejoin="bevel" transform="translate(14.000000, 26.000000) rotate(-270.000000) translate(-14.000000, -26.000000) "></line>
                <line x1="26" y1="25.5" x2="26" y2="0.5" id="Line-50" stroke="#C74A6C" stroke-width="2" stroke-linecap="round" stroke-linejoin="bevel"></line>
                <path d="M20.0034365,22.1758306 L20.9138029,22.5896335 L26.4138029,25.0896335 L27.3241694,25.5034365 L26.7348306,26.7988306 L26.8241694,26.9965635 L26.5988306,27.0978306 L26.4965635,27.3241694 L26.2988306,27.2338306 L25.9138029,27.4103665 L20.4138029,29.9103665 L19.5034365,30.3241694 L18.6758306,28.5034365 L19.5861971,28.0896335 L23.8828306,26.1358306 L20.0861971,24.4103665 L19.1758306,23.9965635 L20.0034365,22.1758306 Z" id="Line-4" fill="#C74A6C" fill-rule="nonzero"></path>
                <path d="M7.99656353,22.1758306 L8.82416942,23.9965635 L7.91380294,24.4103665 L4.11583058,26.1358306 L8.41380294,28.0896335 L9.32416942,28.5034365 L8.49656353,30.3241694 L7.58619706,29.9103665 L2.08619706,27.4103665 L1.69983058,27.2338306 L1.50343647,27.3241694 L1.40083058,27.0988306 L1.17583058,26.9965635 L1.26483058,26.7988306 L0.675830578,25.5034365 L1.58619706,25.0896335 L7.08619706,22.5896335 L7.99656353,22.1758306 Z" id="Line-4" fill="#C74A6C" fill-rule="nonzero"></path>
            </g>
        </g>
    </g>
</svg>