<?xml version="1.0" encoding="UTF-8"?>
<svg width="668px" height="192px" viewBox="0 0 668 192" version="1.1" xmlns="http://www.w3.org/2000/svg" xmlns:xlink="http://www.w3.org/1999/xlink">
    <!-- Generator: sketchtool 61.2 (101010) - https://sketch.com -->
    <title>cookie-third-party.svg</title>
    <desc>Created with sketchtool.</desc>
    <g id="data-storage" stroke="none" stroke-width="1" fill="none" fill-rule="evenodd">
        <g id="cookie-third-party.svg">
            <rect id="Rectangle-1" stroke="#E8C48E" stroke-width="2" fill="#FFF9EB" x="38" y="48" width="282" height="99"></rect>
            <text id="&lt;img-src=&quot;https://ad" font-family="Helvetica" font-size="14" font-weight="normal" fill="#8A704D">
                <tspan x="42" y="69">&lt;img src="https://ads.com/banner.png"&gt;</tspan>
            </text>
            <text id="site.com" font-family="OpenSans-Bold, Open Sans" font-size="14" font-weight="bold" fill="#8A704D">
                <tspan x="149" y="36">site.com</tspan>
            </text>
            <rect id="Rectangle-1-Copy" stroke="#E8C48E" stroke-width="2" fill="#FFF9EB" x="505" y="48" width="140" height="99"></rect>
            <text id="ads.com" font-family="OpenSans-Bold, Open Sans" font-size="14" font-weight="bold" fill="#8A704D">
                <tspan x="543" y="36">ads.com</tspan>
            </text>
            <path id="Line" d="M321.643432,64.3747042 L322.634364,64.5090679 L485.761,86.628 L486.567496,80.682384 L499.5,89.5 L484.686405,94.5554332 L485.492,88.61 L322.365636,66.4909321 L321.374704,66.3565684 L321.643432,64.3747042 Z" fill="#EE6B47" fill-rule="nonzero"></path>
            <path id="Line-Copy" d="M500.365913,105.881879 L500.618121,107.865913 L499.626104,107.992017 L336.514,128.726 L337.270966,134.678665 L322.5,129.5 L335.505512,120.790427 L336.261,126.742 L499.373896,106.007983 L500.365913,105.881879 Z" fill="#EE6B47" fill-rule="nonzero"></path>
            <text id="GET-/banner.png" transform="translate(416.568389, 65.381858) rotate(7.000000) translate(-416.568389, -65.381858) " font-family="Helvetica" font-size="14" font-weight="normal" fill="#8A704D">
                <tspan x="361.068389" y="69.8818576">GET /banner.png</tspan>
            </text>
            <text id="Set-Cookie:-id=123" transform="translate(413.468881, 128.991204) rotate(-7.000000) translate(-413.468881, -128.991204) " font-family="Helvetica" font-size="14" font-weight="normal" fill="#8A704D">
                <tspan x="352.968881" y="133.491204">Set-Cookie: id=123</tspan>
            </text>
        </g>
    </g>
</svg>