<?xml version="1.0" encoding="UTF-8"?>
<svg width="640px" height="225px" viewBox="0 0 640 225" version="1.1" xmlns="http://www.w3.org/2000/svg" xmlns:xlink="http://www.w3.org/1999/xlink">
    <!-- Generator: sketchtool 61.2 (101010) - https://sketch.com -->
    <title>fibonacci-recursion-tree.svg</title>
    <desc>Created with sketchtool.</desc>
    <g id="combined" stroke="none" stroke-width="1" fill="none" fill-rule="evenodd">
        <g id="fibonacci-recursion-tree.svg">
            <text id="fib(5)" font-family="PTMono-Regular, PT Mono" font-size="14" font-weight="normal">
                <tspan x="355" y="12" fill="#000000">fib</tspan>
                <tspan x="380.2" y="12" fill="#999999">(</tspan>
                <tspan x="388.6" y="12" fill="#000000">5</tspan>
                <tspan x="397" y="12" fill="#999999">)</tspan>
            </text>
            <path id="Line-Copy-4" d="M412.835533,18.2516076 L413.791963,18.5435703 L495.402,43.455 L497.153724,37.7175137 L508.5,48.5 L493.066245,51.1075294 L494.818,45.368 L413.208037,20.4564297 L412.251608,20.1644669 L412.835533,18.2516076 Z" fill="#EE6B47" fill-rule="nonzero"></path>
            <path id="Line-Copy-18" d="M343.643062,18.2404482 L344.259552,20.1430623 L343.308245,20.4513071 L267.126,45.135 L268.976012,50.843723 L253.5,48.5 L264.660586,37.5254238 L266.51,43.233 L342.691755,18.5486929 L343.643062,18.2404482 Z" fill="#EE6B47" fill-rule="nonzero"></path>
            <path id="Line-Copy-13" d="M153.362013,123.092534 L154.134739,123.727274 L171.316,137.84 L175.125008,133.204564 L181.5,147.5 L166.238656,144.022732 L170.047,139.386 L152.865261,125.272726 L152.092534,124.637987 L153.362013,123.092534 Z" fill="#EE6B47" fill-rule="nonzero"></path>
            <path id="Line-Copy-14" d="M495.362013,123.092534 L496.134739,123.727274 L513.316,137.84 L517.125008,133.204564 L523.5,147.5 L508.238656,144.022732 L512.047,139.386 L494.865261,125.272726 L494.092534,124.637987 L495.362013,123.092534 Z" fill="#EE6B47" fill-rule="nonzero"></path>
            <path id="Line-Copy-17" d="M458.022445,123.085965 L459.414035,124.522445 L458.695795,125.21824 L444.75,138.727 L448.92593,143.036549 L434,147.75 L439.184797,132.981185 L443.359,137.291 L457.304205,123.78176 L458.022445,123.085965 Z" fill="#EE6B47" fill-rule="nonzero"></path>
            <path id="Line-Copy-20" d="M280.022445,123.085965 L281.414035,124.522445 L280.695795,125.21824 L266.75,138.727 L270.92593,143.036549 L256,147.75 L261.184797,132.981185 L265.359,137.291 L279.304205,123.78176 L280.022445,123.085965 Z" fill="#EE6B47" fill-rule="nonzero"></path>
            <path id="Line-Copy-21" d="M110.022445,123.085965 L111.414035,124.522445 L110.695795,125.21824 L96.75,138.727 L100.92593,143.036549 L86,147.75 L91.1847966,132.981185 L95.359,137.291 L109.304205,123.78176 L110.022445,123.085965 Z" fill="#EE6B47" fill-rule="nonzero"></path>
            <path id="Line-Copy-15" d="M320.362013,123.092534 L321.134739,123.727274 L338.316,137.84 L342.125008,133.204564 L348.5,147.5 L333.238656,144.022732 L337.047,139.386 L319.865261,125.272726 L319.092534,124.637987 L320.362013,123.092534 Z" fill="#EE6B47" fill-rule="nonzero"></path>
            <path id="Line-Copy-16" d="M90.3620132,174.092534 L91.1347394,174.727274 L108.316,188.84 L112.125008,184.204564 L118.5,198.5 L103.238656,195.022732 L107.047,190.386 L89.8652606,176.272726 L89.0925343,175.637987 L90.3620132,174.092534 Z" fill="#EE6B47" fill-rule="nonzero"></path>
            <path id="Line-Copy-22" d="M58.6379868,174.092534 L59.9074657,175.637987 L59.1347394,176.272726 L41.952,190.386 L45.7613435,195.022732 L30.5,198.5 L36.8749916,184.204564 L40.683,188.84 L57.8652606,174.727274 L58.6379868,174.092534 Z" fill="#EE6B47" fill-rule="nonzero"></path>
            <path id="Line-Copy-8" d="M242.030304,74.1660638 L242.93212,74.598184 L278.306,91.548 L280.899417,86.1376053 L290.5,98.5 L274.849734,98.7630297 L277.442,93.352 L242.06788,76.401816 L241.166064,75.9696958 L242.030304,74.1660638 Z" fill="#EE6B47" fill-rule="nonzero"></path>
            <path id="Line-Copy-9" d="M546.030304,74.1660638 L546.93212,74.598184 L582.306,91.548 L584.899417,86.1376053 L594.5,98.5 L578.849734,98.7630297 L581.442,93.352 L546.06788,76.401816 L545.166064,75.9696958 L546.030304,74.1660638 Z" fill="#EE6B47" fill-rule="nonzero"></path>
            <path id="Line-Copy-7" d="M529.403523,74.1445778 L530.355422,75.9035227 L529.47595,76.3794725 L499.288,92.716 L502.144263,97.99301 L486.5,98.5 L495.480966,85.6803957 L498.336,90.957 L528.52405,74.6205275 L529.403523,74.1445778 Z" fill="#EE6B47" fill-rule="nonzero"></path>
            <path id="Line-Copy-19" d="M195.403523,74.1445778 L196.355422,75.9035227 L195.47595,76.3794725 L165.288,92.716 L168.144263,97.99301 L152.5,98.5 L161.480966,85.6803957 L164.336,90.957 L194.52405,74.6205275 L195.403523,74.1445778 Z" fill="#EE6B47" fill-rule="nonzero"></path>
            <text id="fib(4)" font-family="PTMono-Regular, PT Mono" font-size="14" font-weight="normal" fill="#000000">
                <tspan x="198" y="68">fib(4)</tspan>
            </text>
            <text id="fib(3)" font-family="PTMono-Regular, PT Mono" font-size="14" font-weight="normal" fill="#000000">
                <tspan x="518" y="68">fib(3)</tspan>
            </text>
            <text id="fib(3)" font-family="PTMono-Regular, PT Mono" font-size="14" font-weight="normal" fill="#000000">
                <tspan x="111" y="117">fib(3)</tspan>
            </text>
            <text id="fib(2)" font-family="PTMono-Regular, PT Mono" font-size="14" font-weight="normal" fill="#000000">
                <tspan x="277" y="117">fib(2)</tspan>
            </text>
            <text id="fib(0)" font-family="PTMono-Regular, PT Mono" font-size="14" font-weight="normal" fill="#000000">
                <tspan x="328" y="164">fib(0)</tspan>
            </text>
            <text id="fib(1)" font-family="PTMono-Regular, PT Mono" font-size="14" font-weight="normal" fill="#000000">
                <tspan x="239" y="164">fib(1)</tspan>
            </text>
            <text id="fib(1)" font-family="PTMono-Regular, PT Mono" font-size="14" font-weight="normal" fill="#000000">
                <tspan x="164" y="164">fib(1)</tspan>
            </text>
            <text id="fib(2)-copy-2" font-family="PTMono-Regular, PT Mono" font-size="14" font-weight="normal" fill="#000000">
                <tspan x="456" y="117">fib(2)</tspan>
            </text>
            <text id="fib(0)-copy-2" font-family="PTMono-Regular, PT Mono" font-size="14" font-weight="normal" fill="#000000">
                <tspan x="514" y="164">fib(0)</tspan>
            </text>
            <text id="fib(1)-copy-2" font-family="PTMono-Regular, PT Mono" font-size="14" font-weight="normal" fill="#000000">
                <tspan x="409" y="164">fib(1)</tspan>
            </text>
            <text id="fib(1)-copy-3" font-family="PTMono-Regular, PT Mono" font-size="14" font-weight="normal" fill="#000000">
                <tspan x="580" y="117">fib(1)</tspan>
            </text>
            <text id="fib(2)-copy" font-family="PTMono-Regular, PT Mono" font-size="14" font-weight="normal" fill="#000000">
                <tspan x="54" y="164">fib(2)</tspan>
            </text>
            <text id="fib(0)-copy" font-family="PTMono-Regular, PT Mono" font-size="14" font-weight="normal" fill="#000000">
                <tspan x="102" y="218">fib(0)</tspan>
            </text>
            <text id="fib(1)-copy" font-family="PTMono-Regular, PT Mono" font-size="14" font-weight="normal" fill="#000000">
                <tspan x="5" y="219">fib(1)</tspan>
            </text>
        </g>
    </g>
</svg>