<?xml version="1.0" encoding="UTF-8"?>
<svg width="274px" height="143px" viewBox="0 0 274 143" version="1.1" xmlns="http://www.w3.org/2000/svg" xmlns:xlink="http://www.w3.org/1999/xlink">
    <!-- Generator: sketchtool 61.2 (101010) - https://sketch.com -->
    <title>mouseover-to-child.svg</title>
    <desc>Created with sketchtool.</desc>
    <defs>
        <polygon id="path-1" points="7.84066209 8.51607073 12.4865478 6.86493774 1.13686838e-13 0 3.64025044 13.7764227 6.3662792 9.66798489 9.63003598 13.8454031 11.1044189 12.6934889"></polygon>
        <filter x="-52.6%" y="-43.3%" width="212.1%" height="203.6%" filterUnits="objectBoundingBox" id="filter-2">
            <feMorphology radius="1" operator="dilate" in="SourceAlpha" result="shadowSpreadOuter1"></feMorphology>
            <feOffset dx="0" dy="1" in="shadowSpreadOuter1" result="shadowOffsetOuter1"></feOffset>
            <feGaussianBlur stdDeviation="1.5" in="shadowOffsetOuter1" result="shadowBlurOuter1"></feGaussianBlur>
            <feComposite in="shadowBlurOuter1" in2="SourceAlpha" operator="out" result="shadowBlurOuter1"></feComposite>
            <feColorMatrix values="0 0 0 0 0   0 0 0 0 0   0 0 0 0 0  0 0 0 0.2 0" type="matrix" in="shadowBlurOuter1"></feColorMatrix>
        </filter>
    </defs>
    <g id="dom" stroke="none" stroke-width="1" fill="none" fill-rule="evenodd">
        <g id="mouseover-to-child.svg">
            <polygon id="Rectangle-210" fill="#FFDE99" points="200.469229 59 216 121 94 121 109.530771 59"></polygon>
            <path d="M223.628007,32 L86.3719935,32 L66.1674421,98 L243.832558,98 L223.628007,32 Z" id="Rectangle-209" stroke="#99C0C3" stroke-width="18"></path>
            <path d="M125.435495,52 C125.207373,53.2950674 124.979905,54.5894586 124.751784,55.8838497 C109.344097,55.1585443 93.695869,56.2321315 79,59.1046114 C80.8824936,61.6822351 82.7649871,64.2595207 84.6474807,66.8368063 C97.0640944,64.409992 110.285343,63.5031066 123.303309,64.1158122 C123.075188,65.4108796 122.847066,66.7052707 122.619598,68 C130.180947,65.667188 149,62.9708779 149,62.9708779 C149,62.9708779 134.836197,55.1314933 125.435495,52 Z" id="Fill-54" fill="#EE6B47" transform="translate(114.000000, 60.000000) rotate(33.000000) translate(-114.000000, -60.000000) "></path>
            <g id="Cursor-/-Default-White" transform="translate(145.000000, 82.000000)">
                <g id="Rectangle-237">
                    <use fill="black" fill-opacity="1" filter="url(#filter-2)" xlink:href="#path-1"></use>
                    <path stroke-opacity="0.8" stroke="#000000" stroke-width="1" d="M8.6617598,8.75489325 L11.806255,12.7796636 L9.54386134,14.5472392 L6.39936616,10.5224689 L3.44128728,14.9806328 L-0.781456351,-1.00021852 L13.7031213,6.96320943 L8.6617598,8.75489325 Z" fill="#FFFFFF" fill-rule="evenodd"></path>
                </g>
            </g>
            <text id="mouseout" font-family="PTMono-Bold, PT Mono" font-size="14" font-weight="bold" fill="#5A4739">
                <tspan x="80" y="37">mouseout</tspan>
            </text>
            <text id="mouseover" font-family="PTMono-Bold, PT Mono" font-size="14" font-weight="bold" fill="#5A4739">
                <tspan x="145" y="77">mouseover</tspan>
            </text>
            <text id="#parent" font-family="PTMono-Bold, PT Mono" font-size="14" font-weight="bold" fill="#99C0C3">
                <tspan x="14" y="21">#parent</tspan>
            </text>
            <text id="#child" font-family="PTMono-Bold, PT Mono" font-size="14" font-weight="bold" fill="#ECC678">
                <tspan x="14" y="126">#child</tspan>
            </text>
        </g>
    </g>
</svg>