<?xml version="1.0" encoding="UTF-8"?>
<svg width="640px" height="89px" viewBox="0 0 640 89" version="1.1" xmlns="http://www.w3.org/2000/svg" xmlns:xlink="http://www.w3.org/1999/xlink">
    <!-- Generator: sketchtool 61.2 (101010) - https://sketch.com -->
    <title>range-example-p-2-b-3.svg</title>
    <desc>Created with sketchtool.</desc>
    <defs>
        <rect id="path-1" x="71" y="35" width="367" height="21"></rect>
        <mask id="mask-2" maskContentUnits="userSpaceOnUse" maskUnits="objectBoundingBox" x="0" y="0" width="367" height="21" fill="white">
            <use xlink:href="#path-1"></use>
        </mask>
    </defs>
    <g id="misc" stroke="none" stroke-width="1" fill="none" fill-rule="evenodd">
        <g id="range-example-p-2-b-3.svg">
            <use id="Rectangle" stroke="#0000FF" mask="url(#mask-2)" stroke-width="2" fill-opacity="0.1" fill="#0000FF" stroke-dasharray="5,2" xlink:href="#path-1"></use>
            <polyline id="Path-Copy" stroke="#EE6B47" stroke-width="2" transform="translate(99.000000, 62.500000) scale(1, -1) translate(-99.000000, -62.500000) " points="48 68 48 57 48 57 150 57 150 68"></polyline>
            <polyline id="Path-Copy-2" stroke="#EE6B47" stroke-width="2" transform="translate(231.000000, 62.500000) scale(1, -1) translate(-231.000000, -62.500000) " points="154 68 154 57 154 57 308 57 308 68"></polyline>
            <text id="0" font-family="PTMono-Regular, PT Mono" font-size="14" font-weight="normal" fill="#000000">
                <tspan x="93" y="84">0</tspan>
            </text>
            <text id="1" font-family="PTMono-Regular, PT Mono" font-size="14" font-weight="normal" fill="#000000">
                <tspan x="226" y="84">1</tspan>
            </text>
            <text id="2" font-family="PTMono-Regular, PT Mono" font-size="14" font-weight="normal" fill="#000000">
                <tspan x="334" y="84">2</tspan>
            </text>
            <text id="3" font-family="PTMono-Regular, PT Mono" font-size="14" font-weight="normal" fill="#000000">
                <tspan x="428" y="84">3</tspan>
            </text>
            <polyline id="Path-Copy-3" stroke="#EE6B47" stroke-width="2" transform="translate(338.500000, 62.500000) scale(1, -1) translate(-338.500000, -62.500000) " points="312 68 312 57 312 57 365 57 365 68"></polyline>
            <polyline id="Path-Copy-4" stroke="#EE6B47" stroke-width="2" transform="translate(433.000000, 62.500000) scale(1, -1) translate(-433.000000, -62.500000) " points="369 68 369 57 369 57 497 57 497 68"></polyline>
            <g id="&lt;p&gt;Example..." transform="translate(13.000000, 35.000000)" fill="#8A704D" fill-rule="nonzero">
                <path d="M0.81,10.51 L0.81,9.988 L9.288,4.822 L9.972,5.938 L2.826,10.168 L9.99,14.326 L9.306,15.406 L0.81,10.51 Z M13.528,10.15 C13.528,10.0419995 13.525,9.90100087 13.519,9.727 C13.513,9.55299913 13.5040001,9.37300093 13.492,9.187 C13.4799999,9.00099907 13.4650001,8.8180009 13.447,8.638 C13.4289999,8.4579991 13.4080001,8.30200066 13.384,8.17 L12.178,8.17 L12.178,7 L14.572,7 L14.752,8.26 L14.842,8.26 C15.1660016,7.8399979 15.5769975,7.48900141 16.075,7.207 C16.5730025,6.92499859 17.1819964,6.784 17.902,6.784 C19.1860064,6.784 20.1519968,7.13799646 20.8,7.846 C21.4480032,8.55400354 21.772,9.71199196 21.772,11.32 C21.772,12.0760038 21.6610011,12.756997 21.439,13.363 C21.2169989,13.969003 20.902002,14.4819979 20.494,14.902 C20.085998,15.3220021 19.5940029,15.6459989 19.018,15.874 C18.4419971,16.1020011 17.8060035,16.216 17.11,16.216 C16.8579987,16.216 16.633001,16.2070001 16.435,16.189 C16.236999,16.1709999 16.0570008,16.1470001 15.895,16.117 C15.7329992,16.0869998 15.5740008,16.0480002 15.418,16 C15.2619992,15.9519998 15.0940009,15.8920004 14.914,15.82 L14.914,19.6 L13.528,19.6 L13.528,10.15 Z M17.668,8.098 C17.3079982,8.098 16.9690016,8.16399934 16.651,8.296 C16.3329984,8.42800066 16.0510012,8.60199892 15.805,8.818 C15.5589988,9.03400108 15.3580008,9.27399868 15.202,9.538 C15.0459992,9.80200132 14.9500002,10.0659987 14.914,10.33 L14.914,14.434 C15.1780013,14.6140009 15.4749983,14.7549995 15.805,14.857 C16.1350016,14.9590005 16.5699973,15.01 17.11,15.01 C18.0700048,15.01 18.8379971,14.6950031 19.414,14.065 C19.9900029,13.4349968 20.278,12.5140061 20.278,11.302 C20.278,10.2819949 20.077002,9.49300279 19.675,8.935 C19.272998,8.37699721 18.6040047,8.098 17.668,8.098 Z M25.094,15.406 L24.41,14.326 L31.574,10.168 L24.428,5.938 L25.112,4.822 L33.59,9.988 L33.59,10.51 L25.094,15.406 Z M37.326,3.4 L44.724,3.4 L44.724,4.732 L38.82,4.732 L38.82,8.854 L44.274,8.854 L44.274,10.186 L38.82,10.186 L38.82,14.668 L44.814,14.668 L44.814,16 L37.326,16 L37.326,3.4 Z M51.754,11.392 L48.28,7 L50.08,7 L52.672,10.384 L55.336,7 L56.956,7 L53.482,11.32 L57.172,16 L55.444,16 L52.582,12.31 L49.666,16 L48.028,16 L51.754,11.392 Z M60.944,7.702 C61.4600026,7.4019985 62.0419968,7.18600066 62.69,7.054 C63.3380032,6.92199934 63.9739969,6.856 64.598,6.856 C65.2100031,6.856 65.7109981,6.95199904 66.101,7.144 C66.4910019,7.33600096 66.7969989,7.58499847 67.019,7.891 C67.2410011,8.19700153 67.3909996,8.54499805 67.469,8.935 C67.5470004,9.32500195 67.586,9.71799802 67.586,10.114 C67.586,10.5700023 67.5740001,11.0559974 67.55,11.572 C67.5259999,12.0880026 67.5080001,12.6039974 67.496,13.12 C67.496,13.720003 67.5319996,14.2899973 67.604,14.83 L68.81,14.83 L68.81,16 L66.416,16 L66.254,14.65 L66.164,14.65 C66.0919996,14.7580005 65.9840007,14.8959992 65.84,15.064 C65.6959993,15.2320008 65.5070012,15.3969992 65.273,15.559 C65.0389988,15.7210008 64.7540017,15.8619994 64.418,15.982 C64.0819983,16.1020006 63.6860023,16.162 63.23,16.162 C62.3419956,16.162 61.6400026,15.9340023 61.124,15.478 C60.6079974,15.0219977 60.35,14.398004 60.35,13.606 C60.35,12.9939969 60.4849986,12.484002 60.755,12.076 C61.0250013,11.667998 61.4119975,11.356 61.916,11.14 C62.4200025,10.9239989 63.0289964,10.7980002 63.743,10.762 C64.4570036,10.7259998 65.2579956,10.7739993 66.146,10.906 C66.2060003,10.3539972 66.2150002,9.89500183 66.173,9.529 C66.1309998,9.16299817 66.0350007,8.87200108 65.885,8.656 C65.7349992,8.43999892 65.5250013,8.28700045 65.255,8.197 C64.9849986,8.10699955 64.652002,8.062 64.256,8.062 C63.7159973,8.062 63.2000025,8.13699925 62.708,8.287 C62.2159975,8.43700075 61.7780019,8.58999922 61.394,8.746 L60.944,7.702 Z M63.59,14.956 C63.9260017,14.956 64.2379986,14.9020005 64.526,14.794 C64.8140014,14.6859995 65.0659989,14.5480008 65.282,14.38 C65.4980011,14.2119992 65.6779993,14.029001 65.822,13.831 C65.9660007,13.632999 66.0739996,13.4440009 66.146,13.264 L66.146,12.004 C65.5219969,11.8959995 64.9460026,11.842 64.418,11.842 C63.8899974,11.842 63.4340019,11.8989994 63.05,12.013 C62.6659981,12.1270006 62.3660011,12.3039988 62.15,12.544 C61.9339989,12.7840012 61.826,13.0959981 61.826,13.48 C61.826,13.876002 61.9609987,14.2209985 62.231,14.515 C62.5010014,14.8090015 62.9539968,14.956 63.59,14.956 Z M75.516,16 L75.516,10.006 C75.516,9.75399874 75.5070001,9.51100117 75.489,9.277 C75.4709999,9.04299883 75.4290003,8.83300093 75.363,8.647 C75.2969997,8.46099907 75.2010006,8.31400054 75.075,8.206 C74.9489994,8.09799946 74.784001,8.044 74.58,8.044 C74.171998,8.044 73.8270014,8.21199832 73.545,8.548 C73.2629986,8.88400168 73.0500007,9.30399748 72.906,9.808 L72.906,16 L71.538,16 L71.538,7 L72.474,7 L72.744,8.098 L72.816,8.098 C72.9360006,7.9179991 73.0529994,7.74700081 73.167,7.585 C73.2810006,7.42299919 73.4129992,7.2820006 73.563,7.162 C73.7130007,7.0419994 73.889999,6.94900033 74.094,6.883 C74.298001,6.81699967 74.5559984,6.784 74.868,6.784 C75.0480009,6.784 75.233999,6.81099973 75.426,6.865 C75.618001,6.91900027 75.7949992,7.00299943 75.957,7.117 C76.1190008,7.23100057 76.2599994,7.38399904 76.38,7.576 C76.5000006,7.76800096 76.5779998,8.00199862 76.614,8.278 C76.8900014,7.80999766 77.1989983,7.44400132 77.541,7.18 C77.8830017,6.91599868 78.353997,6.784 78.954,6.784 C79.350002,6.784 79.6709988,6.84999934 79.917,6.982 C80.1630012,7.11400066 80.3549993,7.30299877 80.493,7.549 C80.6310007,7.79500123 80.7269997,8.08899829 80.781,8.431 C80.8350003,8.77300171 80.862,9.1539979 80.862,9.574 L80.862,16 L79.494,16 L79.494,9.88 C79.494,9.62799874 79.4820001,9.39100111 79.458,9.169 C79.4339999,8.94699889 79.3890003,8.75200084 79.323,8.584 C79.2569997,8.41599916 79.1670006,8.284 79.053,8.188 C78.9389994,8.09199952 78.786001,8.044 78.594,8.044 C78.1739979,8.044 77.8200014,8.21199832 77.532,8.548 C77.2439986,8.88400168 77.0280007,9.36399688 76.884,9.988 L76.884,16 L75.516,16 Z M84.328,10.15 C84.328,10.0419995 84.325,9.90100087 84.319,9.727 C84.313,9.55299913 84.3040001,9.37300093 84.292,9.187 C84.2799999,9.00099907 84.2650001,8.8180009 84.247,8.638 C84.2289999,8.4579991 84.2080001,8.30200066 84.184,8.17 L82.978,8.17 L82.978,7 L85.372,7 L85.552,8.26 L85.642,8.26 C85.9660016,7.8399979 86.3769975,7.48900141 86.875,7.207 C87.3730025,6.92499859 87.9819964,6.784 88.702,6.784 C89.9860064,6.784 90.9519968,7.13799646 91.6,7.846 C92.2480032,8.55400354 92.572,9.71199196 92.572,11.32 C92.572,12.0760038 92.4610011,12.756997 92.239,13.363 C92.0169989,13.969003 91.702002,14.4819979 91.294,14.902 C90.885998,15.3220021 90.3940029,15.6459989 89.818,15.874 C89.2419971,16.1020011 88.6060035,16.216 87.91,16.216 C87.6579987,16.216 87.433001,16.2070001 87.235,16.189 C87.036999,16.1709999 86.8570008,16.1470001 86.695,16.117 C86.5329992,16.0869998 86.3740008,16.0480002 86.218,16 C86.0619992,15.9519998 85.8940009,15.8920004 85.714,15.82 L85.714,19.6 L84.328,19.6 L84.328,10.15 Z M88.468,8.098 C88.1079982,8.098 87.7690016,8.16399934 87.451,8.296 C87.1329984,8.42800066 86.8510012,8.60199892 86.605,8.818 C86.3589988,9.03400108 86.1580008,9.27399868 86.002,9.538 C85.8459992,9.80200132 85.7500002,10.0659987 85.714,10.33 L85.714,14.434 C85.9780013,14.6140009 86.2749983,14.7549995 86.605,14.857 C86.9350016,14.9590005 87.3699973,15.01 87.91,15.01 C88.8700048,15.01 89.6379971,14.6950031 90.214,14.065 C90.7900029,13.4349968 91.078,12.5140061 91.078,11.302 C91.078,10.2819949 90.877002,9.49300279 90.475,8.935 C90.072998,8.37699721 89.4040047,8.098 88.468,8.098 Z M96.542,3.4 L99.53,3.4 L99.53,12.976 C99.53,13.7080037 99.6529988,14.2239985 99.899,14.524 C100.145001,14.8240015 100.507998,14.974 100.988,14.974 C101.324002,14.974 101.644998,14.9140006 101.951,14.794 C102.257002,14.6739994 102.595998,14.4700014 102.968,14.182 L103.616,15.172 C103.423999,15.3400008 103.214001,15.4899993 102.986,15.622 C102.757999,15.7540007 102.524001,15.8649995 102.284,15.955 C102.043999,16.0450004 101.804001,16.1139998 101.564,16.162 C101.323999,16.2100002 101.102001,16.234 100.898,16.234 C100.453998,16.234 100.058002,16.1770006 99.71,16.063 C99.3619983,15.9489994 99.0710012,15.7660013 98.837,15.514 C98.6029988,15.2619987 98.4260006,14.9290021 98.306,14.515 C98.1859994,14.1009979 98.126,13.5880031 98.126,12.976 L98.126,4.606 L96.542,4.606 L96.542,3.4 Z M115.722,14.866 C115.505999,15.058001 115.251001,15.2379992 114.957,15.406 C114.662999,15.5740008 114.342002,15.7179994 113.994,15.838 C113.645998,15.9580006 113.283002,16.0509997 112.905,16.117 C112.526998,16.1830003 112.146002,16.216 111.762,16.216 C111.041996,16.216 110.406003,16.1050011 109.854,15.883 C109.301997,15.6609989 108.840002,15.3430021 108.468,14.929 C108.095998,14.5149979 107.814001,14.0200029 107.622,13.444 C107.429999,12.8679971 107.334,12.2200036 107.334,11.5 C107.334,10.7439962 107.438999,10.0720029 107.649,9.484 C107.859001,8.89599706 108.161998,8.40400198 108.558,8.008 C108.954002,7.61199802 109.433997,7.30900105 109.998,7.099 C110.562003,6.88899895 111.191997,6.784 111.888,6.784 C112.392003,6.784 112.889998,6.84999934 113.382,6.982 C113.874002,7.11400066 114.308998,7.36299817 114.687,7.729 C115.065002,8.09500183 115.355999,8.59899679 115.56,9.241 C115.764001,9.88300321 115.836,10.7139949 115.776,11.734 L108.81,11.734 C108.81,12.8140054 109.100997,13.6209973 109.683,14.155 C110.265003,14.6890027 111.041995,14.956 112.014,14.956 C112.338002,14.956 112.658998,14.9170004 112.977,14.839 C113.295002,14.7609996 113.597999,14.6680005 113.886,14.56 C114.174001,14.4519995 114.428999,14.3320007 114.651,14.2 C114.873001,14.0679993 115.043999,13.9480005 115.164,13.84 L115.722,14.866 Z M111.924,7.972 C111.527998,7.972 111.153002,8.01399958 110.799,8.098 C110.444998,8.18200042 110.133001,8.32299901 109.863,8.521 C109.592999,8.71900099 109.371001,8.97699841 109.197,9.295 C109.022999,9.61300159 108.912,10.0059977 108.864,10.474 L114.462,10.474 C114.402,9.68199604 114.147002,9.06700219 113.697,8.629 C113.246998,8.19099781 112.656004,7.972 111.924,7.972 Z M122.194,7.936 C122.194,7.55199808 122.301999,7.25500105 122.518,7.045 C122.734001,6.83499895 123.021998,6.73 123.382,6.73 C123.766002,6.73 124.065999,6.83499895 124.282,7.045 C124.498001,7.25500105 124.606,7.55199808 124.606,7.936 C124.606,8.28400174 124.498001,8.57199886 124.282,8.8 C124.065999,9.02800114 123.766002,9.142 123.382,9.142 C123.021998,9.142 122.734001,9.02800114 122.518,8.8 C122.301999,8.57199886 122.194,8.28400174 122.194,7.936 Z M122.194,15.01 C122.194,14.6259981 122.301999,14.329001 122.518,14.119 C122.734001,13.9089989 123.021998,13.804 123.382,13.804 C123.766002,13.804 124.065999,13.9089989 124.282,14.119 C124.498001,14.329001 124.606,14.6259981 124.606,15.01 C124.606,15.3580017 124.498001,15.6459989 124.282,15.874 C124.065999,16.1020011 123.766002,16.216 123.382,16.216 C123.021998,16.216 122.734001,16.1020011 122.518,15.874 C122.301999,15.6459989 122.194,15.3580017 122.194,15.01 Z M142.41,10.51 L142.41,9.988 L150.888,4.822 L151.572,5.938 L144.426,10.168 L151.59,14.326 L150.906,15.406 L142.41,10.51 Z M155.29,16 L155.29,14.794 L158.422,14.794 L158.422,8.206 L155.29,8.206 L155.29,7 L159.862,7 L159.862,14.794 L162.922,14.794 L162.922,16 L155.29,16 Z M157.936,4.444 C157.936,4.11999838 158.043999,3.84100117 158.26,3.607 C158.476001,3.37299883 158.751998,3.256 159.088,3.256 C159.436,3.256 159.726999,3.37299883 159.961,3.607 C160.195001,3.84100117 160.312,4.11999838 160.312,4.444 C160.312,4.756 160.195001,5.01999892 159.961,5.236 C159.726999,5.45200108 159.436,5.56 159.088,5.56 C158.751998,5.56 158.476001,5.45200108 158.26,5.236 C158.043999,5.01999892 157.936,4.756 157.936,4.444 Z M166.694,15.406 L166.01,14.326 L173.174,10.168 L166.028,5.938 L166.712,4.822 L175.19,9.988 L175.19,10.51 L166.694,15.406 Z M178.89,16 L178.89,14.794 L182.022,14.794 L182.022,8.206 L178.89,8.206 L178.89,7 L183.462,7 L183.462,14.794 L186.522,14.794 L186.522,16 L178.89,16 Z M181.536,4.444 C181.536,4.11999838 181.643999,3.84100117 181.86,3.607 C182.076001,3.37299883 182.351998,3.256 182.688,3.256 C183.036,3.256 183.326999,3.37299883 183.561,3.607 C183.795001,3.84100117 183.912,4.11999838 183.912,4.444 C183.912,4.756 183.795001,5.01999892 183.561,5.236 C183.326999,5.45200108 183.036,5.56 182.688,5.56 C182.351998,5.56 182.076001,5.45200108 181.86,5.236 C181.643999,5.01999892 181.536,4.756 181.536,4.444 Z M189.358,7 L191.5,7 L191.5,5.218 L192.904,4.822 L192.904,7 L197.71,7 L197.71,8.206 L192.904,8.206 L192.904,12.454 C192.904,13.3300044 193.116998,13.9779979 193.543,14.398 C193.969002,14.8180021 194.577996,15.028 195.37,15.028 C195.910003,15.028 196.380998,14.926001 196.783,14.722 C197.185002,14.517999 197.547998,14.2960012 197.872,14.056 L198.34,15.118 C197.919998,15.4540017 197.419003,15.723999 196.837,15.928 C196.254997,16.132001 195.658003,16.234 195.046,16.234 C194.565998,16.234 194.113002,16.1650007 193.687,16.027 C193.260998,15.8889993 192.886002,15.6760014 192.562,15.388 C192.237998,15.0999986 191.980001,14.7310022 191.788,14.281 C191.595999,13.8309977 191.5,13.2940031 191.5,12.67 L191.5,8.206 L189.358,8.206 L189.358,7 Z M202.544,7.702 C203.060003,7.4019985 203.641997,7.18600066 204.29,7.054 C204.938003,6.92199934 205.573997,6.856 206.198,6.856 C206.810003,6.856 207.310998,6.95199904 207.701,7.144 C208.091002,7.33600096 208.396999,7.58499847 208.619,7.891 C208.841001,8.19700153 208.991,8.54499805 209.069,8.935 C209.147,9.32500195 209.186,9.71799802 209.186,10.114 C209.186,10.5700023 209.174,11.0559974 209.15,11.572 C209.126,12.0880026 209.108,12.6039974 209.096,13.12 C209.096,13.720003 209.132,14.2899973 209.204,14.83 L210.41,14.83 L210.41,16 L208.016,16 L207.854,14.65 L207.764,14.65 C207.692,14.7580005 207.584001,14.8959992 207.44,15.064 C207.295999,15.2320008 207.107001,15.3969992 206.873,15.559 C206.638999,15.7210008 206.354002,15.8619994 206.018,15.982 C205.681998,16.1020006 205.286002,16.162 204.83,16.162 C203.941996,16.162 203.240003,15.9340023 202.724,15.478 C202.207997,15.0219977 201.95,14.398004 201.95,13.606 C201.95,12.9939969 202.084999,12.484002 202.355,12.076 C202.625001,11.667998 203.011997,11.356 203.516,11.14 C204.020003,10.9239989 204.628996,10.7980002 205.343,10.762 C206.057004,10.7259998 206.857996,10.7739993 207.746,10.906 C207.806,10.3539972 207.815,9.89500183 207.773,9.529 C207.731,9.16299817 207.635001,8.87200108 207.485,8.656 C207.334999,8.43999892 207.125001,8.28700045 206.855,8.197 C206.584999,8.10699955 206.252002,8.062 205.856,8.062 C205.315997,8.062 204.800002,8.13699925 204.308,8.287 C203.815998,8.43700075 203.378002,8.58999922 202.994,8.746 L202.544,7.702 Z M205.19,14.956 C205.526002,14.956 205.837999,14.9020005 206.126,14.794 C206.414001,14.6859995 206.665999,14.5480008 206.882,14.38 C207.098001,14.2119992 207.277999,14.029001 207.422,13.831 C207.566001,13.632999 207.674,13.4440009 207.746,13.264 L207.746,12.004 C207.121997,11.8959995 206.546003,11.842 206.018,11.842 C205.489997,11.842 205.034002,11.8989994 204.65,12.013 C204.265998,12.1270006 203.966001,12.3039988 203.75,12.544 C203.533999,12.7840012 203.426,13.0959981 203.426,13.48 C203.426,13.876002 203.560999,14.2209985 203.831,14.515 C204.101001,14.8090015 204.553997,14.956 205.19,14.956 Z M214.542,3.4 L217.53,3.4 L217.53,12.976 C217.53,13.7080037 217.652999,14.2239985 217.899,14.524 C218.145001,14.8240015 218.507998,14.974 218.988,14.974 C219.324002,14.974 219.644998,14.9140006 219.951,14.794 C220.257002,14.6739994 220.595998,14.4700014 220.968,14.182 L221.616,15.172 C221.423999,15.3400008 221.214001,15.4899993 220.986,15.622 C220.757999,15.7540007 220.524001,15.8649995 220.284,15.955 C220.043999,16.0450004 219.804001,16.1139998 219.564,16.162 C219.323999,16.2100002 219.102001,16.234 218.898,16.234 C218.453998,16.234 218.058002,16.1770006 217.71,16.063 C217.361998,15.9489994 217.071001,15.7660013 216.837,15.514 C216.602999,15.2619987 216.426001,14.9290021 216.306,14.515 C216.185999,14.1009979 216.126,13.5880031 216.126,12.976 L216.126,4.606 L214.542,4.606 L214.542,3.4 Z M226.09,16 L226.09,14.794 L229.222,14.794 L229.222,8.206 L226.09,8.206 L226.09,7 L230.662,7 L230.662,14.794 L233.722,14.794 L233.722,16 L226.09,16 Z M228.736,4.444 C228.736,4.11999838 228.843999,3.84100117 229.06,3.607 C229.276001,3.37299883 229.551998,3.256 229.888,3.256 C230.236,3.256 230.526999,3.37299883 230.761,3.607 C230.995001,3.84100117 231.112,4.11999838 231.112,4.444 C231.112,4.756 230.995001,5.01999892 230.761,5.236 C230.526999,5.45200108 230.236,5.56 229.888,5.56 C229.551998,5.56 229.276001,5.45200108 229.06,5.236 C228.843999,5.01999892 228.736,4.756 228.736,4.444 Z M243.902,8.386 C243.625999,8.28999952 243.329002,8.20900033 243.011,8.143 C242.692998,8.07699967 242.378002,8.044 242.066,8.044 C240.889994,8.044 240.014003,8.31999724 239.438,8.872 C238.861997,9.42400276 238.574,10.299994 238.574,11.5 C238.574,12.0280026 238.657999,12.4989979 238.826,12.913 C238.994001,13.3270021 239.233998,13.6779986 239.546,13.966 C239.858002,14.2540014 240.232998,14.4759992 240.671,14.632 C241.109002,14.7880008 241.591997,14.866 242.12,14.866 C242.684003,14.866 243.232997,14.770001 243.767,14.578 C244.301003,14.385999 244.747998,14.1340016 245.108,13.822 L245.738,14.866 C245.569999,15.0100007 245.360001,15.1599992 245.108,15.316 C244.855999,15.4720008 244.565002,15.6189993 244.235,15.757 C243.904998,15.8950007 243.539002,16.0059996 243.137,16.09 C242.734998,16.1740004 242.300002,16.216 241.832,16.216 C241.051996,16.216 240.365003,16.1050011 239.771,15.883 C239.176997,15.6609989 238.682002,15.3430021 238.286,14.929 C237.889998,14.5149979 237.590001,14.0170029 237.386,13.435 C237.181999,12.8529971 237.08,12.2080035 237.08,11.5 C237.08,10.7439962 237.184999,10.0720029 237.395,9.484 C237.605001,8.89599706 237.907998,8.40400198 238.304,8.008 C238.700002,7.61199802 239.179997,7.30900105 239.744,7.099 C240.308003,6.88899895 240.937997,6.784 241.634,6.784 C242.522004,6.784 243.244997,6.86199922 243.803,7.018 C244.361003,7.17400078 244.831998,7.34799904 245.216,7.54 L245.198,7.594 L245.198,10.096 L243.902,10.096 L243.902,8.386 Z M248.61,10.51 L248.61,9.988 L257.088,4.822 L257.772,5.938 L250.626,10.168 L257.79,14.326 L257.106,15.406 L248.61,10.51 Z M267.718,3.184 L268.852,3.688 L262.282,18.52 L261.148,18.016 L267.718,3.184 Z M273.29,16 L273.29,14.794 L276.422,14.794 L276.422,8.206 L273.29,8.206 L273.29,7 L277.862,7 L277.862,14.794 L280.922,14.794 L280.922,16 L273.29,16 Z M275.936,4.444 C275.936,4.11999838 276.043999,3.84100117 276.26,3.607 C276.476001,3.37299883 276.751998,3.256 277.088,3.256 C277.436,3.256 277.726999,3.37299883 277.961,3.607 C278.195001,3.84100117 278.312,4.11999838 278.312,4.444 C278.312,4.756 278.195001,5.01999892 277.961,5.236 C277.726999,5.45200108 277.436,5.56 277.088,5.56 C276.751998,5.56 276.476001,5.45200108 276.26,5.236 C276.043999,5.01999892 275.936,4.756 275.936,4.444 Z M284.694,15.406 L284.01,14.326 L291.174,10.168 L284.028,5.938 L284.712,4.822 L293.19,9.988 L293.19,10.51 L284.694,15.406 Z M308.744,7.702 C309.260003,7.4019985 309.841997,7.18600066 310.49,7.054 C311.138003,6.92199934 311.773997,6.856 312.398,6.856 C313.010003,6.856 313.510998,6.95199904 313.901,7.144 C314.291002,7.33600096 314.596999,7.58499847 314.819,7.891 C315.041001,8.19700153 315.191,8.54499805 315.269,8.935 C315.347,9.32500195 315.386,9.71799802 315.386,10.114 C315.386,10.5700023 315.374,11.0559974 315.35,11.572 C315.326,12.0880026 315.308,12.6039974 315.296,13.12 C315.296,13.720003 315.332,14.2899973 315.404,14.83 L316.61,14.83 L316.61,16 L314.216,16 L314.054,14.65 L313.964,14.65 C313.892,14.7580005 313.784001,14.8959992 313.64,15.064 C313.495999,15.2320008 313.307001,15.3969992 313.073,15.559 C312.838999,15.7210008 312.554002,15.8619994 312.218,15.982 C311.881998,16.1020006 311.486002,16.162 311.03,16.162 C310.141996,16.162 309.440003,15.9340023 308.924,15.478 C308.407997,15.0219977 308.15,14.398004 308.15,13.606 C308.15,12.9939969 308.284999,12.484002 308.555,12.076 C308.825001,11.667998 309.211997,11.356 309.716,11.14 C310.220003,10.9239989 310.828996,10.7980002 311.543,10.762 C312.257004,10.7259998 313.057996,10.7739993 313.946,10.906 C314.006,10.3539972 314.015,9.89500183 313.973,9.529 C313.931,9.16299817 313.835001,8.87200108 313.685,8.656 C313.534999,8.43999892 313.325001,8.28700045 313.055,8.197 C312.784999,8.10699955 312.452002,8.062 312.056,8.062 C311.515997,8.062 311.000002,8.13699925 310.508,8.287 C310.015998,8.43700075 309.578002,8.58999922 309.194,8.746 L308.744,7.702 Z M311.39,14.956 C311.726002,14.956 312.037999,14.9020005 312.326,14.794 C312.614001,14.6859995 312.865999,14.5480008 313.082,14.38 C313.298001,14.2119992 313.477999,14.029001 313.622,13.831 C313.766001,13.632999 313.874,13.4440009 313.946,13.264 L313.946,12.004 C313.321997,11.8959995 312.746003,11.842 312.218,11.842 C311.689997,11.842 311.234002,11.8989994 310.85,12.013 C310.465998,12.1270006 310.166001,12.3039988 309.95,12.544 C309.733999,12.7840012 309.626,13.0959981 309.626,13.48 C309.626,13.876002 309.760999,14.2209985 310.031,14.515 C310.301001,14.8090015 310.753997,14.956 311.39,14.956 Z M320.274,10.15 C320.274,10.0419995 320.271,9.90100087 320.265,9.727 C320.259,9.55299913 320.25,9.37300093 320.238,9.187 C320.226,9.00099907 320.211,8.8180009 320.193,8.638 C320.175,8.4579991 320.154,8.30200066 320.13,8.17 L318.924,8.17 L318.924,7 L321.336,7 L321.498,8.458 L321.588,8.458 C321.708001,8.25399898 321.866999,8.05300099 322.065,7.855 C322.263001,7.65699901 322.493999,7.47700081 322.758,7.315 C323.022001,7.15299919 323.315998,7.02400048 323.64,6.928 C323.964002,6.83199952 324.305998,6.784 324.666,6.784 C325.218003,6.784 325.706998,6.8439994 326.133,6.964 C326.559002,7.0840006 326.912999,7.29699847 327.195,7.603 C327.477001,7.90900153 327.689999,8.32299739 327.834,8.845 C327.978001,9.36700261 328.05,10.029996 328.05,10.834 L328.05,16 L326.646,16 L326.646,11.104 C326.646,10.107995 326.484002,9.35800252 326.16,8.854 C325.835998,8.34999748 325.248004,8.098 324.396,8.098 C324.083998,8.098 323.781001,8.16099937 323.487,8.287 C323.192999,8.41300063 322.926001,8.57799898 322.686,8.782 C322.445999,8.98600102 322.236001,9.22299865 322.056,9.493 C321.875999,9.76300135 321.744,10.0479985 321.66,10.348 L321.66,16 L320.274,16 L320.274,10.15 Z M336.682,3.4 L339.598,3.4 L339.598,12.922 C339.598,13.0300005 339.604,13.1649992 339.616,13.327 C339.628,13.4890008 339.643,13.6599991 339.661,13.84 C339.679,14.0200009 339.7,14.1969991 339.724,14.371 C339.748,14.5450009 339.772,14.6979993 339.796,14.83 L341.002,14.83 L341.002,16 L338.608,16 L338.428,14.614 L338.356,14.614 C338.091999,15.0700023 337.699003,15.4509985 337.177,15.757 C336.654997,16.0630015 336.052003,16.216 335.368,16.216 C334.011993,16.216 333.013003,15.8350038 332.371,15.073 C331.728997,14.3109962 331.408,13.126008 331.408,11.518 C331.408,10.7619962 331.515999,10.0930029 331.732,9.511 C331.948001,8.92899709 332.256998,8.44300195 332.659,8.053 C333.061002,7.66299805 333.543997,7.36600102 334.108,7.162 C334.672003,6.95799898 335.301997,6.856 335.998,6.856 C336.250001,6.856 336.474999,6.86199994 336.673,6.874 C336.871001,6.88600006 337.053999,6.90399988 337.222,6.928 C337.390001,6.95200012 337.548999,6.98499979 337.699,7.027 C337.849001,7.06900021 338.013999,7.11399976 338.194,7.162 L338.194,4.606 L336.682,4.606 L336.682,3.4 Z M335.602,15.01 C336.334004,15.01 336.909998,14.8210019 337.33,14.443 C337.750002,14.0649981 338.037999,13.4980038 338.194,12.742 L338.194,8.566 C337.929999,8.3859991 337.633002,8.25400042 337.303,8.17 C336.972998,8.08599958 336.538003,8.044 335.998,8.044 C335.037995,8.044 334.282003,8.32299721 333.73,8.881 C333.177997,9.43900279 332.902,10.317994 332.902,11.518 C332.902,12.0100025 332.947,12.4689979 333.037,12.895 C333.127,13.3210021 333.276999,13.6899984 333.487,14.002 C333.697001,14.3140016 333.975998,14.5599991 334.324,14.74 C334.672002,14.9200009 335.097997,15.01 335.602,15.01 Z M354.81,10.51 L354.81,9.988 L363.288,4.822 L363.972,5.938 L356.826,10.168 L363.99,14.326 L363.306,15.406 L354.81,10.51 Z M365.836,3.4 L368.716,3.4 L368.716,8.026 L368.806,8.026 C369.118002,7.62999802 369.519998,7.32400108 370.012,7.108 C370.504002,6.89199892 371.037997,6.784 371.614,6.784 C374.254013,6.784 375.574,8.30798476 375.574,11.356 C375.574,12.9040077 375.148004,14.0889959 374.296,14.911 C373.443996,15.7330041 372.232008,16.144 370.66,16.144 C369.915996,16.144 369.244003,16.0720007 368.644,15.928 C368.043997,15.7839993 367.606001,15.616001 367.33,15.424 L367.33,4.606 L365.836,4.606 L365.836,3.4 Z M371.434,7.99 C370.713996,7.99 370.132002,8.19399796 369.688,8.602 C369.243998,9.01000204 368.920001,9.58599628 368.716,10.33 L368.716,14.47 C368.992001,14.6140007 369.321998,14.7279996 369.706,14.812 C370.090002,14.8960004 370.491998,14.938 370.912,14.938 C371.392002,14.938 371.826998,14.8690007 372.217,14.731 C372.607002,14.5929993 372.939999,14.3770015 373.216,14.083 C373.492001,13.7889985 373.704999,13.4140023 373.855,12.958 C374.005001,12.5019977 374.08,11.9620031 374.08,11.338 C374.08,10.8819977 374.032,10.450002 373.936,10.042 C373.84,9.63399796 373.687001,9.27700153 373.477,8.971 C373.266999,8.66499847 372.994002,8.42500087 372.658,8.251 C372.321998,8.07699913 371.914002,7.99 371.434,7.99 Z M379.094,15.406 L378.41,14.326 L385.574,10.168 L378.428,5.938 L379.112,4.822 L387.59,9.988 L387.59,10.51 L379.094,15.406 Z M389.436,3.4 L392.316,3.4 L392.316,8.026 L392.406,8.026 C392.718002,7.62999802 393.119998,7.32400108 393.612,7.108 C394.104002,6.89199892 394.637997,6.784 395.214,6.784 C397.854013,6.784 399.174,8.30798476 399.174,11.356 C399.174,12.9040077 398.748004,14.0889959 397.896,14.911 C397.043996,15.7330041 395.832008,16.144 394.26,16.144 C393.515996,16.144 392.844003,16.0720007 392.244,15.928 C391.643997,15.7839993 391.206001,15.616001 390.93,15.424 L390.93,4.606 L389.436,4.606 L389.436,3.4 Z M395.034,7.99 C394.313996,7.99 393.732002,8.19399796 393.288,8.602 C392.843998,9.01000204 392.520001,9.58599628 392.316,10.33 L392.316,14.47 C392.592001,14.6140007 392.921998,14.7279996 393.306,14.812 C393.690002,14.8960004 394.091998,14.938 394.512,14.938 C394.992002,14.938 395.426998,14.8690007 395.817,14.731 C396.207002,14.5929993 396.539999,14.3770015 396.816,14.083 C397.092001,13.7889985 397.304999,13.4140023 397.455,12.958 C397.605001,12.5019977 397.68,11.9620031 397.68,11.338 C397.68,10.8819977 397.632,10.450002 397.536,10.042 C397.44,9.63399796 397.287001,9.27700153 397.077,8.971 C396.866999,8.66499847 396.594002,8.42500087 396.258,8.251 C395.921998,8.07699913 395.514002,7.99 395.034,7.99 Z M402.226,11.5 C402.226,10.0479927 402.603996,8.89900423 403.36,8.053 C404.116004,7.20699577 405.195993,6.784 406.6,6.784 C407.356004,6.784 408.006997,6.90699877 408.553,7.153 C409.099003,7.39900123 409.551998,7.7319979 409.912,8.152 C410.272002,8.5720021 410.538999,9.06999712 410.713,9.646 C410.887001,10.2220029 410.974,10.8399967 410.974,11.5 C410.974,12.2200036 410.878001,12.8709971 410.686,13.453 C410.493999,14.0350029 410.212002,14.529998 409.84,14.938 C409.467998,15.346002 409.009003,15.6609989 408.463,15.883 C407.916997,16.1050011 407.296003,16.216 406.6,16.216 C405.855996,16.216 405.208003,16.0930012 404.656,15.847 C404.103997,15.6009988 403.648002,15.2680021 403.288,14.848 C402.927998,14.4279979 402.661001,13.9300029 402.487,13.354 C402.312999,12.7779971 402.226,12.1600033 402.226,11.5 Z M403.72,11.5 C403.72,11.9200021 403.770999,12.3399979 403.873,12.76 C403.975001,13.1800021 404.139999,13.5579983 404.368,13.894 C404.596001,14.2300017 404.892998,14.499999 405.259,14.704 C405.625002,14.908001 406.071997,15.01 406.6,15.01 C407.560005,15.01 408.282998,14.713003 408.769,14.119 C409.255002,13.524997 409.498,12.6520058 409.498,11.5 C409.498,11.0679978 409.447001,10.6450021 409.345,10.231 C409.242999,9.81699793 409.075001,9.44200168 408.841,9.106 C408.606999,8.76999832 408.307002,8.50000102 407.941,8.296 C407.574998,8.09199898 407.128003,7.99 406.6,7.99 C405.639995,7.99 404.920002,8.28399706 404.44,8.872 C403.959998,9.46000294 403.72,10.3359942 403.72,11.5 Z M415.142,3.4 L418.13,3.4 L418.13,12.976 C418.13,13.7080037 418.252999,14.2239985 418.499,14.524 C418.745001,14.8240015 419.107998,14.974 419.588,14.974 C419.924002,14.974 420.244998,14.9140006 420.551,14.794 C420.857002,14.6739994 421.195998,14.4700014 421.568,14.182 L422.216,15.172 C422.023999,15.3400008 421.814001,15.4899993 421.586,15.622 C421.357999,15.7540007 421.124001,15.8649995 420.884,15.955 C420.643999,16.0450004 420.404001,16.1139998 420.164,16.162 C419.923999,16.2100002 419.702001,16.234 419.498,16.234 C419.053998,16.234 418.658002,16.1770006 418.31,16.063 C417.961998,15.9489994 417.671001,15.7660013 417.437,15.514 C417.202999,15.2619987 417.026001,14.9290021 416.906,14.515 C416.785999,14.1009979 416.726,13.5880031 416.726,12.976 L416.726,4.606 L415.142,4.606 L415.142,3.4 Z M431.082,3.4 L433.998,3.4 L433.998,12.922 C433.998,13.0300005 434.004,13.1649992 434.016,13.327 C434.028,13.4890008 434.043,13.6599991 434.061,13.84 C434.079,14.0200009 434.1,14.1969991 434.124,14.371 C434.148,14.5450009 434.172,14.6979993 434.196,14.83 L435.402,14.83 L435.402,16 L433.008,16 L432.828,14.614 L432.756,14.614 C432.491999,15.0700023 432.099003,15.4509985 431.577,15.757 C431.054997,16.0630015 430.452003,16.216 429.768,16.216 C428.411993,16.216 427.413003,15.8350038 426.771,15.073 C426.128997,14.3109962 425.808,13.126008 425.808,11.518 C425.808,10.7619962 425.915999,10.0930029 426.132,9.511 C426.348001,8.92899709 426.656998,8.44300195 427.059,8.053 C427.461002,7.66299805 427.943997,7.36600102 428.508,7.162 C429.072003,6.95799898 429.701997,6.856 430.398,6.856 C430.650001,6.856 430.874999,6.86199994 431.073,6.874 C431.271001,6.88600006 431.453999,6.90399988 431.622,6.928 C431.790001,6.95200012 431.948999,6.98499979 432.099,7.027 C432.249001,7.06900021 432.413999,7.11399976 432.594,7.162 L432.594,4.606 L431.082,4.606 L431.082,3.4 Z M430.002,15.01 C430.734004,15.01 431.309998,14.8210019 431.73,14.443 C432.150002,14.0649981 432.437999,13.4980038 432.594,12.742 L432.594,8.566 C432.329999,8.3859991 432.033002,8.25400042 431.703,8.17 C431.372998,8.08599958 430.938003,8.044 430.398,8.044 C429.437995,8.044 428.682003,8.32299721 428.13,8.881 C427.577997,9.43900279 427.302,10.317994 427.302,11.518 C427.302,12.0100025 427.347,12.4689979 427.437,12.895 C427.527,13.3210021 427.676999,13.6899984 427.887,14.002 C428.097001,14.3140016 428.375998,14.5599991 428.724,14.74 C429.072002,14.9200009 429.497997,15.01 430.002,15.01 Z M437.41,10.51 L437.41,9.988 L445.888,4.822 L446.572,5.938 L439.426,10.168 L446.59,14.326 L445.906,15.406 L437.41,10.51 Z M456.518,3.184 L457.652,3.688 L451.082,18.52 L449.948,18.016 L456.518,3.184 Z M460.236,3.4 L463.116,3.4 L463.116,8.026 L463.206,8.026 C463.518002,7.62999802 463.919998,7.32400108 464.412,7.108 C464.904002,6.89199892 465.437997,6.784 466.014,6.784 C468.654013,6.784 469.974,8.30798476 469.974,11.356 C469.974,12.9040077 469.548004,14.0889959 468.696,14.911 C467.843996,15.7330041 466.632008,16.144 465.06,16.144 C464.315996,16.144 463.644003,16.0720007 463.044,15.928 C462.443997,15.7839993 462.006001,15.616001 461.73,15.424 L461.73,4.606 L460.236,4.606 L460.236,3.4 Z M465.834,7.99 C465.113996,7.99 464.532002,8.19399796 464.088,8.602 C463.643998,9.01000204 463.320001,9.58599628 463.116,10.33 L463.116,14.47 C463.392001,14.6140007 463.721998,14.7279996 464.106,14.812 C464.490002,14.8960004 464.891998,14.938 465.312,14.938 C465.792002,14.938 466.226998,14.8690007 466.617,14.731 C467.007002,14.5929993 467.339999,14.3770015 467.616,14.083 C467.892001,13.7889985 468.104999,13.4140023 468.255,12.958 C468.405001,12.5019977 468.48,11.9620031 468.48,11.338 C468.48,10.8819977 468.432,10.450002 468.336,10.042 C468.24,9.63399796 468.087001,9.27700153 467.877,8.971 C467.666999,8.66499847 467.394002,8.42500087 467.058,8.251 C466.721998,8.07699913 466.314002,7.99 465.834,7.99 Z M473.494,15.406 L472.81,14.326 L479.974,10.168 L472.828,5.938 L473.512,4.822 L481.99,9.988 L481.99,10.51 L473.494,15.406 Z M484.61,10.51 L484.61,9.988 L493.088,4.822 L493.772,5.938 L486.626,10.168 L493.79,14.326 L493.106,15.406 L484.61,10.51 Z M503.718,3.184 L504.852,3.688 L498.282,18.52 L497.148,18.016 L503.718,3.184 Z M509.128,10.15 C509.128,10.0419995 509.125,9.90100087 509.119,9.727 C509.113,9.55299913 509.104,9.37300093 509.092,9.187 C509.08,9.00099907 509.065,8.8180009 509.047,8.638 C509.029,8.4579991 509.008,8.30200066 508.984,8.17 L507.778,8.17 L507.778,7 L510.172,7 L510.352,8.26 L510.442,8.26 C510.766002,7.8399979 511.176998,7.48900141 511.675,7.207 C512.173002,6.92499859 512.781996,6.784 513.502,6.784 C514.786006,6.784 515.751997,7.13799646 516.4,7.846 C517.048003,8.55400354 517.372,9.71199196 517.372,11.32 C517.372,12.0760038 517.261001,12.756997 517.039,13.363 C516.816999,13.969003 516.502002,14.4819979 516.094,14.902 C515.685998,15.3220021 515.194003,15.6459989 514.618,15.874 C514.041997,16.1020011 513.406003,16.216 512.71,16.216 C512.457999,16.216 512.233001,16.2070001 512.035,16.189 C511.836999,16.1709999 511.657001,16.1470001 511.495,16.117 C511.332999,16.0869998 511.174001,16.0480002 511.018,16 C510.861999,15.9519998 510.694001,15.8920004 510.514,15.82 L510.514,19.6 L509.128,19.6 L509.128,10.15 Z M513.268,8.098 C512.907998,8.098 512.569002,8.16399934 512.251,8.296 C511.932998,8.42800066 511.651001,8.60199892 511.405,8.818 C511.158999,9.03400108 510.958001,9.27399868 510.802,9.538 C510.645999,9.80200132 510.55,10.0659987 510.514,10.33 L510.514,14.434 C510.778001,14.6140009 511.074998,14.7549995 511.405,14.857 C511.735002,14.9590005 512.169997,15.01 512.71,15.01 C513.670005,15.01 514.437997,14.6950031 515.014,14.065 C515.590003,13.4349968 515.878,12.5140061 515.878,11.302 C515.878,10.2819949 515.677002,9.49300279 515.275,8.935 C514.872998,8.37699721 514.204005,8.098 513.268,8.098 Z M520.694,15.406 L520.01,14.326 L527.174,10.168 L520.028,5.938 L520.712,4.822 L529.19,9.988 L529.19,10.51 L520.694,15.406 Z" id="&lt;p&gt;Example:&lt;i&gt;italic&lt;/i&gt;and&lt;b&gt;bold&lt;/b&gt;&lt;/p&gt;"></path>
            </g>
        </g>
    </g>
</svg>