<?xml version="1.0" encoding="UTF-8"?>
<svg width="440px" height="316px" viewBox="0 0 440 316" version="1.1" xmlns="http://www.w3.org/2000/svg" xmlns:xlink="http://www.w3.org/1999/xlink">
    <!-- Generator: sketchtool 61.2 (101010) - https://sketch.com -->
    <title>dom-links-elements.svg</title>
    <desc>Created with sketchtool.</desc>
    <g id="dom" stroke="none" stroke-width="1" fill="none" fill-rule="evenodd">
        <g id="dom-links-elements.svg">
            <rect id="Rectangle-8" stroke="#E8C48E" stroke-width="2" fill="#FFF9EB" x="129" y="10" width="198" height="28"></rect>
            <text id="document.documentEle" font-family="PTMono-Regular, PT Mono" font-size="12" font-weight="normal" fill="#8A704D">
                <tspan x="142.6" y="29">document.documentElement  </tspan>
            </text>
            <text id="Type-something" font-family="PTMono-Regular, PT Mono" font-size="12" font-weight="normal" fill="#8A704D">
                <tspan x="336.9" y="29">&lt;HTML&gt;</tspan>
            </text>
            <rect id="Rectangle-7" stroke="#E8C48E" stroke-width="2" fill="#FFF9EB" x="163" y="78" width="117" height="28"></rect>
            <text id="document.body--" font-family="PTMono-Regular, PT Mono" font-size="12" font-weight="normal" fill="#8A704D">
                <tspan x="174.2" y="95">document.body  </tspan>
            </text>
            <text id="(if-inside-body)" font-family="PTMono-Regular, PT Mono" font-size="12" font-weight="normal" fill="#8A704D">
                <tspan x="300.9" y="95">(if inside body)</tspan>
            </text>
            <line x1="14.5" y1="115" x2="427" y2="115" id="Line-5" stroke="#8A704D" stroke-width="2" stroke-linecap="square"></line>
            <text id="parentElement" font-family="PTMono-Regular, PT Mono" font-size="12" font-weight="normal">
                <tspan x="175" y="172" fill="#8A704D">parent</tspan>
                <tspan x="218.2" y="172" fill="#EE6B47">Element</tspan>
            </text>
            <rect id="Rectangle-6" stroke="#E8C48E" stroke-width="2" fill="#FFF9EB" x="180" y="213" width="80" height="28"></rect>
            <text id="&lt;DIV&gt;" font-family="Helvetica" font-size="12" font-weight="normal" fill="#8A704D">
                <tspan x="207.165141" y="230">&lt;DIV</tspan>
                <tspan x="217.167094" y="244">&gt;</tspan>
            </text>
            <path id="Line-6" d="M220.5,178.710271 L221.371576,180.259739 L228.121576,192.259739 L228.611837,193.131314 L226.868686,194.111837 L226.378424,193.240261 L221.5,184.567 L221.5,208.5 L219.5,208.5 L219.5,184.567 L214.621576,193.240261 L214.131314,194.111837 L212.388163,193.131314 L212.878424,192.259739 L219.628424,180.259739 L220.5,178.710271 Z" fill="#EE6B47" fill-rule="nonzero"></path>
            <path id="Line-7" d="M415.368686,218.388163 L416.240261,218.878424 L428.240261,225.628424 L429.789729,226.5 L428.240261,227.371576 L416.240261,234.121576 L415.368686,234.611837 L414.388163,232.868686 L415.259739,232.378424 L423.932,227.5 L266.5,227.5 L266.5,225.5 L423.932,225.5 L415.259739,220.621576 L414.388163,220.131314 L415.368686,218.388163 Z" fill="#EE6B47" fill-rule="nonzero"></path>
            <text id="nextElementSibling" font-family="PTMono-Regular, PT Mono" font-size="12" font-weight="normal">
                <tspan x="276" y="212" fill="#8A704D">next</tspan>
                <tspan x="304.8" y="212" fill="#EE6B47">Element</tspan>
                <tspan x="355.2" y="212" fill="#8A704D">Sibling</tspan>
            </text>
            <path id="Line-8" d="M23.6313143,218.388163 L24.6118368,220.131314 L23.7402612,220.621576 L15.067,225.5 L169,225.5 L169,227.5 L15.067,227.5 L23.7402612,232.378424 L24.6118368,232.868686 L23.6313143,234.611837 L22.7597388,234.121576 L10.7597388,227.371576 L9.21027114,226.5 L10.7597388,225.628424 L22.7597388,218.878424 L23.6313143,218.388163 Z" fill="#EE6B47" fill-rule="nonzero"></path>
            <text id="previousElementSibli" font-family="PTMono-Regular, PT Mono" font-size="12" font-weight="normal">
                <tspan x="6" y="212" fill="#8A704D">previous</tspan>
                <tspan x="63.6" y="212" fill="#EE6B47">Element</tspan>
                <tspan x="114" y="212" fill="#8A704D">Sibling</tspan>
            </text>
            <path id="Line" d="M174.822277,248.122997 L175.877003,249.822277 L175.027363,250.34964 L126.550676,280.438618 L119.634,284.731 L129.57506,284.303168 L130.574131,284.260077 L130.660313,286.258219 L129.661242,286.30131 L115.905861,286.894593 L114.129734,286.971199 L114.986588,285.413542 L121.62257,273.350117 L122.10455,272.473934 L123.856915,273.437894 L123.374935,274.314077 L118.578,283.032 L125.49595,278.739338 L173.972637,248.65036 L174.822277,248.122997 Z" fill="#EE6B47" fill-rule="nonzero"></path>
            <path id="Line-3" d="M269.21397,248.115014 L270.049478,248.664492 L316.205705,279.019488 L322.986,283.479 L318.420984,274.637511 L317.962163,273.748982 L319.739221,272.831341 L320.198042,273.71987 L326.51516,285.953288 L327.330841,287.532895 L325.557336,287.409705 L311.822262,286.455645 L310.824666,286.38635 L310.963255,284.391158 L311.960851,284.460453 L321.887,285.15 L315.106749,280.690504 L268.950522,250.335508 L268.115014,249.78603 L269.21397,248.115014 Z" fill="#EE6B47" fill-rule="nonzero"></path>
            <text id="children" font-family="PTMono-Regular, PT Mono" font-size="12" font-weight="normal" fill="#EE6B47">
                <tspan x="188" y="273">children</tspan>
            </text>
            <text id="firstElementChild--" font-family="PTMono-Regular, PT Mono" font-size="12" font-weight="normal">
                <tspan x="43" y="307" fill="#8A704D">first</tspan>
                <tspan x="79" y="307" fill="#EE6B47">Element</tspan>
                <tspan x="129.4" y="307" fill="#8A704D">Child  </tspan>
            </text>
            <text id="lastElementChild" font-family="PTMono-Regular, PT Mono" font-size="12" font-weight="normal">
                <tspan x="273" y="307" fill="#8A704D">last</tspan>
                <tspan x="301.8" y="307" fill="#EE6B47">Element</tspan>
                <tspan x="352.2" y="307" fill="#8A704D">Child</tspan>
            </text>
            <path id="Line-Copy-2" d="M222.5,151.5 L222.5,152.5 L222.5,154.5 L222.5,155.5 L220.5,155.5 L220.5,154.5 L220.5,152.5 L220.5,151.5 L222.5,151.5 Z M222.5,145.5 L222.5,149.5 L220.5,149.5 L220.5,145.5 L222.5,145.5 Z M222.5,139.5 L222.5,143.5 L220.5,143.5 L220.5,139.5 L222.5,139.5 Z M221.5,125.210271 L222.371576,126.759739 L229.121576,138.759739 L229.611837,139.631314 L227.868686,140.611837 L227.378424,139.740261 L222.499,131.065 L222.5,131.5 L220.5,131.5 L220.499,131.068 L215.621576,139.740261 L215.131314,140.611837 L213.388163,139.631314 L213.878424,138.759739 L220.628424,126.759739 L221.5,125.210271 Z M222.5,133.5 L222.5,137.5 L220.5,137.5 L220.5,133.5 L222.5,133.5 Z" fill="#EE6B47" fill-rule="nonzero"></path>
            <path id="Line-2-Copy" d="M221.5,44.7102711 L222.371576,46.2597388 L229.121576,58.2597388 L229.611837,59.1313143 L227.868686,60.1118368 L227.378424,59.2402612 L222.5,50.567 L222.5,72.0953973 L220.5,72.0953973 L220.5,50.567 L215.621576,59.2402612 L215.131314,60.1118368 L213.388163,59.1313143 L213.878424,58.2597388 L220.628424,46.2597388 L221.5,44.7102711 Z" fill="#EE6B47" fill-rule="nonzero"></path>
        </g>
    </g>
</svg>