<?xml version="1.0" encoding="UTF-8"?>
<svg width="420px" height="388px" viewBox="0 0 420 388" version="1.1" xmlns="http://www.w3.org/2000/svg" xmlns:xlink="http://www.w3.org/1999/xlink">
    <!-- Generator: sketchtool 61.2 (101010) - https://sketch.com -->
    <title>dom-links.svg</title>
    <desc>Created with sketchtool.</desc>
    <g id="dom" stroke="none" stroke-width="1" fill="none" fill-rule="evenodd">
        <g id="dom-links.svg">
            <rect id="Rectangle-9" stroke="#E8C48E" stroke-width="2" fill="#FFF9EB" x="150" y="20" width="117" height="28"></rect>
            <rect id="Rectangle-7" stroke="#E8C48E" stroke-width="2" fill="#FFF9EB" x="151" y="154" width="117" height="28"></rect>
            <rect id="Rectangle-8" stroke="#E8C48E" stroke-width="2" fill="#FFF9EB" x="117" y="87" width="198" height="28"></rect>
            <text id="document" font-family="PTMono-Regular, PT Mono" font-size="12" font-weight="normal" fill="#8A704D">
                <tspan x="179.7" y="38">document</tspan>
            </text>
            <text id="document.documentEle" font-family="PTMono-Regular, PT Mono" font-size="12" font-weight="normal" fill="#8A704D">
                <tspan x="129.6" y="105">document.documentElement  </tspan>
            </text>
            <text id="Type-something" font-family="PTMono-Regular, PT Mono" font-size="12" font-weight="normal" fill="#8A704D">
                <tspan x="324.9" y="105">&lt;HTML&gt;</tspan>
            </text>
            <text id="document.body--" font-family="PTMono-Regular, PT Mono" font-size="12" font-weight="normal" fill="#8A704D">
                <tspan x="164.2" y="173">document.body  </tspan>
            </text>
            <text id="(if-inside-body)" font-family="PTMono-Regular, PT Mono" font-size="12" font-weight="normal" fill="#8A704D">
                <tspan x="283.9" y="173">(if inside body)</tspan>
            </text>
            <path id="Line" d="M209.5,119.710271 L210.371576,121.259739 L217.121576,133.259739 L217.611837,134.131314 L215.868686,135.111837 L215.378424,134.240261 L210.5,125.567 L210.5,149.352424 L208.5,149.352424 L208.5,125.567 L203.621576,134.240261 L203.131314,135.111837 L201.388163,134.131314 L201.878424,133.259739 L208.628424,121.259739 L209.5,119.710271 Z" fill="#EE6B47" fill-rule="nonzero"></path>
            <path id="Line-2" d="M209.5,52.7102711 L210.371576,54.2597388 L217.121576,66.2597388 L217.611837,67.1313143 L215.868686,68.1118368 L215.378424,67.2402612 L210.5,58.567 L210.5,80.0953973 L208.5,80.0953973 L208.5,58.567 L203.621576,67.2402612 L203.131314,68.1118368 L201.388163,67.1313143 L201.878424,66.2597388 L208.628424,54.2597388 L209.5,52.7102711 Z" fill="#EE6B47" fill-rule="nonzero"></path>
            <line x1="2.5" y1="191" x2="415" y2="191" id="Line" stroke="#8A704D" stroke-width="2" stroke-linecap="square"></line>
            <text id="parentNode" font-family="PTMono-Regular, PT Mono" font-size="12" font-weight="normal" fill="#8A704D">
                <tspan x="172" y="248">parentNode</tspan>
            </text>
            <rect id="Rectangle-6" stroke="#E8C48E" stroke-width="2" fill="#FFF9EB" x="169" y="289" width="80" height="28"></rect>
            <text id="&lt;DIV&gt;" font-family="Helvetica" font-size="12" font-weight="normal" fill="#8A704D">
                <tspan x="195.165141" y="306">&lt;DIV</tspan>
                <tspan x="205.167094" y="320">&gt;</tspan>
            </text>
            <path id="Line" d="M208.5,254.210271 L209.371576,255.759739 L216.121576,267.759739 L216.611837,268.631314 L214.868686,269.611837 L214.378424,268.740261 L209.499,260.065 L209.5,268.25 L209.5,283.5 L209.5,284.5 L207.5,284.5 L207.5,283.5 L207.5,268.25 L207.499,260.068 L202.621576,268.740261 L202.131314,269.611837 L200.388163,268.631314 L200.878424,267.759739 L207.628424,255.759739 L208.5,254.210271 Z" fill="#EE6B47" fill-rule="nonzero"></path>
            <path id="Line-Copy" d="M209.5,226.5 L209.5,227.5 L209.5,229.5 L209.5,230.5 L207.5,230.5 L207.5,229.5 L207.5,227.5 L207.5,226.5 L209.5,226.5 Z M209.5,220.5 L209.5,224.5 L207.5,224.5 L207.5,220.5 L209.5,220.5 Z M209.5,214.5 L209.5,218.5 L207.5,218.5 L207.5,214.5 L209.5,214.5 Z M208.5,200.210271 L209.371576,201.759739 L216.121576,213.759739 L216.611837,214.631314 L214.868686,215.611837 L214.378424,214.740261 L209.499,206.065 L209.5,206.5 L207.5,206.5 L207.499,206.068 L202.621576,214.740261 L202.131314,215.611837 L200.388163,214.631314 L200.878424,213.759739 L207.628424,201.759739 L208.5,200.210271 Z M209.5,208.5 L209.5,212.5 L207.5,212.5 L207.5,208.5 L209.5,208.5 Z" fill="#EE6B47" fill-rule="nonzero"></path>
            <path id="Line" d="M356.368686,294.388163 L357.240261,294.878424 L369.240261,301.628424 L370.789729,302.5 L369.240261,303.371576 L357.240261,310.121576 L356.368686,310.611837 L355.388163,308.868686 L356.259739,308.378424 L364.932,303.5 L254.5,303.5 L254.5,301.5 L364.932,301.5 L356.259739,296.621576 L355.388163,296.131314 L356.368686,294.388163 Z" fill="#EE6B47" fill-rule="nonzero"></path>
            <text id="nextSibling" font-family="PTMono-Regular, PT Mono" font-size="12" font-weight="normal" fill="#8A704D">
                <tspan x="264" y="288">nextSibling</tspan>
            </text>
            <path id="Line" d="M61.6313143,294.388163 L62.6118368,296.131314 L61.7402612,296.621576 L53.067,301.5 L165.5,301.5 L165.5,303.5 L53.067,303.5 L61.7402612,308.378424 L62.6118368,308.868686 L61.6313143,310.611837 L60.7597388,310.121576 L48.7597388,303.371576 L47.2102711,302.5 L48.7597388,301.628424 L60.7597388,294.878424 L61.6313143,294.388163 Z" fill="#EE6B47" fill-rule="nonzero"></path>
            <text id="previousSibling" font-family="PTMono-Regular, PT Mono" font-size="12" font-weight="normal" fill="#8A704D">
                <tspan x="50" y="288">previousSibling</tspan>
            </text>
            <path id="Line" d="M162.822277,324.122997 L163.877003,325.822277 L163.027363,326.34964 L114.550676,356.438618 L107.634,360.731 L117.57506,360.303168 L118.574131,360.260077 L118.660313,362.258219 L117.661242,362.30131 L103.905861,362.894593 L102.129734,362.971199 L102.986588,361.413542 L109.62257,349.350117 L110.10455,348.473934 L111.856915,349.437894 L111.374935,350.314077 L106.578,359.032 L113.49595,354.739338 L161.972637,324.65036 L162.822277,324.122997 Z" fill="#EE6B47" fill-rule="nonzero"></path>
            <path id="Line-3" d="M257.21397,324.115014 L258.049478,324.664492 L304.205705,355.019488 L310.986,359.479 L306.420984,350.637511 L305.962163,349.748982 L307.739221,348.831341 L308.198042,349.71987 L314.51516,361.953288 L315.330841,363.532895 L313.557336,363.409705 L299.822262,362.455645 L298.824666,362.38635 L298.963255,360.391158 L299.960851,360.460453 L309.887,361.15 L303.106749,356.690504 L256.950522,326.335508 L256.115014,325.78603 L257.21397,324.115014 Z" fill="#EE6B47" fill-rule="nonzero"></path>
            <text id="childNodes" font-family="PTMono-Regular, PT Mono" font-size="12" font-weight="normal" fill="#8A704D">
                <tspan x="170" y="343">childNodes</tspan>
            </text>
            <text id="firstChild--" font-family="PTMono-Regular, PT Mono" font-size="12" font-weight="normal" fill="#8A704D">
                <tspan x="64" y="379">firstChild  </tspan>
            </text>
            <text id="Type-something" font-family="PTMono-Regular, PT Mono" font-size="12" font-weight="normal" fill="#8A704D">
                <tspan x="279" y="379">lastChild</tspan>
            </text>
        </g>
    </g>
</svg>