<?xml version="1.0" encoding="UTF-8"?>
<svg width="620px" height="633px" viewBox="0 0 620 633" version="1.1" xmlns="http://www.w3.org/2000/svg" xmlns:xlink="http://www.w3.org/1999/xlink">
    <!-- Generator: sketchtool 61.2 (101010) - https://sketch.com -->
    <title>xhr-preflight.svg</title>
    <desc>Created with sketchtool.</desc>
    <g id="network" stroke="none" stroke-width="1" fill="none" fill-rule="evenodd">
        <g id="xhr-preflight.svg">
            <rect id="Rectangle-227" stroke="#E8C48E" stroke-width="2" fill="#FFF9EB" x="1" y="16" width="128" height="64"></rect>
            <text id="JavaScript" font-family="Helvetica" font-size="14" font-weight="normal" fill="#8A704D">
                <tspan x="33" y="49">JavaScript</tspan>
            </text>
            <rect id="Rectangle-228" stroke="#E8C48E" stroke-width="2" fill="#FFF9EB" x="240" y="16" width="128" height="64"></rect>
            <text id="Browser" font-family="Helvetica" font-size="14" font-weight="normal" fill="#8A704D">
                <tspan x="278" y="47">Browser</tspan>
            </text>
            <rect id="Rectangle-229" stroke="#E8C48E" stroke-width="2" fill="#FFF9EB" x="491" y="16" width="128" height="64"></rect>
            <text id="Server" font-family="Helvetica" font-size="14" font-weight="normal" fill="#8A704D">
                <tspan x="534" y="49">Server</tspan>
            </text>
            <line x1="66" y1="82" x2="66" y2="602" id="Line" stroke="#979797" stroke-linecap="square"></line>
            <line x1="305" y1="82" x2="305" y2="602" id="Line" stroke="#979797" stroke-linecap="square"></line>
            <line x1="556" y1="82" x2="556" y2="602" id="Line" stroke="#979797" stroke-linecap="square"></line>
            <path id="Line" d="M291,133 L305,140 L291,147 L290.999,141 L67,141 L67,139 L290.999,139 L291,133 Z" fill="#EE6B47" fill-rule="nonzero"></path>
            <text id="fetch()" font-family="Helvetica" font-size="14" font-weight="normal" fill="#8A704D">
                <tspan x="166" y="130">fetch()</tspan>
            </text>
            <text id="OPTIONS" font-family="Helvetica" font-size="14" font-weight="normal" line-spacing="18" fill="#8A704D">
                <tspan x="403.665527" y="172">OPTION</tspan>
                <tspan x="425.831055" y="190">S</tspan>
            </text>
            <text id="Origin-Access-Contro" font-family="Helvetica" font-size="14" font-weight="normal" line-spacing="18" fill="#8A704D">
                <tspan x="408.327637" y="197">Origin</tspan>
                <tspan x="325.458984" y="215">Access-Control-Request-Method</tspan>
                <tspan x="322.348633" y="233">Access-Control-Request-Headers</tspan>
            </text>
            <path id="Line" d="M319,285.5 L319,291.5 L556,291.5 L556,293.5 L319,293.5 L319,299.5 L305,292.5 L319,285.5 Z" fill="#EE6B47" fill-rule="nonzero"></path>
            <text id="200-OK" font-family="Helvetica" font-size="14" font-weight="normal" line-spacing="18" fill="#8A704D">
                <tspan x="407.262207" y="284">200 OK</tspan>
            </text>
            <path id="Line-4" d="M542,173 L556,180 L542,187 L541.999,181 L305,181 L305,179 L541.999,179 L542,173 Z" fill="#EE6B47" fill-rule="nonzero"></path>
            <path id="Line-2" d="M319,495 L319,501 L556,501 L556,503 L319,503 L319,509 L305,502 L319,495 Z" fill="#EE6B47" fill-rule="nonzero"></path>
            <path id="Line-3" d="M90.5,544.5 L90.5,552.5 L304.5,552.5 L304.5,555.5 L90.5,555.5 L90.5,563.5 L71.5,554 L90.5,544.5 Z" fill="#EE6B47" fill-rule="nonzero"></path>
            <text id="Access-Control-Allow" font-family="Helvetica" font-size="14" font-weight="normal" line-spacing="18" fill="#8A704D">
                <tspan x="338.979492" y="521">Access-Control-Allow-Origin</tspan>
            </text>
            <text id="Main-HTTP-response" font-family="Helvetica" font-size="14" font-weight="normal" line-spacing="18" fill="#8A704D">
                <tspan x="356.479492" y="494">Main HTTP-response</tspan>
            </text>
            <text id="otherwise-error" font-family="Helvetica" font-size="14" font-weight="normal" line-spacing="18" fill="#8A704D">
                <tspan x="134.317383" y="569">otherwise error</tspan>
            </text>
            <text id="if-allowed:-success," font-family="Helvetica" font-size="14" font-weight="normal" line-spacing="18" fill="#8A704D">
                <tspan x="117.196777" y="544">if allowed: success,</tspan>
            </text>
            <path id="Line-5" d="M542,429 L556,436 L542,443 L541.999,437 L304,437 L304,435 L541.999,435 L542,429 Z" fill="#EE6B47" fill-rule="nonzero"></path>
            <text id="Origin" font-family="Helvetica" font-size="14" font-weight="normal" line-spacing="18" fill="#8A704D">
                <tspan x="406.327637" y="453">Origin</tspan>
            </text>
            <text id="Main-HTTP-request" font-family="Helvetica" font-size="14" font-weight="normal" line-spacing="18" fill="#8A704D">
                <tspan x="361.927734" y="428">Main HTTP-request</tspan>
            </text>
            <text id="preflight" font-family="Helvetica" font-size="22" font-weight="normal" fill="#9B9B9B">
                <tspan x="214.366211" y="183">preflight</tspan>
            </text>
            <text id="if-allowed" font-family="Helvetica" font-size="22" font-weight="normal" fill="#9B9B9B">
                <tspan x="201.641602" y="438">if allowed</tspan>
            </text>
            <text id="1" font-family="Helvetica" font-size="24" font-weight="normal" fill="#000000">
                <tspan x="570.326172" y="183">1</tspan>
            </text>
            <text id="2" font-family="Helvetica" font-size="24" font-weight="normal" fill="#000000">
                <tspan x="570.326172" y="299">2</tspan>
            </text>
            <text id="3" font-family="Helvetica" font-size="24" font-weight="normal" fill="#000000">
                <tspan x="570.326172" y="440">3</tspan>
            </text>
            <text id="4" font-family="Helvetica" font-size="24" font-weight="normal" fill="#000000">
                <tspan x="570.326172" y="506">4</tspan>
            </text>
            <text id="Access-Control-Allow" font-family="Helvetica" font-size="14" font-weight="normal" line-spacing="18" fill="#8A704D">
                <tspan x="431.5" y="293"></tspan>
                <tspan x="343.979492" y="311">Access-Control-Allow-Origin</tspan>
                <tspan x="339.303711" y="329">Access-Control-Allow-Method</tspan>
                <tspan x="336.193359" y="347">Access-Control-Allow-Headers</tspan>
                <tspan x="353.700195" y="365">Access-Control-Max-Age</tspan>
            </text>
        </g>
    </g>
</svg>