<?xml version="1.0" encoding="UTF-8"?>
<svg width="373px" height="152px" viewBox="0 0 373 152" version="1.1" xmlns="http://www.w3.org/2000/svg" xmlns:xlink="http://www.w3.org/1999/xlink">
    <!-- Generator: sketchtool 61.2 (101010) - https://sketch.com -->
    <title>promise-then-many.svg</title>
    <desc>Created with sketchtool.</desc>
    <g id="promise" stroke="none" stroke-width="1" fill="none" fill-rule="evenodd">
        <g id="promise-then-many.svg">
            <rect id="Rectangle-1-Copy-3" stroke="#E8C48E" stroke-width="2" fill="#FFF9EB" x="10" y="120" width="108" height="28"></rect>
            <text id=".then" font-family="PTMono-Regular, PT Mono" font-size="14" font-weight="normal" line-spacing="20" fill="#8A704D">
                <tspan x="42.5" y="139">.then</tspan>
            </text>
            <rect id="Rectangle-1-Copy-8" stroke="#E8C48E" stroke-width="2" fill="#FFF9EB" x="131" y="4" width="108" height="28"></rect>
            <text id="new-Promise" font-family="PTMono-Regular, PT Mono" font-size="14" font-weight="normal" line-spacing="20" fill="#8A704D">
                <tspan x="138.3" y="22">new Promise</tspan>
            </text>
            <text id="resolve(1)" font-family="PTMono-Regular, PT Mono" font-size="14" font-weight="normal" fill="#8A704D">
                <tspan x="142" y="54">resolve(1)</tspan>
            </text>
            <path id="Line-Copy-8" d="M186,71 L186,93 L192,93 L185,107 L178,93 L184,93 L184,71 L186,71 Z" fill="#EE6B47" fill-rule="nonzero"></path>
            <rect id="Rectangle-1-Copy-4" stroke="#E8C48E" stroke-width="2" fill="#FFF9EB" x="131" y="120" width="108" height="28"></rect>
            <text id=".then-copy" font-family="PTMono-Regular, PT Mono" font-size="14" font-weight="normal" line-spacing="20" fill="#8A704D">
                <tspan x="164" y="139">.then</tspan>
            </text>
            <path id="Line-Copy-9" d="M113.74577,70.1073057 L114.892694,71.7457696 L114.073462,72.3192319 L75.542,99.29 L78.9834833,104.206151 L63.5,106.5 L70.9550105,92.7369037 L74.396,97.652 L112.926538,70.6807681 L113.74577,70.1073057 Z" fill="#EE6B47" fill-rule="nonzero"></path>
            <rect id="Rectangle-1-Copy-5" stroke="#E8C48E" stroke-width="2" fill="#FFF9EB" x="255" y="120" width="108" height="28"></rect>
            <text id=".then-copy-2" font-family="PTMono-Regular, PT Mono" font-size="14" font-weight="normal" line-spacing="20" fill="#8A704D">
                <tspan x="287.5" y="139">.then</tspan>
            </text>
            <path id="Line-Copy-10" d="M257.834762,67.5954729 L258.619644,68.2151172 L295.131,97.04 L298.849151,92.3308006 L305.5,106.5 L290.174131,103.319159 L293.892,98.609 L257.380356,69.7848828 L256.595473,69.1652385 L257.834762,67.5954729 Z" fill="#EE6B47" fill-rule="nonzero"></path>
        </g>
    </g>
</svg>